<svg width="1440" height="428" viewBox="0 0 1440 428" fill="none" xmlns="http://www.w3.org/2000/svg">
<path d="M112.966 61.9228C115.179 64.2963 117.713 67.3053 120.53 70.8657C122 72.6119 123.319 74.6098 124.858 76.6518C126.376 78.7097 127.962 80.8875 129.449 83.253C130.979 85.6106 132.578 88.0681 134.232 90.6095C135.754 93.2309 137.329 95.9401 138.951 98.7253C142.268 104.304 145.145 110.449 148.406 116.775C149.852 120.004 151.323 123.284 152.813 126.605C154.34 129.934 155.826 133.33 157.105 136.814C157.253 137.206 157.408 137.598 157.56 137.989C168.301 130.593 175.846 118.509 175.977 103.001C176.333 61.1755 126.088 21.8835 91.8471 7.28639C81.178 2.73502 69.6138 -0.401787 57.9297 0.0417619C60.7348 -0.0661283 66.8126 17.7317 67.7716 19.8016C73.1621 31.4098 74.3129 41.3797 74.5487 54.2186C75.0442 81.5747 79.3878 112.411 99.2196 132.755C108.926 142.709 121.573 146.784 133.796 146.085C133.681 145.074 133.565 144.063 133.453 143.052C133.129 139.556 132.594 136.151 132.006 132.795C131.447 129.41 130.895 126.069 130.352 122.781C128.905 116.327 127.747 109.906 126.056 104.04C125.237 101.075 124.442 98.1938 123.675 95.4046C122.764 92.6594 121.889 90.0062 121.045 87.4568C120.238 84.8754 119.299 82.4818 118.392 80.2001C117.465 77.9345 116.71 75.6888 115.767 73.7188C114.009 69.6909 112.362 66.2104 110.856 63.4172C109.385 60.6081 108.111 58.4463 107.199 57.0117C106.292 55.5572 105.749 54.814 105.749 54.814C105.749 54.814 108.578 57.1516 112.966 61.9228Z" fill="#0B8367"/>
<path d="M239.972 97.9616C217.491 98.9926 180.717 110.621 172.073 134.389C168.833 143.307 170.663 151.819 175.302 158.312C178.147 153.897 181.084 149.669 184.297 145.857C185.891 143.939 187.458 142.073 189.16 140.378C190.786 138.632 192.437 136.982 194.159 135.495C195.813 133.945 197.472 132.51 199.186 131.24C200.856 129.929 202.446 128.658 204.125 127.619C207.329 125.366 210.486 123.679 213.251 122.181C216.069 120.774 218.602 119.727 220.64 118.824C224.856 117.354 227.261 116.515 227.261 116.515C227.261 116.515 225.067 117.773 221.219 119.975C219.397 121.234 217.155 122.692 214.734 124.527C212.36 126.453 209.699 128.586 207.106 131.252C205.735 132.494 204.472 133.965 203.162 135.459C201.811 136.91 200.536 138.516 199.29 140.219C197.979 141.853 196.764 143.635 195.589 145.497C194.339 147.295 193.244 149.261 192.137 151.247C189.895 155.199 187.977 159.499 186.183 163.89C185.811 164.862 185.484 165.86 185.132 166.843C192.245 170.576 200.996 171.375 209.26 167.475C224.8 160.146 233.779 143.599 239.848 128.207C242.694 120.986 245.455 115.58 250.961 110.145C251.944 109.174 259.149 100.379 260.715 101.035C254.19 98.3093 246.977 97.6419 239.972 97.9616Z" fill="#0B8367"/>
<path d="M109.381 174.645C111.443 174.629 113.921 174.765 116.314 175.124C118.8 175.476 121.417 176.083 124.062 176.95C125.693 177.478 127.331 178.137 128.961 178.852C128.366 175.236 126.692 171.688 123.675 168.631C110.652 155.448 82.6086 158.949 67.3242 165.138C62.561 167.068 57.9576 169.718 54.4492 173.526C55.2924 172.615 62.7768 176.267 63.7279 176.611C69.0584 178.545 72.5508 181.302 76.6546 185.238C85.4017 193.633 96.4425 201.905 109.03 202.037C116.75 202.117 122.999 197.853 126.412 192.011C124.37 189.561 122.132 187.312 119.731 185.418C117.945 184.003 116.083 182.776 114.208 181.773C112.254 180.711 110.492 179.959 108.622 179.28C104.982 177.977 101.701 177.302 99.4035 176.886C97.0938 176.483 95.7472 176.327 95.7472 176.327C95.7472 176.327 97.0539 176.015 99.3995 175.592C101.745 175.192 105.142 174.677 109.381 174.645Z" fill="#0B8367"/>
<path d="M213.623 122.769C210.958 124.371 207.921 126.17 204.868 128.531C203.27 129.618 201.763 130.941 200.181 132.295C198.554 133.61 196.992 135.088 195.442 136.675C193.819 138.201 192.281 139.884 190.766 141.658C189.176 143.38 187.729 145.27 186.259 147.204C183.286 151.056 180.597 155.308 178.011 159.723C177.796 160.111 177.6 160.523 177.388 160.91C175.142 165.018 173.004 169.254 171.166 173.625C170.883 174.285 170.643 174.952 170.371 175.615C168.225 180.81 166.387 186.081 164.809 191.327C164.245 188.542 163.65 185.729 163.059 182.904C162.935 182.3 162.807 181.705 162.683 181.102C161.892 177.529 161.284 173.913 160.325 170.329C159.39 166.752 158.447 163.16 157.508 159.568C156.018 153.346 154.024 147.24 152.098 141.214C151.794 140.267 151.486 139.316 151.191 138.373C150.152 134.889 148.905 131.488 147.61 128.152C146.356 124.815 145.113 121.518 143.89 118.278C141.085 111.92 138.635 105.706 135.726 100.056C134.308 97.223 132.925 94.4698 131.591 91.8085C130.124 89.2152 128.706 86.7098 127.347 84.3042C126.032 81.8827 124.606 79.6529 123.239 77.5391C121.857 75.4412 120.678 73.3793 119.339 71.5772C116.786 67.9009 114.472 64.7761 112.438 62.2986C108.406 57.3156 105.749 54.8142 105.749 54.8142C105.749 54.8142 108.063 57.6433 111.383 63.0458C113.065 65.7311 114.932 69.0957 116.958 73.0037C118.032 74.9177 118.931 77.1035 120.006 79.3133C121.069 81.539 122.168 83.8766 123.147 86.4061C124.162 88.9075 125.217 91.5088 126.312 94.2061C127.271 96.9513 128.262 99.7924 129.281 102.709C131.375 108.508 132.965 114.857 134.863 121.279C135.634 124.551 136.414 127.88 137.209 131.248C138.032 134.597 138.803 138.002 139.367 141.49C139.59 142.761 139.826 144.031 140.058 145.302C141.101 150.992 142.16 156.722 142.775 162.553C143.227 166.093 143.678 169.633 144.13 173.158C144.601 176.674 144.729 180.243 145.041 183.739C145.181 185.661 145.333 187.571 145.48 189.473C145.66 191.759 145.82 194.024 145.96 196.278C145.105 195.299 144.23 194.328 143.331 193.397C141.369 191.343 139.291 189.409 137.101 187.623C136.821 187.391 136.522 187.187 136.238 186.964C133.992 185.189 131.635 183.587 129.217 182.185C127.163 180.994 125.073 179.923 122.979 179.068C120.55 178.061 118.12 177.298 115.787 176.786C113.505 176.251 111.203 175.959 109.189 175.803C105.102 175.503 101.737 175.719 99.3993 175.915C97.0657 176.131 95.7471 176.326 95.7471 176.326C95.7471 176.326 97.0817 176.366 99.3993 176.562C101.713 176.774 105.022 177.154 108.814 178.121C110.728 178.624 112.67 179.224 114.736 180.111C116.762 180.95 118.812 182.025 120.814 183.299C123.283 184.87 125.653 186.78 127.886 188.882C129.277 190.196 130.628 191.567 131.878 193.03C133.473 194.88 134.927 196.838 136.27 198.836C137.668 200.929 138.947 203.067 140.086 205.209C142.3 209.377 144.042 213.457 145.421 217.037C145.86 218.18 146.256 219.251 146.627 220.278C146.639 221.369 146.683 222.496 146.675 223.566C146.623 225.984 146.571 228.306 146.523 230.611C146.443 234.148 146.368 237.592 146.296 240.825C146.224 243.494 146.216 246.044 146.1 248.473C145.932 250.907 145.772 253.216 145.62 255.386C145.321 259.714 145.061 263.49 144.845 266.595C144.418 272.8 144.174 276.345 144.174 276.345L174.231 277.12C174.231 277.12 174.007 273.396 173.62 266.882C173.424 263.63 173.184 259.686 172.913 255.158C172.889 254.779 172.861 254.335 172.837 253.943C172.721 252.025 172.605 250.067 172.477 247.958C172.269 245.424 171.937 242.759 171.654 239.982C171.138 235.215 170.583 230.052 170 224.673C170.063 223.327 170.151 221.92 170.243 220.514C170.247 220.406 170.255 220.302 170.263 220.194C170.855 211.079 172.077 200.83 174.387 190.396C175.43 185.685 176.685 180.942 178.203 176.267C179.39 172.49 180.824 168.814 182.343 165.202C182.719 164.303 183.07 163.388 183.458 162.505C185.516 158.105 187.693 153.817 190.179 149.901C191.406 147.931 192.62 145.989 193.983 144.219C195.27 142.385 196.592 140.635 198.007 139.036C199.354 137.374 200.724 135.808 202.171 134.405C203.569 132.959 204.912 131.536 206.358 130.345C209.104 127.78 211.893 125.762 214.362 123.94C216.884 122.214 219.197 120.859 221.075 119.688C225.011 117.67 227.261 116.515 227.261 116.515C227.261 116.515 224.908 117.458 220.784 119.113C218.802 120.108 216.34 121.255 213.623 122.769Z" fill="#0B8367"/>
<path d="M1327.03 61.9228C1324.82 64.2963 1322.29 67.3053 1319.47 70.8657C1318 72.6119 1316.68 74.6098 1315.14 76.6518C1313.62 78.7097 1312.04 80.8875 1310.55 83.253C1309.02 85.6106 1307.42 88.0681 1305.77 90.6095C1304.25 93.2309 1302.67 95.9401 1301.05 98.7253C1297.73 104.304 1294.86 110.449 1291.59 116.775C1290.15 120.004 1288.68 123.284 1287.19 126.605C1285.66 129.934 1284.17 133.33 1282.9 136.814C1282.75 137.206 1282.59 137.598 1282.44 137.989C1271.7 130.593 1264.15 118.509 1264.02 103.001C1263.67 61.1755 1313.91 21.8835 1348.15 7.28639C1358.82 2.73502 1370.39 -0.401787 1382.07 0.0417619C1379.27 -0.0661283 1373.19 17.7317 1372.23 19.8016C1366.84 31.4098 1365.69 41.3797 1365.45 54.2186C1364.96 81.5747 1360.61 112.411 1340.78 132.755C1331.07 142.709 1318.43 146.784 1306.2 146.085C1306.32 145.074 1306.44 144.063 1306.55 143.052C1306.87 139.556 1307.41 136.151 1307.99 132.795C1308.55 129.41 1309.1 126.069 1309.65 122.781C1311.09 116.327 1312.25 109.906 1313.94 104.04C1314.76 101.075 1315.56 98.1938 1316.33 95.4046C1317.24 92.6594 1318.11 90.0062 1318.95 87.4568C1319.76 84.8754 1320.7 82.4818 1321.61 80.2001C1322.53 77.9345 1323.29 75.6888 1324.23 73.7188C1325.99 69.6909 1327.64 66.2104 1329.14 63.4172C1330.61 60.6081 1331.89 58.4463 1332.8 57.0117C1333.71 55.5572 1334.25 54.814 1334.25 54.814C1334.25 54.814 1331.42 57.1516 1327.03 61.9228Z" fill="#0B8367"/>
<path d="M1200.03 97.9616C1222.51 98.9926 1259.28 110.621 1267.93 134.389C1271.17 143.307 1269.34 151.819 1264.7 158.312C1261.85 153.897 1258.92 149.669 1255.7 145.857C1254.11 143.939 1252.54 142.073 1250.84 140.378C1249.21 138.632 1247.56 136.982 1245.84 135.495C1244.19 133.945 1242.53 132.51 1240.81 131.24C1239.14 129.929 1237.55 128.658 1235.88 127.619C1232.67 125.366 1229.51 123.679 1226.75 122.181C1223.93 120.774 1221.4 119.727 1219.36 118.824C1215.14 117.354 1212.74 116.515 1212.74 116.515C1212.74 116.515 1214.93 117.773 1218.78 119.975C1220.6 121.234 1222.84 122.692 1225.27 124.527C1227.64 126.453 1230.3 128.586 1232.89 131.252C1234.26 132.494 1235.53 133.965 1236.84 135.459C1238.19 136.91 1239.46 138.516 1240.71 140.219C1242.02 141.853 1243.24 143.635 1244.41 145.497C1245.66 147.295 1246.76 149.261 1247.86 151.247C1250.1 155.199 1252.02 159.499 1253.82 163.89C1254.19 164.862 1254.52 165.86 1254.87 166.843C1247.76 170.576 1239 171.375 1230.74 167.475C1215.2 160.146 1206.22 143.599 1200.15 128.207C1197.31 120.986 1194.55 115.58 1189.04 110.145C1188.06 109.174 1180.85 100.379 1179.28 101.035C1185.81 98.3093 1193.02 97.6419 1200.03 97.9616Z" fill="#0B8367"/>
<path d="M1330.62 174.645C1328.56 174.629 1326.08 174.765 1323.69 175.124C1321.2 175.476 1318.58 176.083 1315.94 176.95C1314.31 177.478 1312.67 178.137 1311.04 178.852C1311.63 175.236 1313.31 171.688 1316.33 168.631C1329.35 155.448 1357.39 158.949 1372.68 165.138C1377.44 167.068 1382.04 169.718 1385.55 173.526C1384.71 172.615 1377.22 176.267 1376.27 176.611C1370.94 178.545 1367.45 181.302 1363.35 185.238C1354.6 193.633 1343.56 201.905 1330.97 202.037C1323.25 202.117 1317 197.853 1313.59 192.011C1315.63 189.561 1317.87 187.312 1320.27 185.418C1322.06 184.003 1323.92 182.776 1325.79 181.773C1327.75 180.711 1329.51 179.959 1331.38 179.28C1335.02 177.977 1338.3 177.302 1340.6 176.886C1342.91 176.483 1344.25 176.327 1344.25 176.327C1344.25 176.327 1342.95 176.015 1340.6 175.592C1338.25 175.192 1334.86 174.677 1330.62 174.645Z" fill="#0B8367"/>
<path d="M1226.38 122.769C1229.04 124.371 1232.08 126.17 1235.13 128.531C1236.73 129.618 1238.24 130.941 1239.82 132.295C1241.45 133.61 1243.01 135.088 1244.56 136.675C1246.18 138.201 1247.72 139.884 1249.23 141.658C1250.82 143.38 1252.27 145.27 1253.74 147.204C1256.71 151.056 1259.4 155.308 1261.99 159.723C1262.2 160.111 1262.4 160.523 1262.61 160.91C1264.86 165.018 1267 169.254 1268.83 173.625C1269.12 174.285 1269.36 174.952 1269.63 175.615C1271.77 180.81 1273.61 186.081 1275.19 191.327C1275.75 188.542 1276.35 185.729 1276.94 182.904C1277.07 182.3 1277.19 181.705 1277.32 181.102C1278.11 177.529 1278.72 173.913 1279.67 170.329C1280.61 166.752 1281.55 163.16 1282.49 159.568C1283.98 153.346 1285.98 147.24 1287.9 141.214C1288.21 140.267 1288.51 139.316 1288.81 138.373C1289.85 134.889 1291.1 131.488 1292.39 128.152C1293.64 124.815 1294.89 121.518 1296.11 118.278C1298.92 111.92 1301.36 105.706 1304.27 100.056C1305.69 97.223 1307.07 94.4698 1308.41 91.8085C1309.88 89.2152 1311.29 86.7098 1312.65 84.3042C1313.97 81.8827 1315.39 79.6529 1316.76 77.5391C1318.14 75.4412 1319.32 73.3793 1320.66 71.5772C1323.21 67.9009 1325.53 64.7761 1327.56 62.2986C1331.59 57.3156 1334.25 54.8142 1334.25 54.8142C1334.25 54.8142 1331.94 57.6433 1328.62 63.0458C1326.93 65.7311 1325.07 69.0957 1323.04 73.0037C1321.97 74.9177 1321.07 77.1035 1319.99 79.3133C1318.93 81.539 1317.83 83.8766 1316.85 86.4061C1315.84 88.9075 1314.78 91.5088 1313.69 94.2061C1312.73 96.9513 1311.74 99.7924 1310.72 102.709C1308.63 108.508 1307.03 114.857 1305.14 121.279C1304.37 124.551 1303.59 127.88 1302.79 131.248C1301.97 134.597 1301.2 138.002 1300.63 141.49C1300.41 142.761 1300.17 144.031 1299.94 145.302C1298.9 150.992 1297.84 156.722 1297.22 162.553C1296.77 166.093 1296.32 169.633 1295.87 173.158C1295.4 176.674 1295.27 180.243 1294.96 183.739C1294.82 185.661 1294.67 187.571 1294.52 189.473C1294.34 191.759 1294.18 194.024 1294.04 196.278C1294.9 195.299 1295.77 194.328 1296.67 193.397C1298.63 191.343 1300.71 189.409 1302.9 187.623C1303.18 187.391 1303.48 187.187 1303.76 186.964C1306.01 185.189 1308.37 183.587 1310.78 182.185C1312.84 180.994 1314.93 179.923 1317.02 179.068C1319.45 178.061 1321.88 177.298 1324.21 176.786C1326.5 176.251 1328.8 175.959 1330.81 175.803C1334.9 175.503 1338.26 175.719 1340.6 175.915C1342.93 176.131 1344.25 176.326 1344.25 176.326C1344.25 176.326 1342.92 176.366 1340.6 176.562C1338.29 176.774 1334.98 177.154 1331.19 178.121C1329.27 178.624 1327.33 179.224 1325.26 180.111C1323.24 180.95 1321.19 182.025 1319.19 183.299C1316.72 184.87 1314.35 186.78 1312.11 188.882C1310.72 190.196 1309.37 191.567 1308.12 193.03C1306.53 194.88 1305.07 196.838 1303.73 198.836C1302.33 200.929 1301.05 203.067 1299.91 205.209C1297.7 209.377 1295.96 213.457 1294.58 217.037C1294.14 218.18 1293.74 219.251 1293.37 220.278C1293.36 221.369 1293.32 222.496 1293.32 223.566C1293.38 225.984 1293.43 228.306 1293.48 230.611C1293.56 234.148 1293.63 237.592 1293.7 240.825C1293.78 243.494 1293.78 246.044 1293.9 248.473C1294.07 250.907 1294.23 253.216 1294.38 255.386C1294.68 259.714 1294.94 263.49 1295.15 266.595C1295.58 272.8 1295.83 276.345 1295.83 276.345L1265.77 277.12C1265.77 277.12 1265.99 273.396 1266.38 266.882C1266.58 263.63 1266.82 259.686 1267.09 255.158C1267.11 254.779 1267.14 254.335 1267.16 253.943C1267.28 252.025 1267.4 250.067 1267.52 247.958C1267.73 245.424 1268.06 242.759 1268.35 239.982C1268.86 235.215 1269.42 230.052 1270 224.673C1269.94 223.327 1269.85 221.92 1269.76 220.514C1269.75 220.406 1269.74 220.302 1269.74 220.194C1269.15 211.079 1267.92 200.83 1265.61 190.396C1264.57 185.685 1263.32 180.942 1261.8 176.267C1260.61 172.49 1259.18 168.814 1257.66 165.202C1257.28 164.303 1256.93 163.388 1256.54 162.505C1254.48 158.105 1252.31 153.817 1249.82 149.901C1248.59 147.931 1247.38 145.989 1246.02 144.219C1244.73 142.385 1243.41 140.635 1241.99 139.036C1240.65 137.374 1239.28 135.808 1237.83 134.405C1236.43 132.959 1235.09 131.536 1233.64 130.345C1230.9 127.78 1228.11 125.762 1225.64 123.94C1223.12 122.214 1220.8 120.859 1218.92 119.688C1214.99 117.67 1212.74 116.515 1212.74 116.515C1212.74 116.515 1215.09 117.458 1219.22 119.113C1221.2 120.108 1223.66 121.255 1226.38 122.769Z" fill="#0B8367"/>
<mask id="mask0_4_83" style="mask-type:alpha" maskUnits="userSpaceOnUse" x="-237" y="136" width="1914" height="1093">
<ellipse cx="720.051" cy="682.5" rx="956.912" ry="546.5" fill="#0B8367"/>
</mask>
<g mask="url(#mask0_4_83)">
<rect y="136" width="1440" height="292" fill="#0B8367"/>
</g>
</svg>
