<svg width="41" height="40" viewBox="0 0 41 40" fill="none" xmlns="http://www.w3.org/2000/svg">
<circle cx="20.5" cy="20" r="20" fill="#00785D"/>
<path d="M30.5 29.25H10.5C10.09 29.25 9.75 29.59 9.75 30C9.75 30.41 10.09 30.75 10.5 30.75H30.5C30.91 30.75 31.25 30.41 31.25 30C31.25 29.59 30.91 29.25 30.5 29.25Z" fill="#FECA37"/>
<path d="M25.5 10H15.5C12.5 10 11.5 11.79 11.5 14V30H29.5V14C29.5 11.79 28.5 10 25.5 10ZM18.5 25.25H15.5C15.09 25.25 14.75 24.91 14.75 24.5C14.75 24.09 15.09 23.75 15.5 23.75H18.5C18.91 23.75 19.25 24.09 19.25 24.5C19.25 24.91 18.91 25.25 18.5 25.25ZM18.5 20.75H15.5C15.09 20.75 14.75 20.41 14.75 20C14.75 19.59 15.09 19.25 15.5 19.25H18.5C18.91 19.25 19.25 19.59 19.25 20C19.25 20.41 18.91 20.75 18.5 20.75ZM18.5 16.25H15.5C15.09 16.25 14.75 15.91 14.75 15.5C14.75 15.09 15.09 14.75 15.5 14.75H18.5C18.91 14.75 19.25 15.09 19.25 15.5C19.25 15.91 18.91 16.25 18.5 16.25ZM25.5 25.25H22.5C22.09 25.25 21.75 24.91 21.75 24.5C21.75 24.09 22.09 23.75 22.5 23.75H25.5C25.91 23.75 26.25 24.09 26.25 24.5C26.25 24.91 25.91 25.25 25.5 25.25ZM25.5 20.75H22.5C22.09 20.75 21.75 20.41 21.75 20C21.75 19.59 22.09 19.25 22.5 19.25H25.5C25.91 19.25 26.25 19.59 26.25 20C26.25 20.41 25.91 20.75 25.5 20.75ZM25.5 16.25H22.5C22.09 16.25 21.75 15.91 21.75 15.5C21.75 15.09 22.09 14.75 22.5 14.75H25.5C25.91 14.75 26.25 15.09 26.25 15.5C26.25 15.91 25.91 16.25 25.5 16.25Z" fill="#FECA37"/>
</svg>
