<svg width="818" height="461" viewBox="0 0 818 461" fill="none" xmlns="http://www.w3.org/2000/svg">
<path d="M676.917 460.961H127.687C123.114 460.961 119.406 457.254 119.406 452.681C119.406 448.107 123.114 444.399 127.687 444.399H676.917C681.491 444.399 685.2 448.107 685.2 452.681C685.2 457.254 681.491 460.961 676.917 460.961Z" fill="#0DAD89"/>
<path d="M174.015 378.05C163.149 389.418 158.488 404.158 160.268 417.334C173.512 418.52 188.027 413.2 198.893 401.833C209.76 390.467 214.421 375.726 212.641 362.548C199.397 361.364 184.882 366.684 174.015 378.05Z" fill="#0B8367"/>
<path d="M147.829 378.05C158.695 389.418 163.356 404.158 161.577 417.334C148.332 418.52 133.817 413.2 122.951 401.833C112.085 390.467 107.423 375.726 109.203 362.548C122.448 361.364 136.963 366.684 147.829 378.05Z" fill="#0B8367"/>
<path d="M139.348 370.354C139.348 389.923 147.83 407.19 160.763 417.513C173.694 407.19 182.177 389.923 182.177 370.354C182.177 350.786 173.694 333.52 160.763 323.197C147.83 333.52 139.348 350.786 139.348 370.354Z" fill="#0D9879"/>
<path d="M170.94 451.529H152.213C142.702 451.529 134.994 443.821 134.994 434.31V411.999H188.16V434.31C188.16 443.821 180.451 451.529 170.94 451.529Z" fill="#0D9879"/>
<path d="M190.563 419.913H132.59C130.405 419.913 128.633 418.142 128.633 415.956C128.633 413.772 130.405 411.999 132.59 411.999H190.563C192.749 411.999 194.521 413.772 194.521 415.956C194.521 418.142 192.749 419.913 190.563 419.913Z" fill="#0BB38D"/>
<path d="M238.626 54.5334C238.626 75.8158 221.373 93.0681 200.092 93.0681C178.81 93.0681 161.558 75.8158 161.558 54.5334C161.558 33.2522 178.81 15.9999 200.092 15.9999C221.373 15.9999 238.626 33.2522 238.626 54.5334Z" fill="#08A885"/>
<path d="M200.093 86.9392C182.223 86.9392 167.686 72.402 167.686 54.5334C167.686 36.6636 182.223 22.1264 200.093 22.1264C217.961 22.1264 232.5 36.6636 232.5 54.5334C232.5 72.402 217.961 86.9392 200.093 86.9392Z" fill="#0D9879"/>
<path d="M201.623 53.8995V33.7784C201.623 32.9335 200.938 32.2474 200.092 32.2474C199.246 32.2474 198.56 32.9335 198.56 33.7784V54.5335C198.56 54.9388 198.721 55.3301 199.009 55.616L209.015 65.6213C209.314 65.9211 209.706 66.071 210.098 66.071C210.489 66.071 210.882 65.9211 211.18 65.6213C211.78 65.0229 211.78 64.0548 211.18 63.4551L201.623 53.8995Z" fill="#0B8367"/>
<path d="M218.71 73.1502C218.264 73.5961 218.264 74.3166 218.71 74.7625C219.154 75.2072 219.877 75.2072 220.322 74.7625C220.767 74.3166 220.767 73.5961 220.322 73.1502C219.877 72.7042 219.154 72.7042 218.71 73.1502ZM200.093 79.7213C198.834 79.7213 197.812 80.7428 197.812 82.0019C197.812 83.261 198.834 84.2825 200.093 84.2825C201.352 84.2825 202.373 83.261 202.373 82.0019C202.373 80.7428 201.352 79.7213 200.093 79.7213ZM227.56 52.2528C226.301 52.2528 225.281 53.273 225.281 54.5333C225.281 55.7924 226.301 56.8139 227.56 56.8139C228.821 56.8139 229.841 55.7924 229.841 54.5333C229.841 53.273 228.821 52.2528 227.56 52.2528ZM218.71 34.3042C218.264 34.7489 218.264 35.4718 218.71 35.9165C219.154 36.3612 219.877 36.3612 220.322 35.9165C220.767 35.4718 220.767 34.7489 220.322 34.3042C219.877 33.8583 219.154 33.8583 218.71 34.3042ZM179.862 73.1502C179.418 73.5961 179.418 74.3166 179.862 74.7625C180.308 75.2072 181.03 75.2072 181.476 74.7625C181.922 74.3166 181.922 73.5961 181.476 73.1502C181.03 72.7042 180.308 72.7042 179.862 73.1502ZM179.862 34.3042C179.418 34.7489 179.418 35.4718 179.862 35.9165C180.308 36.3612 181.03 36.3612 181.476 35.9165C181.922 35.4718 181.922 34.7489 181.476 34.3042C181.03 33.8583 180.308 33.8583 179.862 34.3042ZM200.093 24.7842C198.834 24.7842 197.812 25.8044 197.812 27.066C197.812 28.3251 198.834 29.3453 200.093 29.3453C201.352 29.3453 202.373 28.3251 202.373 27.066C202.373 25.8044 201.352 24.7842 200.093 24.7842ZM172.624 52.2528C171.364 52.2528 170.344 53.273 170.344 54.5333C170.344 55.7924 171.364 56.8139 172.624 56.8139C173.883 56.8139 174.905 55.7924 174.905 54.5333C174.905 53.273 173.883 52.2528 172.624 52.2528Z" fill="#0DAD89"/>
<path d="M604.53 137.227V55.4388H708.859V137.227H604.53Z" fill="#08A885"/>
<path d="M611.821 129.934V62.7304H701.567V129.934H611.821Z" fill="#0D9879"/>
<path d="M686.499 111.23C683.048 111.23 680.252 114.027 680.252 117.477C680.252 120.927 683.048 123.724 686.499 123.724C689.95 123.724 692.746 120.927 692.746 117.477C692.746 114.027 689.95 111.23 686.499 111.23Z" fill="#0DAD89"/>
<path d="M680.253 80.5457H633.137C631.173 80.5457 629.58 78.9524 629.58 76.9869C629.58 75.024 631.173 73.4308 633.137 73.4308H680.253C682.217 73.4308 683.81 75.024 683.81 76.9869C683.81 78.9524 682.217 80.5457 680.253 80.5457Z" fill="#0DAD89"/>
<path d="M693.919 95.0042H619.473C618.069 95.0042 616.932 93.867 616.932 92.4631C616.932 91.0605 618.069 89.9221 619.473 89.9221H693.919C695.321 89.9221 696.46 91.0605 696.46 92.4631C696.46 93.867 695.321 95.0042 693.919 95.0042Z" fill="#0B8367"/>
<path d="M693.919 102.154H619.473C618.069 102.154 616.932 101.016 616.932 99.6125C616.932 98.2099 618.069 97.0715 619.473 97.0715H693.919C695.321 97.0715 696.46 98.2099 696.46 99.6125C696.46 101.016 695.321 102.154 693.919 102.154Z" fill="#0B8367"/>
<path d="M680.253 109.303H633.137C631.734 109.303 630.596 108.166 630.596 106.762C630.596 105.359 631.734 104.221 633.137 104.221H680.253C681.656 104.221 682.794 105.359 682.794 106.762C682.794 108.166 681.656 109.303 680.253 109.303Z" fill="#0B8367"/>
<path d="M375.18 93.1316V38.0242H555.995V93.1316H375.18Z" fill="#08A885"/>
<path d="M382.471 85.8389V45.3158H548.703V85.8389H382.471Z" fill="#0D9879"/>
<path d="M402.147 80.3284C400.744 80.3284 399.605 79.1913 399.605 77.7873C399.605 76.3847 400.744 75.2463 402.147 75.2463C409.928 75.2463 417.188 71.0549 421.095 64.3046C425.906 55.9904 434.852 50.8258 444.441 50.8258C454.029 50.8258 462.975 55.9904 467.786 64.3046C468.489 65.5193 468.075 67.0743 466.86 67.7769C465.646 68.477 464.09 68.0654 463.388 66.8508C459.481 60.1005 452.221 55.9078 444.441 55.9078C436.66 55.9078 429.399 60.1005 425.492 66.8508C420.681 75.1637 411.736 80.3284 402.147 80.3284Z" fill="#0B8367"/>
<path d="M444.441 80.3284C434.852 80.3284 425.906 75.165 421.095 66.8508C417.188 60.1005 409.928 55.9078 402.147 55.9078C400.744 55.9078 399.605 54.7694 399.605 53.3668C399.605 51.9629 400.744 50.8258 402.147 50.8258C411.736 50.8258 420.682 55.9904 425.492 64.3046C429.399 71.0549 436.66 75.2463 444.441 75.2463C452.221 75.2463 459.481 71.0549 463.388 64.3046C464.09 63.09 465.646 62.6758 466.86 63.3797C468.075 64.081 468.489 65.6361 467.786 66.8508C462.974 75.165 454.028 80.3284 444.441 80.3284Z" fill="#0B8367"/>
<path d="M486.734 80.3284C477.145 80.3284 468.199 75.1637 463.388 66.8508C462.685 65.6361 463.1 64.081 464.314 63.3784C465.53 62.6784 467.084 63.09 467.787 64.3046C471.692 71.0549 478.953 75.2463 486.734 75.2463C494.516 75.2463 501.775 71.0549 505.681 64.3046C510.492 55.9904 519.438 50.8258 529.028 50.8258C530.431 50.8258 531.569 51.9629 531.569 53.3668C531.569 54.7694 530.431 55.9078 529.028 55.9078C521.246 55.9078 513.986 60.1005 510.079 66.8508C505.268 75.1637 496.324 80.3284 486.734 80.3284Z" fill="#0B8367"/>
<path d="M529.028 80.3284C519.439 80.3284 510.493 75.165 505.681 66.8508C501.775 60.1005 494.515 55.9078 486.733 55.9078C478.953 55.9078 471.692 60.1005 467.786 66.8508C467.084 68.0654 465.53 68.4808 464.315 67.7769C463.101 67.0743 462.685 65.5193 463.388 64.3046C468.199 55.9904 477.145 50.8258 486.733 50.8258C496.323 50.8258 505.269 55.9904 510.079 64.3046C513.986 71.0549 521.247 75.2463 529.028 75.2463C530.43 75.2463 531.569 76.3847 531.569 77.7873C531.569 79.1913 530.43 80.3284 529.028 80.3284Z" fill="#0B8367"/>
<path d="M505.028 173.31V109.309H555.995V173.31H505.028Z" fill="#08A885"/>
<path d="M512.319 166.019V116.599H548.704V166.019H512.319Z" fill="#0D9879"/>
<path d="M440.103 173.31V109.309H491.071V173.31H440.103Z" fill="#08A885"/>
<path d="M447.395 166.019V116.599H483.78V166.019H447.395Z" fill="#0D9879"/>
<path d="M375.18 173.31V109.309H426.148V173.31H375.18Z" fill="#08A885"/>
<path d="M382.471 166.019V116.599H418.856V166.019H382.471Z" fill="#0D9879"/>
<path d="M479.537 149.241C478.585 141.675 475.608 136.49 470.607 133.686C469.435 133.031 467.984 133.82 467.873 135.159C467.444 140.35 467.643 145.233 468.021 149.58C468.089 150.375 468.656 151.047 469.433 151.219C472.598 151.93 475.453 151.796 478.056 151.275C479.005 151.086 479.657 150.2 479.537 149.241Z" fill="#0DAD89"/>
<path d="M460.568 133.686C455.567 136.49 452.591 141.675 451.638 149.241C451.518 150.2 452.171 151.086 453.119 151.275C455.722 151.796 458.577 151.93 461.742 151.219C462.519 151.047 463.086 150.375 463.154 149.58C463.532 145.233 463.731 140.35 463.302 135.159C463.191 133.82 461.739 133.031 460.568 133.686Z" fill="#0DAD89"/>
<path d="M476.013 145.326C474.645 144.962 473.402 144.281 472.358 143.384C471.356 142.517 470.539 141.453 469.844 140.32C470.332 140.363 470.841 140.349 471.34 140.206C471.939 140.042 472.485 139.669 472.841 139.199C473.199 138.727 473.395 138.196 473.523 137.673L473.39 137.4C473.27 137.347 473.131 137.4 473.077 137.52C472.873 137.976 472.611 138.394 472.278 138.692C471.943 138.988 471.549 139.149 471.135 139.185C470.41 139.245 469.64 138.964 468.91 138.592C468.027 136.751 467.397 134.777 466.882 132.781C466.946 130.308 467.225 127.897 467.816 125.573H463.359C463.899 127.842 464.181 130.289 464.27 132.867C463.758 134.834 463.135 136.778 462.265 138.592C461.536 138.964 460.765 139.245 460.04 139.185C459.626 139.149 459.232 138.988 458.897 138.692C458.564 138.394 458.304 137.976 458.1 137.525L457.826 137.388C457.699 137.418 457.621 137.546 457.652 137.673C457.78 138.196 457.976 138.727 458.334 139.199C458.69 139.669 459.237 140.042 459.833 140.206C460.334 140.349 460.843 140.363 461.331 140.32C460.638 141.453 459.821 142.517 458.817 143.384C457.773 144.281 456.53 144.962 455.165 145.326C455.047 145.356 454.971 145.468 454.988 145.589C455.007 145.717 455.126 145.806 455.256 145.788C456.53 145.607 457.776 145.152 458.902 144.482C458.854 144.863 458.853 145.266 458.958 145.659C459.072 146.098 459.338 146.502 459.682 146.772C460.026 147.042 460.422 147.199 460.814 147.303L460.978 147.223L460.904 147.041C460.551 146.892 460.221 146.699 459.979 146.441C459.737 146.185 459.596 145.871 459.558 145.539C459.489 144.936 459.714 144.303 460.004 143.711C461 142.935 461.875 142.01 462.641 141.016C462.969 140.588 463.273 140.146 463.565 139.697C463.655 139.611 463.722 139.507 463.764 139.391C464.455 138.295 465.051 137.146 465.588 135.972C466.124 137.146 466.721 138.295 467.412 139.393C467.454 139.508 467.523 139.614 467.613 139.701C467.904 140.147 468.207 140.589 468.534 141.016C469.3 142.01 470.175 142.935 471.171 143.711C471.461 144.303 471.686 144.936 471.617 145.539C471.579 145.871 471.44 146.185 471.197 146.441C470.953 146.699 470.624 146.892 470.274 147.04L470.192 147.204L470.361 147.303C470.753 147.199 471.149 147.042 471.494 146.772C471.838 146.502 472.103 146.098 472.217 145.659C472.323 145.266 472.321 144.863 472.273 144.482C473.399 145.152 474.645 145.607 475.919 145.788C476.036 145.806 476.151 145.732 476.181 145.615C476.214 145.488 476.139 145.359 476.013 145.326Z" fill="#0B8367"/>
<path d="M525.761 148.1C525.192 147.907 524.573 147.902 523.944 148.133C523.32 148.357 522.712 148.814 522.261 149.413C521.807 150.011 521.511 150.744 521.444 151.505C521.367 152.26 521.55 153.073 521.911 153.776C522.031 154.015 522.299 154.299 522.646 154.551C522.994 154.806 523.403 155.04 523.835 155.255C524.704 155.687 525.653 156.059 526.61 156.441C527.568 156.825 528.543 157.21 529.494 157.709C529.966 157.961 530.435 158.24 530.867 158.595C531.294 158.948 531.694 159.395 531.91 159.95C531.972 160.109 531.894 160.29 531.735 160.352C531.59 160.408 531.429 160.348 531.354 160.216C530.904 159.429 529.98 158.991 529.069 158.653C528.141 158.316 527.158 158.074 526.164 157.824C525.168 157.573 524.154 157.331 523.122 156.984C522.605 156.808 522.083 156.604 521.554 156.322C521.031 156.033 520.478 155.664 520.014 155.055C519.271 154.025 518.81 152.81 518.74 151.509C518.666 150.216 518.98 148.91 519.609 147.765C520.237 146.621 521.183 145.616 522.408 144.944C523.621 144.263 525.154 143.983 526.596 144.233L526.744 144.26C527.826 144.448 528.551 145.478 528.362 146.559C528.174 147.642 527.143 148.366 526.061 148.178L525.761 148.1Z" fill="#0DAD89"/>
<path d="M532.276 122.91C532.265 123.907 532.292 124.898 532.429 125.866C532.57 126.832 532.795 127.775 533.133 128.651C533.468 129.525 533.924 130.336 534.49 130.989C535.044 131.653 535.739 132.122 536.398 132.309C537.108 132.512 537.521 133.252 537.319 133.961C537.117 134.672 536.378 135.085 535.666 134.883L535.498 134.823C534.218 134.257 533.302 133.341 532.658 132.353C532.005 131.362 531.585 130.291 531.318 129.215C530.787 127.054 530.845 124.882 531.152 122.806C531.198 122.496 531.485 122.282 531.794 122.328C532.078 122.37 532.282 122.616 532.278 122.894L532.276 122.91Z" fill="#0DAD89"/>
<path d="M538.411 131.291L539.093 131.5C540.73 131.999 541.83 133.529 541.785 135.24L541.768 135.916C541.721 137.657 541.44 139.383 540.929 141.048L540.616 142.071C539.319 146.31 535.252 152.916 526.225 150.774C524.915 150.462 523.083 148.029 523.698 146.018L524.303 144.042C524.781 142.485 526.196 141.403 527.824 141.353C529.046 141.313 530.174 140.691 530.859 139.679L531.263 139.082C532.161 137.753 532.865 136.301 533.353 134.773L533.671 133.775C534.303 131.787 536.417 130.68 538.411 131.291Z" fill="#0DAD89"/>
<path d="M529.919 149.108C529.045 149.108 528.113 148.992 527.148 148.764C526.906 148.706 526.363 148.295 525.96 147.591C525.593 146.951 525.471 146.296 525.625 145.796L526.165 144.03C526.464 143.051 527.352 142.372 528.375 142.34C529.785 142.295 531.099 141.571 531.891 140.404L532.25 139.869C533.108 138.602 533.777 137.22 534.242 135.76L534.527 134.871C534.843 133.874 535.759 133.205 536.803 133.205C537.039 133.205 537.275 133.24 537.504 133.312L538.114 133.497C539.136 133.81 539.831 134.775 539.802 135.846L539.787 136.45C539.749 137.913 539.511 139.364 539.083 140.764L538.804 141.677C538.27 143.421 536.053 149.108 529.919 149.108Z" fill="#0B8367"/>
<path d="M405.659 132.904C404.277 133.071 402.114 134.517 401.381 136.828C401.221 137.335 401.1 137.833 401.017 138.313C400.958 138.649 401.128 138.965 401.407 139.161C401.737 139.395 401.952 139.778 401.952 140.213C401.952 140.544 401.826 140.844 401.62 141.072C401.212 141.519 401.4 142.285 401.976 142.476C402.157 142.533 402.338 142.537 402.525 142.504L401.941 144.177L401.582 150.446C401.575 150.576 401.643 150.677 401.736 150.731C401.759 151.634 401.826 152.529 401.916 153.425C401.079 153.414 400.241 153.415 399.404 153.427C399.442 153.045 399.48 152.663 399.51 152.279C399.549 151.767 399.574 151.251 399.59 150.734C399.685 150.679 399.755 150.579 399.747 150.446L399.388 144.177L398.805 142.504C398.991 142.537 399.172 142.533 399.342 142.479C399.93 142.284 400.12 141.519 399.712 141.072C399.505 140.844 399.379 140.544 399.379 140.213C399.379 139.778 399.595 139.396 399.924 139.162C400.202 138.966 400.371 138.65 400.313 138.315C400.229 137.834 400.109 137.336 399.948 136.828C399.215 134.517 397.052 133.071 395.67 132.904C395.271 132.613 394.851 132.351 394.419 132.102C394.88 132.004 395.323 131.813 395.702 131.589C396.35 131.205 396.89 130.762 397.415 130.378C398.46 129.591 399.494 129.14 400.666 129.147C401.836 129.145 402.869 129.596 403.912 130.383C404.437 130.767 404.978 131.21 405.625 131.594C406.005 131.817 406.447 132.007 406.908 132.104C406.477 132.352 406.057 132.614 405.659 132.904ZM416.314 132.625C416.044 132.176 415.667 131.817 415.272 131.52C414.868 131.235 414.434 131.023 414 130.881C413.126 130.594 412.258 130.542 411.444 130.605C410.627 130.669 409.853 130.85 409.117 131.093C408.786 131.207 408.462 131.336 408.145 131.474L407.881 131.321C406.703 131.146 405.919 130.162 404.845 129.223C404.316 128.746 403.69 128.298 402.972 127.97C402.249 127.653 401.447 127.494 400.666 127.485C399.884 127.501 399.081 127.65 398.362 127.977C397.643 128.3 397.019 128.754 396.491 129.228C395.419 130.168 394.63 131.153 393.457 131.319L393.186 131.476C392.869 131.337 392.545 131.207 392.212 131.093C391.476 130.85 390.702 130.669 389.886 130.605C389.071 130.542 388.203 130.594 387.329 130.881C386.895 131.023 386.461 131.235 386.057 131.52C385.662 131.817 385.285 132.176 385.016 132.625C384.454 133.51 384.326 134.624 384.557 135.522C384.655 135.985 384.835 136.396 385.037 136.785C385.26 137.159 385.505 137.503 385.779 137.812C385.988 138.034 386.209 138.236 386.436 138.427L386.426 138.547C386.426 140.506 388.432 144.177 390.391 144.177C392.35 144.177 394.355 141.755 394.355 139.796C394.355 137.837 392.767 136.249 390.807 136.249C389.628 136.249 388.285 136.375 387.399 136.901L387.277 136.697C386.971 136.174 386.788 135.626 386.751 135.144C386.716 134.653 386.825 134.257 387.054 133.954C387.27 133.646 387.641 133.404 388.118 133.242C389.084 132.905 390.376 132.995 391.639 133.224C392.556 133.411 393.482 133.68 394.425 133.981C394.454 134.943 395.034 136.452 395.59 138.209C396.065 139.708 396.783 140.955 397.533 141.718C397.208 142.812 396.837 144.224 396.837 144.958C396.837 147.25 398.3 149.419 399.172 150.646C399.05 151.16 398.94 151.677 398.844 152.193C398.746 152.72 398.656 153.248 398.575 153.778C398.566 154.044 398.736 154.222 398.952 154.225C400.098 154.251 401.226 154.248 402.356 154.23L402.423 154.225C402.639 154.194 402.786 153.993 402.755 153.777C402.596 152.73 402.403 151.686 402.154 150.65C403.029 149.419 404.493 147.25 404.493 144.958C404.493 144.224 404.122 142.812 403.796 141.718C404.546 140.955 405.264 139.708 405.739 138.209C406.295 136.452 406.875 134.943 406.904 133.981C407.847 133.68 408.773 133.411 409.69 133.224C410.953 132.995 412.245 132.905 413.211 133.242C413.689 133.404 414.06 133.646 414.276 133.954C414.504 134.257 414.614 134.653 414.578 135.144C414.541 135.626 414.358 136.174 414.052 136.697L413.93 136.901C413.044 136.375 411.702 136.249 410.522 136.249C408.563 136.249 406.974 137.837 406.974 139.796C406.974 141.755 408.979 144.177 410.938 144.177C412.897 144.177 414.903 140.506 414.903 138.547L414.893 138.427C415.12 138.236 415.342 138.034 415.55 137.812C415.824 137.503 416.07 137.159 416.292 136.785C416.494 136.396 416.676 135.985 416.772 135.522C417.003 134.624 416.875 133.51 416.314 132.625Z" fill="#0DAD89"/>
<path d="M410.197 137.082C408.643 137.081 407.426 138.3 407.426 139.796C407.426 141.388 409.152 143.345 410.556 143.345C411.004 143.345 411.516 142.967 411.996 142.412C412.052 142.083 412.087 141.748 412.087 141.405C412.087 139.696 411.358 138.161 410.197 137.082Z" fill="#0B8367"/>
<path d="M391.131 137.082C392.685 137.081 393.902 138.3 393.902 139.796C393.902 141.388 392.176 143.345 390.772 143.345C390.325 143.345 389.812 142.967 389.333 142.412C389.276 142.083 389.241 141.748 389.241 141.405C389.241 139.696 389.971 138.161 391.131 137.082Z" fill="#0B8367"/>
<path d="M387.448 445.752C387.448 449.538 384.38 452.608 380.593 452.608C376.807 452.608 373.738 449.538 373.738 445.752C373.738 441.966 376.807 438.896 380.593 438.896C384.38 438.896 387.448 441.966 387.448 445.752Z" fill="#0B8367"/>
<path d="M324.559 445.752C324.559 449.538 321.489 452.608 317.703 452.608C313.917 452.608 310.847 449.538 310.847 445.752C310.847 441.966 313.917 438.896 317.703 438.896C321.489 438.896 324.559 441.966 324.559 445.752Z" fill="#0B8367"/>
<path d="M355.153 442.022H343.144V373.312H355.153V442.022Z" fill="#0D9879"/>
<path d="M310.847 443.508C310.847 440.961 312.912 438.896 315.459 438.896H382.837C385.385 438.896 387.448 440.961 387.448 443.508C387.448 446.054 385.385 448.119 382.837 448.119H315.459C312.912 448.119 310.847 446.054 310.847 443.508Z" fill="#0D9879"/>
<path d="M355.152 380.203H343.143L336.572 373.312H361.723L355.152 380.203Z" fill="#0B8367"/>
<path d="M355.152 432.005H343.143L336.572 438.896H361.723L355.152 432.005Z" fill="#0B8367"/>
<path d="M304.1 300.645H362.655C369.816 300.645 375.621 294.839 375.621 287.679V262.864C375.621 255.703 369.816 249.898 362.655 249.898H304.1C296.939 249.898 291.134 255.703 291.134 262.864V287.679C291.134 294.839 296.939 300.645 304.1 300.645Z" fill="#0B8367"/>
<path d="M305.145 373.247H394.375C399.205 373.247 403.121 369.331 403.121 364.501C403.121 359.672 399.205 355.757 394.375 355.757H305.145C300.316 355.757 296.4 359.672 296.4 364.501C296.4 369.331 300.316 373.247 305.145 373.247Z" fill="#0B8367"/>
<path d="M326.482 355.757H338.493V300.645H326.482V355.757Z" fill="#0D9879"/>
<path d="M307.377 265.489H364.223C367.3 265.489 369.795 262.993 369.795 259.916C369.795 256.839 367.3 254.345 364.223 254.345H307.377C304.3 254.345 301.806 256.839 301.806 259.916C301.806 262.993 304.3 265.489 307.377 265.489Z" fill="#0D9879"/>
<path d="M283.149 445.752C283.149 449.538 280.079 452.608 276.293 452.608C272.507 452.608 269.438 449.538 269.438 445.752C269.438 441.966 272.507 438.896 276.293 438.896C280.079 438.896 283.149 441.966 283.149 445.752Z" fill="#0B8367"/>
<path d="M220.258 445.752C220.258 449.538 217.19 452.608 213.404 452.608C209.617 452.608 206.548 449.538 206.548 445.752C206.548 441.966 209.617 438.896 213.404 438.896C217.19 438.896 220.258 441.966 220.258 445.752Z" fill="#0B8367"/>
<path d="M250.854 442.022H238.844V373.312H250.854V442.022Z" fill="#0D9879"/>
<path d="M206.548 443.508C206.548 440.961 208.612 438.896 211.159 438.896H278.537C281.084 438.896 283.149 440.961 283.149 443.508C283.149 446.054 281.084 448.119 278.537 448.119H211.159C208.612 448.119 206.548 446.054 206.548 443.508Z" fill="#0D9879"/>
<path d="M250.854 380.203H238.844L232.272 373.312H257.424L250.854 380.203Z" fill="#0B8367"/>
<path d="M250.854 432.005H238.844L232.272 438.896H257.424L250.854 432.005Z" fill="#0B8367"/>
<path d="M199.799 300.645H258.356C265.517 300.645 271.32 294.839 271.32 287.679V262.864C271.32 255.703 265.517 249.898 258.356 249.898H199.799C192.64 249.898 186.835 255.703 186.835 262.864V287.679C186.835 294.839 192.64 300.645 199.799 300.645Z" fill="#0B8367"/>
<path d="M200.846 373.247H290.076C294.905 373.247 298.821 369.331 298.821 364.501C298.821 359.672 294.905 355.757 290.076 355.757H200.846C196.016 355.757 192.1 359.672 192.1 364.501C192.1 369.331 196.016 373.247 200.846 373.247Z" fill="#0B8367"/>
<path d="M222.183 355.757H234.193V300.645H222.183V355.757Z" fill="#0D9879"/>
<path d="M203.078 265.489H259.923C263.001 265.489 265.495 262.993 265.495 259.916C265.495 256.839 263.001 254.345 259.923 254.345H203.078C200.001 254.345 197.507 256.839 197.507 259.916C197.507 262.993 200.001 265.489 203.078 265.489Z" fill="#0D9879"/>
<path d="M363.618 336.278V364.514H427.027C434.824 364.514 441.145 358.193 441.145 350.396C441.145 342.597 434.824 336.278 427.027 336.278H363.618Z" fill="#222B54"/>
<path d="M380.331 364.514H344.177C337.855 364.514 332.731 359.39 332.731 353.069V326.647H391.776V353.069C391.776 359.39 386.652 364.514 380.331 364.514Z" fill="#222B54"/>
<path d="M391.776 332.426H332.731V326.617H391.776V332.426Z" fill="#33407D"/>
<path d="M397.232 302.182C391.765 302.182 387.024 298.282 385.961 292.91L376.913 247.18C375.68 240.957 379.741 234.894 385.964 233.663C386.702 233.517 387.457 233.442 388.208 233.442C393.676 233.442 398.416 237.341 399.48 242.713L408.528 288.445C409.374 292.726 407.765 297.056 404.324 299.747C402.896 300.862 401.266 301.605 399.478 301.961C398.736 302.107 397.982 302.182 397.232 302.182Z" fill="#FCC81E"/>
<path d="M389.535 297.489C386.598 292.066 388.905 285.185 394.715 282.71C399.78 280.554 405.658 282.849 408.279 287.687L425.175 318.878C425.652 319.759 425.326 320.859 424.444 321.337L409.036 329.683C408.156 330.159 407.056 329.833 406.578 328.952L389.535 297.489Z" fill="#FCC81E"/>
<path d="M411.529 333.658L409.298 329.542L424.182 321.478L426.413 325.595L411.529 333.658Z" fill="#E3E3E3"/>
<path d="M380.103 435.243H361.446V423.551H380.103V435.243Z" fill="#F5916E"/>
<path d="M384.263 435.175L382.095 433.011C381.63 432.546 380.999 432.286 380.341 432.286H374.174C372.803 432.286 371.692 433.397 371.692 434.767H362.01C360.64 434.767 359.528 435.879 359.528 437.249V447.668H398.813V444.499C398.813 442.365 397.411 440.483 395.367 439.872L384.263 435.175Z" fill="#FDD247"/>
<path d="M398.813 452.141H359.528V447.668H398.813V452.141Z" fill="#222B54"/>
<path d="M360.321 411.081L360.677 425.11H381.244V411.081H360.321Z" fill="#222B54"/>
<path d="M357.28 349.465L358.574 413.956C358.602 414.972 359.433 415.782 360.45 415.782H381.063C382.1 415.782 382.94 414.942 382.94 413.904V349.109C382.94 342.022 377.195 336.278 370.108 336.278C362.881 336.278 357.08 342.242 357.28 349.465Z" fill="#33407D"/>
<path d="M438.218 435.243H419.56V423.551H438.218V435.243Z" fill="#F5916E"/>
<path d="M418.436 411.081L418.793 425.11H439.36V411.081H418.436Z" fill="#222B54"/>
<path d="M415.395 349.465L416.688 413.956C416.716 414.972 417.549 415.782 418.565 415.782H439.178C440.215 415.782 441.056 414.942 441.056 413.904V349.109C441.056 342.022 435.31 336.278 428.222 336.278C420.996 336.278 415.196 342.242 415.395 349.465Z" fill="#33407D"/>
<path d="M445.655 435.246L443.476 433.094C443.009 432.63 442.377 432.372 441.719 432.376L435.551 432.408C434.181 432.414 433.076 433.53 433.082 434.902L420.733 434.963C419.362 434.97 418.256 436.087 418.263 437.457L418.315 447.876L463.825 447.649L463.809 444.48C463.798 442.344 462.388 440.469 460.34 439.868L446.699 435.862C446.306 435.748 445.947 435.536 445.655 435.246Z" fill="#FDD247"/>
<path d="M463.848 452.121L418.338 452.35L418.315 447.876L463.825 447.649L463.848 452.121Z" fill="#222B54"/>
<path d="M391.776 326.647H332.731C330.136 326.647 328.034 324.546 328.034 321.952V280.891L318.121 245.087C316.509 239.697 320.094 233.442 325.721 233.442H387.367C392.396 233.442 396.473 237.52 396.473 242.548V321.952C396.473 324.546 394.37 326.647 391.776 326.647Z" fill="#FDD247"/>
<path d="M401.186 341.883C402.007 343.041 403.61 343.314 404.766 342.492L413.078 336.597L410.106 332.407L401.794 338.301C400.637 339.123 400.365 340.725 401.186 341.883Z" fill="#FFA686"/>
<path d="M426.261 347.333C427.638 346.99 428.477 345.596 428.135 344.219L426.204 336.447L421.218 337.686L423.148 345.459C423.491 346.835 424.884 347.673 426.261 347.333Z" fill="#F5916E"/>
<path d="M430.835 344.431C432.212 344.089 433.051 342.695 432.709 341.318L431.191 335.208L426.204 336.447L427.722 342.557C428.064 343.934 429.458 344.773 430.835 344.431Z" fill="#F5916E"/>
<path d="M421.72 350.36C423.096 350.018 423.936 348.625 423.593 347.249L421.218 337.686L416.231 338.924L418.607 348.487C418.949 349.865 420.343 350.703 421.72 350.36Z" fill="#F5916E"/>
<path d="M435.408 341.53C436.785 341.188 437.624 339.795 437.282 338.417L436.176 333.969L431.191 335.208L432.295 339.656C432.638 341.033 434.032 341.872 435.408 341.53Z" fill="#F5916E"/>
<path d="M413.306 329.681L410.106 332.407L410.387 338.505L416.232 338.924L436.176 333.969L435.777 332.713C435.198 330.891 434.113 329.272 432.647 328.046C430.183 325.984 426.884 325.222 423.766 325.998L417.4 327.579C415.891 327.953 414.49 328.674 413.306 329.681Z" fill="#FFA686"/>
<path d="M337.765 257.963L356.38 301.553L353.57 326.725L328.034 320.969V255.554L337.765 257.963Z" fill="#FCC81E"/>
<path d="M374.188 233.468H344.708V190.681H370.63L374.188 233.468Z" fill="#F5916E"/>
<path d="M339.844 233.442L359.556 241.662L361.991 233.468L342.93 225.954L339.844 233.442Z" fill="#E3E3E3"/>
<path d="M376.51 233.442L363.586 241.662L361.991 233.466L374.452 225.954L376.51 233.442Z" fill="#E3E3E3"/>
<path d="M342.93 177.395V194.935C342.93 199.668 343.997 204.345 346.114 208.577C349.252 214.85 355.349 226.603 369.798 226.603H374.45C380.22 226.603 384.898 215.699 384.898 208.338V171.694C384.898 170.674 384.069 169.845 383.049 169.845H350.477C346.308 169.845 342.93 173.226 342.93 177.395Z" fill="#FFA686"/>
<path d="M374.475 189.854V193.515C374.475 196.516 376.917 198.957 379.916 198.957C382.917 198.957 385.359 196.516 385.359 193.515V189.854H374.475ZM379.916 201.498C375.515 201.498 371.934 197.918 371.934 193.515V188.583C371.934 187.882 372.503 187.313 373.204 187.313H386.63C387.331 187.313 387.9 187.882 387.9 188.583V193.515C387.9 197.918 384.319 201.498 379.916 201.498Z" fill="white"/>
<path d="M363.823 186.389H357.64C356.688 186.389 355.915 185.616 355.915 184.663C355.915 183.71 356.688 182.938 357.64 182.938H363.823C364.776 182.938 365.548 183.71 365.548 184.663C365.548 185.616 364.776 186.389 363.823 186.389Z" fill="#5E3927"/>
<path d="M383.009 186.389H376.825C375.873 186.389 375.1 185.616 375.1 184.663C375.1 183.71 375.873 182.938 376.825 182.938H383.009C383.962 182.938 384.733 183.71 384.733 184.663C384.733 185.616 383.962 186.389 383.009 186.389Z" fill="#5E3927"/>
<path d="M363.088 192.762C363.088 194.205 361.917 195.376 360.472 195.376C359.027 195.376 357.856 194.205 357.856 192.762C357.856 191.316 359.027 190.144 360.472 190.144C361.917 190.144 363.088 191.316 363.088 192.762Z" fill="#5B2D15"/>
<path d="M382.533 192.762C382.533 194.205 381.363 195.376 379.917 195.376C378.472 195.376 377.301 194.205 377.301 192.762C377.301 191.316 378.472 190.144 379.917 190.144C381.363 190.144 382.533 191.316 382.533 192.762Z" fill="#5B2D15"/>
<path d="M382.038 192.048C382.038 192.765 381.458 193.345 380.741 193.345C380.024 193.345 379.444 192.765 379.444 192.048C379.444 191.333 380.024 190.751 380.741 190.751C381.458 190.751 382.038 191.333 382.038 192.048Z" fill="#FFFEFB"/>
<path d="M362.48 192.048C362.48 192.765 361.9 193.345 361.183 193.345C360.466 193.345 359.886 192.765 359.886 192.048C359.886 191.333 360.466 190.751 361.183 190.751C361.9 190.751 362.48 191.333 362.48 192.048Z" fill="#FFFEFB"/>
<path d="M369.06 188.781L373.836 202.76H369.244L369.06 188.781Z" fill="#F5916E"/>
<path d="M354.758 189.854V193.515C354.758 196.516 357.198 198.957 360.199 198.957C363.2 198.957 365.641 196.516 365.641 193.515V189.854H354.758ZM360.199 201.498C355.798 201.498 352.217 197.918 352.217 193.515V188.583C352.217 187.882 352.785 187.313 353.487 187.313H366.912C367.613 187.313 368.182 187.882 368.182 188.583V193.515C368.182 197.918 364.6 201.498 360.199 201.498Z" fill="white"/>
<path d="M373.205 189.854H366.912C366.21 189.854 365.641 189.286 365.641 188.583C365.641 187.882 366.21 187.313 366.912 187.313H373.205C373.906 187.313 374.475 187.882 374.475 188.583C374.475 189.286 373.906 189.854 373.205 189.854Z" fill="white"/>
<path d="M354.065 189.854H341.969C341.268 189.854 340.699 189.286 340.699 188.583C340.699 187.882 341.268 187.313 341.969 187.313H354.065C354.767 187.313 355.335 187.882 355.335 188.583C355.335 189.286 354.767 189.854 354.065 189.854Z" fill="white"/>
<path d="M343.125 198.991C346.107 198.991 348.523 196.574 348.523 193.592L352.053 161.081H345.865C341.691 161.081 338.308 164.464 338.308 168.638V198.991H343.125Z" fill="#5F3926"/>
<path d="M344.709 215.7V176.874L338.863 165.805C332.656 181.983 332.92 203.266 344.709 215.7Z" fill="#5F3926"/>
<path d="M374.399 157.175H352.966C349.55 157.175 346.779 159.944 346.779 163.362V171.625C359.725 180.971 368.282 181.229 384.733 181.229C388.134 181.229 400.832 157.175 374.399 157.175Z" fill="#5F3926"/>
<path d="M375.1 221.607H367.378C365.975 221.607 364.837 220.469 364.837 219.066C364.837 217.662 365.975 216.525 367.378 216.525H375.1C376.504 216.525 377.641 217.662 377.641 219.066C377.641 220.469 376.504 221.607 375.1 221.607Z" fill="#FFB899"/>
<path d="M345.291 203.266H343.464C340.161 203.266 337.27 200.589 337.006 197.287L336.838 195.21C336.574 191.909 339.038 189.231 342.34 189.231C343.371 189.231 344.23 190.024 344.311 191.053L345.291 203.266Z" fill="#FFA686"/>
<path d="M342.98 198.925H342.175C340.719 198.925 339.445 197.744 339.329 196.29L339.256 195.375C339.139 193.92 340.224 192.74 341.679 192.74H342.485L342.98 198.925Z" fill="#F5916E"/>
<path d="M371.597 213.669C369.845 213.669 367.975 213.441 366 212.983C365.317 212.825 364.891 212.14 365.05 211.457C365.209 210.774 365.892 210.347 366.574 210.506C370.114 211.329 373.222 211.334 375.812 210.531C376.482 210.328 377.195 210.696 377.403 211.367C377.611 212.037 377.238 212.75 376.567 212.958C375.041 213.432 373.379 213.669 371.597 213.669Z" fill="#F57042"/>
<path d="M323.93 303.063C318.567 301.993 314.681 297.241 314.689 291.765L314.759 245.149C314.769 238.806 319.937 233.653 326.279 233.663C327.032 233.665 327.787 233.738 328.523 233.886C333.886 234.954 337.772 239.707 337.765 245.182L337.693 291.801C337.687 296.164 335.26 300.096 331.361 302.062C329.741 302.876 327.997 303.288 326.175 303.285C325.419 303.284 324.664 303.209 323.93 303.063Z" fill="#FDD247"/>
<path d="M317.392 298.503C313.27 293.914 313.912 286.683 318.985 282.924C323.406 279.647 329.659 280.508 333.335 284.605L357.034 311C357.703 311.744 357.642 312.89 356.896 313.561L343.857 325.266C343.112 325.936 341.965 325.873 341.295 325.129L317.392 298.503Z" fill="#FDD247"/>
<path d="M380.178 336.38C379.11 337.312 377.486 337.2 376.553 336.132L369.856 328.45L373.73 325.075L380.426 332.755C381.358 333.825 381.248 335.447 380.178 336.38Z" fill="#FFA686"/>
<path d="M370.007 346.516C368.81 347.278 367.222 346.925 366.461 345.728L362.163 338.97L366.498 336.213L370.796 342.97C371.557 344.166 371.204 345.755 370.007 346.516Z" fill="#F5916E"/>
<path d="M364.752 347.828C363.555 348.591 361.967 348.237 361.206 347.039L357.826 341.728L362.162 338.97L365.541 344.282C366.303 345.48 365.949 347.068 364.752 347.828Z" fill="#F5916E"/>
<path d="M375.331 345.316C374.134 346.076 372.546 345.724 371.785 344.528L366.497 336.213L370.832 333.456L376.12 341.769C376.881 342.966 376.528 344.554 375.331 345.316Z" fill="#F5916E"/>
<path d="M359.498 349.142C358.3 349.903 356.713 349.55 355.95 348.352L353.491 344.484L357.826 341.728L360.287 345.595C361.048 346.793 360.695 348.38 359.498 349.142Z" fill="#F5916E"/>
<path d="M358.727 318.21L348.352 327.526L347.796 331.852C347.541 333.829 347.989 335.833 349.058 337.516L353.491 344.484L370.833 333.456L358.727 318.21Z" fill="#FFA686"/>
<path d="M373.731 325.075L358.727 318.21L369.084 332.973L373.731 325.075Z" fill="#FFA686"/>
<path d="M347.206 328.552L344.077 325.068L356.673 313.759L359.802 317.243L347.206 328.552Z" fill="#E3E3E3"/>
<path d="M277.585 299.907H233.089L222.943 323.305C220.699 328.479 219.541 334.06 219.541 339.701V349.946C219.541 356.278 224.672 361.41 231.004 361.41H279.67C286.001 361.41 291.134 356.278 291.134 349.946V339.701C291.134 334.06 289.975 328.479 287.732 323.305L277.585 299.907Z" fill="#222B54"/>
<path d="M297.532 364.722H231.139C224.818 364.722 219.694 359.598 219.694 353.276C219.694 343.597 227.541 335.749 237.221 335.749H291.45C301.13 335.749 308.977 343.597 308.977 353.276C308.977 359.598 303.853 364.722 297.532 364.722Z" fill="#33407D"/>
<path d="M291.788 354.125L295.703 436.225C295.854 439.386 298.46 441.87 301.623 441.87C304.787 441.87 307.391 439.386 307.543 436.225L311.458 354.125C311.757 348.489 307.267 343.755 301.623 343.755C295.978 343.755 291.488 348.489 291.788 354.125Z" fill="#FFA686"/>
<path d="M316.798 441.123L308.283 432.977H294.962L294.417 434.655C293.03 438.932 292.848 443.509 293.893 447.882L294.962 452.35H300.118V444.029L308.438 452.35H330.458V449.802C330.458 448.753 329.774 447.825 328.77 447.518L326.511 446.823C322.873 445.705 319.548 443.753 316.798 441.123Z" fill="#222B54"/>
<path d="M261.23 354.125L265.146 436.225C265.297 439.386 267.902 441.87 271.067 441.87C274.229 441.87 276.835 439.386 276.986 436.225L280.9 354.125C281.2 348.489 276.71 343.755 271.067 343.755C265.422 343.755 260.932 348.489 261.23 354.125Z" fill="#FFA686"/>
<path d="M284.754 446.872L283.45 446.199C282.515 445.716 281.797 444.899 281.443 443.908L277.513 432.977H264.49L264.005 435.223C263.154 439.154 263.198 443.226 264.133 447.137L265.381 452.35H269.646V446.919L272.098 452.35H287.006V450.571C287.006 449.015 286.137 447.588 284.754 446.872Z" fill="#222B54"/>
<path d="M270.689 165.063C266.863 163.114 262.54 162.006 257.961 162.006H254.495C238.976 162.006 226.349 174.633 226.349 190.152V197.006C226.349 202.945 227.423 208.771 229.537 214.322L230.983 218.116H276.218C276.219 218.113 283.888 202.327 285.509 196.844C293.18 170.9 283.972 158.045 270.689 165.063Z" fill="#130F40"/>
<path d="M248.932 218.116C248.932 225.184 243.202 230.914 236.132 230.914C229.064 230.914 223.334 225.184 223.334 218.116C223.334 211.047 229.064 205.315 236.132 205.315C243.202 205.315 248.932 211.047 248.932 218.116Z" fill="#130F40"/>
<path d="M286.055 285.572L278.488 242.657C277.815 238.841 274.176 236.292 270.358 236.965C266.543 237.639 263.994 241.278 264.666 245.094L272.233 288.008C272.907 291.825 276.547 294.374 280.362 293.702C284.18 293.027 286.729 289.388 286.055 285.572Z" fill="#F5916E"/>
<path d="M279.136 295.587C274.865 295.587 271.226 292.53 270.483 288.317L262.914 245.404C262.073 240.626 265.275 236.056 270.051 235.215C270.558 235.123 271.074 235.079 271.586 235.079C275.858 235.079 279.498 238.135 280.24 242.35L287.808 285.263C288.215 287.576 287.697 289.91 286.35 291.835C285.002 293.761 282.986 295.044 280.672 295.454C280.165 295.542 279.648 295.587 279.138 295.587H279.136Z" fill="#D64DC4"/>
<path d="M309.569 292.136L281.982 282.573C278.266 281.477 274.363 283.6 273.267 287.316C272.169 291.033 274.293 294.935 278.009 296.034L303.539 301.812L309.569 292.136Z" fill="#F5916E"/>
<path d="M329.192 312.429C328.552 312.241 328.011 311.755 327.777 311.077L325.326 303.951L320.53 300.28C319.593 299.565 319.416 298.224 320.132 297.288C320.849 296.353 322.188 296.176 323.124 296.892L328.431 300.952C328.765 301.206 329.016 301.554 329.153 301.952L331.813 309.687C332.197 310.803 331.605 312.017 330.489 312.401C330.054 312.551 329.603 312.551 329.192 312.429Z" fill="#F5916E"/>
<path d="M325.116 310.495C324.476 310.306 323.934 309.819 323.7 309.141L321.249 302.016L317.389 299.062C316.453 298.345 316.275 297.005 316.991 296.07C317.708 295.133 319.047 294.957 319.984 295.672L324.355 299.016C324.69 299.273 324.94 299.62 325.076 300.017L327.737 307.752C328.12 308.866 327.528 310.081 326.414 310.465C325.978 310.615 325.527 310.616 325.116 310.495Z" fill="#F5916E"/>
<path d="M321.751 308.996C321.111 308.807 320.57 308.323 320.336 307.642L317.885 300.517L314.805 298.161C313.87 297.445 313.691 296.104 314.408 295.168C315.124 294.233 316.465 294.056 317.4 294.772L320.99 297.518C321.324 297.774 321.575 298.122 321.711 298.52L324.372 306.254C324.756 307.369 324.164 308.583 323.048 308.966C322.613 309.117 322.162 309.118 321.751 308.996Z" fill="#F5916E"/>
<path d="M335.024 307.62L331.177 300.551C330.976 300.183 330.671 299.881 330.3 299.686L323.097 295.879L308.627 291.901C305.097 290.932 301.441 292.966 300.405 296.476C299.615 299.153 300.563 302.039 302.785 303.726L309.191 308.591C309.905 309.56 310.886 310.3 312.014 310.719L319.179 313.382L319.321 313.429C320.386 313.744 321.53 313.184 321.924 312.125C322.334 311.021 321.771 309.791 320.666 309.382L316.04 306.608C315.157 306.078 314.978 304.876 315.667 304.112L317.632 301.933C318.772 300.67 320.581 300.255 322.158 300.895L327.736 303.159L331.338 309.777C331.62 310.296 332.085 310.65 332.609 310.805C333.182 310.973 333.827 310.904 334.379 310.546C335.333 309.926 335.568 308.619 335.024 307.62Z" fill="#FFA686"/>
<path d="M231.627 234.521H268.519C274.205 234.521 279.185 238.336 280.665 243.826L285.544 261.918C286.663 266.068 285.678 270.502 282.907 273.787L277.295 280.268L277.233 299.907H232.738L231.65 274.701L220.305 253.358C215.768 244.818 221.957 234.521 231.627 234.521Z" fill="#F255DC"/>
<path d="M234.211 293.073C232.561 294.743 230.359 295.673 228.008 295.689C223.159 295.72 219.187 291.799 219.155 286.95L218.871 243.374C218.856 241.025 219.756 238.81 221.407 237.138C223.057 235.466 225.26 234.536 227.609 234.521C232.459 234.489 236.431 238.41 236.464 243.259L236.747 286.834C236.762 289.185 235.861 291.399 234.211 293.073Z" fill="#F268DF"/>
<path d="M272.26 303.964L227.879 298.126C224.035 297.621 221.331 294.096 221.836 290.253C222.342 286.41 225.866 283.705 229.708 284.211L274.09 290.049L272.26 303.964Z" fill="#F5916E"/>
<path d="M264.721 234.521H245.025V191.734H261.163L264.721 234.521Z" fill="#F5916E"/>
<path d="M238.8 190.152V197.007C238.8 201.842 239.683 206.636 241.405 211.155L243.062 215.501C245.85 222.821 252.87 227.656 260.703 227.656C269.765 227.656 277.55 221.216 279.247 212.312C280.26 206.998 280.769 201.598 280.769 196.186V190.152C280.769 179.52 272.15 170.9 261.517 170.9H258.052C247.419 170.9 238.8 179.52 238.8 190.152Z" fill="#FFA686"/>
<path d="M261.454 209.901H265.733C266.133 209.901 266.511 209.72 266.765 209.413C267.019 209.104 267.121 208.697 267.043 208.306L265.868 202.397C265.723 201.673 265.017 201.208 264.3 201.348C263.577 201.492 263.107 202.192 263.251 202.917L264.11 207.231H261.454C260.717 207.231 260.12 207.83 260.12 208.565C260.12 209.302 260.717 209.901 261.454 209.901Z" fill="#F5916E"/>
<path d="M239.69 205.314H236.132V188.373H246.498V198.507C246.498 202.267 243.45 205.314 239.69 205.314Z" fill="#130F40"/>
<path d="M257.013 193.667H250.831C249.878 193.667 249.104 192.896 249.104 191.943C249.104 190.99 249.878 190.218 250.831 190.218H257.013C257.966 190.218 258.738 190.99 258.738 191.943C258.738 192.896 257.966 193.667 257.013 193.667Z" fill="#5E3927"/>
<path d="M276.199 193.667H270.015C269.063 193.667 268.29 192.896 268.29 191.943C268.29 190.99 269.063 190.218 270.015 190.218H276.199C277.152 190.218 277.924 190.99 277.924 191.943C277.924 192.896 277.152 193.667 276.199 193.667Z" fill="#5E3927"/>
<path d="M256.279 200.04C256.279 201.485 255.107 202.656 253.663 202.656C252.218 202.656 251.047 201.485 251.047 200.04C251.047 198.594 252.218 197.423 253.663 197.423C255.107 197.423 256.279 198.594 256.279 200.04Z" fill="#5B2D15"/>
<path d="M275.724 200.04C275.724 201.485 274.553 202.656 273.108 202.656C271.663 202.656 270.491 201.485 270.491 200.04C270.491 198.594 271.663 197.423 273.108 197.423C274.553 197.423 275.724 198.594 275.724 200.04Z" fill="#5B2D15"/>
<path d="M264.219 219.422H260.647C257.621 219.422 255.167 216.967 255.167 213.94H269.7C269.7 216.967 267.247 219.422 264.219 219.422Z" fill="#D53031"/>
<path d="M275.229 199.328C275.229 200.044 274.648 200.625 273.931 200.625C273.215 200.625 272.634 200.044 272.634 199.328C272.634 198.611 273.215 198.03 273.931 198.03C274.648 198.03 275.229 198.611 275.229 199.328Z" fill="#FFFEFB"/>
<path d="M255.67 199.328C255.67 200.044 255.089 200.625 254.373 200.625C253.656 200.625 253.076 200.044 253.076 199.328C253.076 198.611 253.656 198.03 254.373 198.03C255.089 198.03 255.67 198.611 255.67 199.328Z" fill="#FFFEFB"/>
<path d="M267.738 213.94H255.167C255.167 214.941 255.438 215.874 255.906 216.682H266.849L267.738 213.94Z" fill="#FFFEFB"/>
<path d="M242.788 211.436H240.961C237.659 211.436 234.768 208.758 234.503 205.457L234.337 203.38C234.071 200.078 236.535 197.401 239.837 197.401C240.87 197.401 241.728 198.193 241.81 199.221L242.788 211.436Z" fill="#FFA686"/>
<path d="M240.477 207.094H239.672C238.217 207.094 236.943 205.914 236.826 204.459L236.753 203.544C236.636 202.088 237.721 200.909 239.176 200.909H239.982L240.477 207.094Z" fill="#F5916E"/>
<path d="M246.499 193.667C247.575 178.922 270.618 188.373 270.618 165.02C262.155 157.549 236.745 156.791 234.317 170.549V193.667H246.499Z" fill="#130F40"/>
<path d="M245.025 234.521L259.813 250.493L264.721 234.521H245.025Z" fill="#F5916E"/>
<path d="M274.073 290.326H259.747C255.565 290.326 252.176 293.716 252.176 297.897V299.415C252.176 303.31 254.118 306.949 259.011 306.949C265.337 306.949 270.824 303.304 276.952 298.582L276.978 293.244C276.985 291.634 275.683 290.326 274.073 290.326Z" fill="#FFA686"/>
<path d="M266.705 310.235C266.974 310.235 267.248 310.194 267.518 310.108C268.922 309.658 269.695 308.158 269.247 306.754L265.951 296.441C265.502 295.038 264.001 294.262 262.598 294.712C261.194 295.16 260.419 296.662 260.868 298.065L264.165 308.379C264.527 309.511 265.575 310.235 266.705 310.235Z" fill="#FFA686"/>
<path d="M270.083 310.235C270.353 310.235 270.626 310.194 270.896 310.108C272.299 309.658 273.074 308.158 272.626 306.754L269.329 296.441C268.88 295.038 267.377 294.262 265.976 294.712C264.572 295.16 263.797 296.662 264.246 298.065L267.542 308.379C267.904 309.511 268.954 310.235 270.083 310.235Z" fill="#FFA686"/>
<path d="M273.46 310.235C273.729 310.235 274.004 310.194 274.273 310.108C275.677 309.658 276.451 308.158 276.002 306.754L272.706 296.441C272.258 295.038 270.755 294.262 269.352 294.712C267.95 295.16 267.175 296.662 267.624 298.065L270.92 308.379C271.282 309.511 272.332 310.235 273.46 310.235Z" fill="#FFA686"/>
<path d="M279.896 310.235C280.165 310.235 280.44 310.194 280.709 310.108C282.113 309.658 282.888 308.158 282.438 306.754L277.867 292.448C277.417 291.044 275.916 290.269 274.513 290.718C273.11 291.167 272.335 292.667 272.785 294.073L277.356 308.379C277.718 309.511 278.768 310.235 279.896 310.235Z" fill="#FFA686"/>
<path d="M663.258 445.493C663.258 449.28 660.188 452.35 656.402 452.35C652.616 452.35 649.546 449.28 649.546 445.493C649.546 441.708 652.616 438.638 656.402 438.638C660.188 438.638 663.258 441.708 663.258 445.493Z" fill="#0B8367"/>
<path d="M600.367 445.493C600.367 449.28 597.297 452.35 593.511 452.35C589.725 452.35 586.657 449.28 586.657 445.493C586.657 441.708 589.725 438.638 593.511 438.638C597.297 438.638 600.367 441.708 600.367 445.493Z" fill="#0B8367"/>
<path d="M630.962 441.764H618.953V377.721H630.962V441.764Z" fill="#0D9879"/>
<path d="M586.657 443.25C586.657 440.703 588.72 438.638 591.267 438.638H658.645C661.193 438.638 663.257 440.703 663.257 443.25C663.257 445.796 661.193 447.861 658.645 447.861H591.267C588.72 447.861 586.657 445.796 586.657 443.25Z" fill="#0D9879"/>
<path d="M630.961 384.611H618.952L612.381 377.721H637.532L630.961 384.611Z" fill="#0B8367"/>
<path d="M630.961 431.747H618.952L612.381 438.638H637.532L630.961 431.747Z" fill="#0B8367"/>
<path d="M670.618 367.153H612.062C604.9 367.153 599.097 361.349 599.097 354.187V240.436C599.097 233.276 604.9 227.471 612.062 227.471H670.618C677.778 227.471 683.583 233.276 683.583 240.436V354.187C683.583 361.349 677.778 367.153 670.618 367.153Z" fill="#0B8367"/>
<path d="M669.571 377.721H580.342C575.512 377.721 571.597 373.805 571.597 368.974C571.597 364.145 575.512 360.23 580.342 360.23H669.571C674.402 360.23 678.317 364.145 678.317 368.974C678.317 373.805 674.402 377.721 669.571 377.721Z" fill="#0B8367"/>
<path d="M640.729 371.373H583.884C580.807 371.373 578.312 368.878 578.312 365.801C578.312 362.724 580.807 360.23 583.884 360.23H640.729C643.807 360.23 646.301 362.724 646.301 365.801C646.301 368.878 643.807 371.373 640.729 371.373Z" fill="#0D9879"/>
<path d="M664.671 245.73H607.825C604.748 245.73 602.254 243.234 602.254 240.157C602.254 237.08 604.748 234.586 607.825 234.586H664.671C667.748 234.586 670.243 237.08 670.243 240.157C670.243 243.234 667.748 245.73 664.671 245.73Z" fill="#0D9879"/>
<path d="M664.671 267.508H607.825C604.748 267.508 602.254 265.013 602.254 261.936C602.254 258.859 604.748 256.365 607.825 256.365H664.671C667.748 256.365 670.243 258.859 670.243 261.936C670.243 265.013 667.748 267.508 664.671 267.508Z" fill="#0D9879"/>
<path d="M664.671 289.287H607.825C604.748 289.287 602.254 286.791 602.254 283.714C602.254 280.638 604.748 278.144 607.825 278.144H664.671C667.748 278.144 670.243 280.638 670.243 283.714C670.243 286.791 667.748 289.287 664.671 289.287Z" fill="#0D9879"/>
<path d="M664.671 311.066H607.825C604.748 311.066 602.254 308.57 602.254 305.493C602.254 302.416 604.748 299.922 607.825 299.922H664.671C667.748 299.922 670.243 302.416 670.243 305.493C670.243 308.57 667.748 311.066 664.671 311.066Z" fill="#0D9879"/>
<path d="M664.671 332.844H607.825C604.748 332.844 602.254 330.35 602.254 327.274C602.254 324.197 604.748 321.701 607.825 321.701H664.671C667.748 321.701 670.243 324.197 670.243 327.274C670.243 330.35 667.748 332.844 664.671 332.844Z" fill="#0D9879"/>
<path d="M664.671 354.623H607.825C604.748 354.623 602.254 352.129 602.254 349.052C602.254 345.974 604.748 343.479 607.825 343.479H664.671C667.748 343.479 670.243 345.974 670.243 349.052C670.243 352.129 667.748 354.623 664.671 354.623Z" fill="#0D9879"/>
<path d="M545.528 393.557H607.62V331.613H543.569C535.4 331.613 528.776 338.236 528.776 346.404V376.805C528.776 386.056 536.276 393.557 545.528 393.557Z" fill="#D8D8E3"/>
<path d="M507.415 303.558C508.249 303.56 509.071 303.168 509.591 302.437L515.052 294.761L523.81 291.402C525.186 290.875 525.874 289.332 525.347 287.955C524.819 286.58 523.276 285.894 521.9 286.419L512.39 290.067C511.899 290.255 511.475 290.584 511.171 291.012L505.244 299.343C504.389 300.545 504.67 302.209 505.871 303.064C506.34 303.398 506.881 303.558 507.415 303.558Z" fill="#F5916E"/>
<path d="M512.986 302.68C513.82 302.681 514.642 302.291 515.162 301.558L520.622 293.883L529.382 290.526C530.757 289.998 531.445 288.455 530.918 287.08C530.39 285.704 528.846 285.017 527.471 285.543L517.96 289.19C517.47 289.377 517.047 289.706 516.742 290.134L510.815 298.466C509.96 299.667 510.241 301.332 511.441 302.186C511.911 302.52 512.451 302.68 512.986 302.68Z" fill="#F5916E"/>
<path d="M517.552 302.076C518.385 302.076 519.207 301.686 519.727 300.954L525.188 293.279L533.947 289.919C535.323 289.392 536.01 287.848 535.483 286.472C534.954 285.097 533.409 284.412 532.036 284.936L522.526 288.583C522.035 288.772 521.611 289.101 521.307 289.529L515.379 297.86C514.525 299.062 514.806 300.726 516.007 301.581C516.476 301.916 517.017 302.076 517.552 302.076Z" fill="#F5916E"/>
<path d="M501.647 293.117L508.775 285.988C509.146 285.617 509.619 285.363 510.134 285.26L520.119 283.245H541.465V297.281L532.29 303.407C531.091 304.317 529.653 304.857 528.152 304.96L518.619 305.616L518.434 305.624C517.044 305.624 515.871 304.547 515.775 303.139C515.673 301.668 516.783 300.395 518.253 300.293L524.781 298.604C526.025 298.283 526.667 296.904 526.11 295.746L524.526 292.44C523.606 290.52 521.583 289.382 519.467 289.591L511.978 290.331L505.318 296.992C504.797 297.513 504.114 297.774 503.432 297.774C502.686 297.774 501.94 297.464 501.406 296.841C500.48 295.765 500.643 294.122 501.647 293.117Z" fill="#FFA686"/>
<path d="M595.403 251.277C596.28 244.8 591.583 238.852 584.995 238.274C578.825 237.732 573.394 242.373 572.563 248.509L567.405 286.61C566.552 292.905 570.965 298.695 577.26 299.547C583.555 300.4 589.349 295.989 590.202 289.692L595.403 251.277Z" fill="#D8D8E3"/>
<path d="M542.746 298.784L578.617 298.869C582.492 298.876 585.639 295.741 585.646 291.864C585.654 287.99 582.518 284.842 578.643 284.835L542.773 284.749L542.746 298.784Z" fill="#F5916E"/>
<path d="M578.517 303.354C585.054 303.366 590.328 297.924 590.029 291.318C589.75 285.131 584.43 280.361 578.236 280.349L548.484 280.275C547.157 280.272 546.078 281.347 546.076 282.675L546.04 300.87C546.038 302.198 547.112 303.277 548.441 303.28L578.517 303.354Z" fill="#D8D8E3"/>
<path d="M541.432 282.604L546.075 282.614L546.04 300.932L541.397 300.923L541.432 282.604Z" fill="#E3E3E3"/>
<path d="M610.062 336.485V364.722H546.654C538.857 364.722 532.535 358.401 532.535 350.604C532.535 342.806 538.857 336.485 546.654 336.485H610.062Z" fill="#0D0E2C"/>
<path d="M593.35 364.722H629.504C635.825 364.722 640.95 359.598 640.95 353.276V326.856H581.904V353.276C581.904 359.598 587.03 364.722 593.35 364.722Z" fill="#0D0E2C"/>
<path d="M581.904 332.634H640.95V326.824H581.904V332.634Z" fill="#484E57"/>
<path d="M657.928 238.426C638.497 234.587 615.72 227.378 582.776 237.58C576.258 239.599 572.142 246.019 573.03 252.785L577.718 288.523V331.788C577.718 334.381 579.822 336.485 582.415 336.485H646.158V288.523L664.908 253.166C668.097 247.154 664.605 239.745 657.928 238.426Z" fill="#E3E3E3"/>
<path d="M637.575 234.313L608.132 291.514L593.474 234.788C610.733 231.105 625.034 232.166 637.575 234.313Z" fill="#008DE5"/>
<path d="M605.647 241.871L611.69 233.675L618.572 241.871L614.854 249.791L617.326 273.652L608.132 291.514L603.358 273.042L608.526 249.791L605.647 241.871Z" fill="#45A8E5"/>
<path d="M667.077 251.277C667.955 244.8 663.257 238.852 656.671 238.274C650.501 237.732 645.07 242.373 644.237 248.509L639.079 286.61C638.226 292.905 642.64 298.695 648.934 299.547C655.23 300.4 661.023 295.989 661.876 289.692L667.077 251.277Z" fill="white"/>
<path d="M594.896 282.482H609.223C613.403 282.482 616.792 285.871 616.792 290.053V291.571C616.792 295.466 614.851 299.105 609.957 299.105C603.631 299.105 598.145 295.461 592.016 290.737L591.991 285.401C591.983 283.791 593.287 282.482 594.896 282.482Z" fill="#FFA686"/>
<path d="M602.264 303.534C601.881 303.534 601.489 303.476 601.104 303.351C599.485 302.834 598.452 301.336 598.452 299.723C598.452 299.338 598.51 298.948 598.633 298.561L601.929 288.25C602.571 286.245 604.713 285.132 606.72 285.779C608.34 286.297 609.373 287.795 609.373 289.409C609.373 289.794 609.313 290.184 609.19 290.57L605.894 300.881C605.377 302.501 603.878 303.534 602.264 303.534Z" fill="#FFA686"/>
<path d="M598.887 303.534C598.502 303.534 598.111 303.476 597.726 303.351C596.106 302.834 595.073 301.336 595.073 299.721C595.073 299.338 595.132 298.948 595.256 298.561L598.551 288.25C599.192 286.245 601.333 285.132 603.343 285.779C604.961 286.297 605.994 287.795 605.994 289.41C605.994 289.794 605.936 290.184 605.812 290.57L602.517 300.881C601.998 302.501 600.5 303.534 598.887 303.534Z" fill="#FFA686"/>
<path d="M595.51 303.534C595.126 303.534 594.736 303.476 594.35 303.351C592.73 302.834 591.697 301.336 591.697 299.723C591.697 299.338 591.755 298.948 591.878 298.561L595.174 288.25C595.815 286.245 597.955 285.132 599.965 285.779C601.585 286.297 602.618 287.795 602.618 289.409C602.618 289.794 602.558 290.184 602.435 290.57L599.139 300.881C598.622 302.501 597.123 303.534 595.51 303.534Z" fill="#FFA686"/>
<path d="M589.073 303.534C588.689 303.534 588.298 303.476 587.912 303.351C586.292 302.834 585.26 301.336 585.26 299.723C585.26 299.338 585.319 298.948 585.442 298.561L590.013 284.255C590.654 282.25 592.796 281.136 594.804 281.785C596.424 282.303 597.457 283.802 597.457 285.414C597.457 285.799 597.397 286.19 597.274 286.575L592.703 300.881C592.186 302.501 590.687 303.534 589.073 303.534Z" fill="#FFA686"/>
<path d="M614.419 298.784L650.289 298.869C654.164 298.876 657.313 295.741 657.319 291.864C657.327 287.99 654.191 284.842 650.316 284.835L614.446 284.749L614.419 298.784Z" fill="#F5916E"/>
<path d="M650.192 303.354C656.729 303.366 662.003 297.924 661.704 291.318C661.425 285.131 656.104 280.361 649.911 280.349L620.158 280.275C618.831 280.272 617.752 281.347 617.749 282.675L617.714 300.87C617.711 302.198 618.787 303.277 620.115 303.28L650.192 303.354Z" fill="white"/>
<path d="M613.106 282.604L617.749 282.614L617.714 300.932L613.071 300.923L613.106 282.604Z" fill="#E3E3E3"/>
<path d="M628.972 212.818C635.351 212.818 640.523 207.646 640.523 201.268V179.176H628.972V212.818Z" fill="#5F3926"/>
<path d="M599.493 233.675H628.972V190.888H603.051L599.493 233.675Z" fill="#F5916E"/>
<path d="M633.835 233.65L618.572 241.871L611.69 233.675L630.751 226.161L633.835 233.65Z" fill="#1796E5"/>
<path d="M597.171 233.65L605.647 241.871L611.691 233.675L599.23 226.161L597.171 233.65Z" fill="#1796E5"/>
<path d="M630.75 177.602V195.145C630.75 199.875 629.683 204.553 627.566 208.785C624.427 215.058 618.331 226.81 603.883 226.81H599.23C593.459 226.81 588.781 215.906 588.781 208.546V171.903C588.781 170.882 589.61 170.054 590.631 170.054H623.202C627.371 170.054 630.75 173.434 630.75 177.602Z" fill="#FFA686"/>
<path d="M588.781 206.407H617.547C620.542 206.407 623.08 204.208 623.511 201.243L625.157 189.863H630.75V195.145C630.75 199.932 629.637 204.65 627.493 208.93C624.333 215.239 623.579 226.81 609.243 226.81H599.23C593.459 226.81 588.781 215.906 588.781 208.546V206.407Z" fill="#B07558"/>
<path d="M609.857 186.597H616.04C616.993 186.597 617.766 185.825 617.766 184.872C617.766 183.919 616.993 183.146 616.04 183.146H609.857C608.904 183.146 608.131 183.919 608.131 184.872C608.131 185.825 608.904 186.597 609.857 186.597Z" fill="#5E3927"/>
<path d="M590.672 186.597H596.854C597.807 186.597 598.58 185.825 598.58 184.872C598.58 183.919 597.807 183.146 596.854 183.146H590.672C589.719 183.146 588.947 183.919 588.947 184.872C588.947 185.825 589.719 186.597 590.672 186.597Z" fill="#5E3927"/>
<path d="M610.592 192.969C610.592 194.414 611.763 195.585 613.209 195.585C614.654 195.585 615.825 194.414 615.825 192.969C615.825 191.524 614.654 190.353 613.209 190.353C611.763 190.353 610.592 191.524 610.592 192.969Z" fill="#5B2D15"/>
<path d="M591.147 192.969C591.147 194.414 592.319 195.585 593.763 195.585C595.209 195.585 596.379 194.414 596.379 192.969C596.379 191.524 595.209 190.353 593.763 190.353C592.319 190.353 591.147 191.524 591.147 192.969Z" fill="#5B2D15"/>
<path d="M602.651 215.906H606.223C609.25 215.906 611.704 213.453 611.704 210.427H597.171C597.171 213.453 599.625 215.906 602.651 215.906Z" fill="#992223"/>
<path d="M591.642 192.256C591.642 192.974 592.222 193.554 592.939 193.554C593.655 193.554 594.237 192.974 594.237 192.256C594.237 191.539 593.655 190.959 592.939 190.959C592.222 190.959 591.642 191.539 591.642 192.256Z" fill="#FFFEFB"/>
<path d="M611.2 192.256C611.2 192.974 611.782 193.554 612.497 193.554C613.214 193.554 613.796 192.974 613.796 192.256C613.796 191.539 613.214 190.959 612.497 190.959C611.782 190.959 611.2 191.539 611.2 192.256Z" fill="#FFFEFB"/>
<path d="M602.843 188.099L599.846 202.969H604.437L602.843 188.099Z" fill="#F5916E"/>
<path d="M613.806 202.926H611.2C610.147 202.926 609.294 202.074 609.294 201.02C609.294 199.968 610.147 199.116 611.2 199.116H618.332C619.384 199.116 620.237 199.968 620.237 201.02C620.237 202.053 619.417 202.894 618.391 202.926C618.112 202.765 617.788 202.672 617.442 202.672H614.758C614.411 202.672 614.087 202.765 613.806 202.926Z" fill="#FD9771"/>
<path d="M617.548 206.407H614.22C613.43 206.175 612.852 205.444 612.852 204.578C612.852 203.873 613.236 203.256 613.806 202.926H618.332C618.352 202.926 618.372 202.926 618.392 202.926C618.963 203.255 619.347 203.871 619.347 204.578C619.347 205.42 618.802 206.134 618.045 206.387C617.879 206.4 617.714 206.407 617.548 206.407Z" fill="#FD9771"/>
<path d="M617.442 206.483H614.757C614.57 206.483 614.39 206.456 614.22 206.407H617.547C617.714 206.407 617.879 206.399 618.044 206.387C617.855 206.449 617.651 206.483 617.442 206.483Z" fill="#AF6A4A"/>
<path d="M618.331 202.926H613.806C614.086 202.765 614.41 202.672 614.757 202.672H617.442C617.787 202.672 618.111 202.765 618.391 202.926C618.372 202.926 618.352 202.926 618.331 202.926Z" fill="#FB895F"/>
<path d="M595.206 202.926H594.38C594.099 202.765 593.774 202.672 593.429 202.672H592.523C592.177 202.672 591.853 202.765 591.574 202.926C590.548 202.894 589.728 202.053 589.728 201.02C589.728 199.968 590.58 199.116 591.633 199.116H595.206C596.259 199.116 597.113 199.968 597.113 201.02C597.113 202.074 596.259 202.926 595.206 202.926Z" fill="#FD9771"/>
<path d="M593.966 206.407H591.986C591.195 206.175 590.617 205.444 590.617 204.578C590.617 203.871 591.002 203.255 591.574 202.926C591.593 202.926 591.613 202.926 591.634 202.926H594.38C594.951 203.256 595.335 203.873 595.335 204.578C595.335 205.444 594.757 206.175 593.966 206.407Z" fill="#FD9771"/>
<path d="M593.43 206.483H592.524C592.337 206.483 592.157 206.456 591.986 206.407H593.967C593.797 206.456 593.615 206.483 593.43 206.483Z" fill="#AF6A4A"/>
<path d="M594.38 202.926H591.633C591.613 202.926 591.593 202.926 591.574 202.926C591.853 202.765 592.177 202.672 592.523 202.672H593.429C593.774 202.672 594.099 202.765 594.38 202.926Z" fill="#FB895F"/>
<path d="M599.131 210.427H611.703C611.703 211.425 611.432 212.359 610.963 213.166H600.021L599.131 210.427Z" fill="#FFFEFB"/>
<path d="M630.555 199.199C627.574 199.199 625.157 196.783 625.157 193.801V184.872C622.897 182.611 621.628 179.546 621.628 176.35V161.288H627.814C637.831 161.288 646.361 174.455 635.372 199.199H630.555Z" fill="#5F3926"/>
<path d="M626.901 163.569V171.832C612.102 175.301 582.221 177.081 582.221 165.646C582.221 150.394 621.899 153.236 626.901 163.569Z" fill="#5F3926"/>
<path d="M629.432 203.475H631.259C634.561 203.475 637.452 200.798 637.717 197.494L637.883 195.418C638.147 192.116 635.684 189.439 632.382 189.439C631.35 189.439 630.493 190.231 630.41 191.26L629.432 203.475Z" fill="#FFA686"/>
<path d="M631.741 199.132H632.547C634.003 199.132 635.277 197.952 635.393 196.499L635.466 195.583C635.583 194.128 634.497 192.949 633.042 192.949H632.238L631.741 199.132Z" fill="#F5916E"/>
<path d="M593.578 435.452H612.236V423.758H593.578V435.452Z" fill="#D8D8E3"/>
<path d="M589.418 435.383L591.585 433.218C592.05 432.755 592.682 432.494 593.339 432.494H599.506C600.877 432.494 601.988 433.605 601.988 434.975H611.67C613.041 434.975 614.152 436.086 614.152 437.457V447.876H574.867V444.708C574.867 442.573 576.268 440.69 578.314 440.079L589.418 435.383Z" fill="#E3E3E3"/>
<path d="M574.867 452.35H614.152V447.876H574.867V452.35Z" fill="#222B54"/>
<path d="M616.4 349.672L615.106 428.394C615.079 429.409 614.246 430.219 613.23 430.219H592.617C591.58 430.219 590.739 429.379 590.739 428.342V349.317C590.739 342.23 596.485 336.485 603.573 336.485C610.799 336.485 616.599 342.449 616.4 349.672Z" fill="#312E42"/>
<path d="M535.373 435.452H554.031V423.758H535.373V435.452Z" fill="#D8D8E3"/>
<path d="M531.214 435.383L533.381 433.218C533.846 432.755 534.478 432.494 535.135 432.494H541.302C542.673 432.494 543.784 433.605 543.784 434.975H553.466C554.837 434.975 555.948 436.086 555.948 437.457V447.876H516.663V444.708C516.663 442.573 518.064 440.69 520.109 440.079L531.214 435.383Z" fill="#E3E3E3"/>
<path d="M516.663 452.35H555.948V447.876H516.663V452.35Z" fill="#222B54"/>
<path d="M558.196 349.672L556.902 428.394C556.874 429.409 556.042 430.219 555.026 430.219H534.413C533.376 430.219 532.535 429.379 532.535 428.342V349.317C532.535 342.23 538.28 336.485 545.369 336.485C552.595 336.485 558.395 342.449 558.196 349.672Z" fill="#23212F"/>
<path d="M629.404 393.557H605.557V336.485H646.156V376.805C646.156 386.056 638.656 393.557 629.404 393.557Z" fill="white"/>
<path d="M583.776 301.5H497.259L496.371 303.157H584.665L583.776 301.5Z" fill="#8FB1E3"/>
<path d="M546.02 303.157V308.615H590.814C592.322 308.615 593.544 307.393 593.544 305.887C593.544 304.379 592.322 303.157 590.814 303.157H546.02Z" fill="#8FB1E3"/>
<path d="M491.654 308.615H556.409C559.255 308.615 561.562 306.309 561.562 303.463V253.965C561.562 251.12 559.255 248.814 556.409 248.814H491.654C488.808 248.814 486.502 251.12 486.502 253.965V303.463C486.502 306.309 488.808 308.615 491.654 308.615Z" fill="#8FB1E3"/>
<path d="M488.176 308.615H552.93C555.776 308.615 558.083 306.309 558.083 303.463V253.965C558.083 251.12 555.776 248.814 552.93 248.814H488.176C485.331 248.814 483.024 251.12 483.024 253.965V303.463C483.024 306.309 485.331 308.615 488.176 308.615Z" fill="#BFD5F7"/>
<path d="M209.498 452.35H213.055V312.212H209.498V452.35ZM604.754 312.212V452.35H608.312V312.212H604.754Z" fill="#0D9879"/>
<path d="M202.624 315.807H615.186C617.173 315.807 618.783 314.198 618.783 312.212C618.783 310.226 617.173 308.615 615.186 308.615H202.624C200.638 308.615 199.028 310.226 199.028 312.212C199.028 314.198 200.638 315.807 202.624 315.807Z" fill="white"/>
</svg>
