<svg width="40" height="48" viewBox="0 0 40 48" fill="none" xmlns="http://www.w3.org/2000/svg">
<path d="M29.1966 45.16V38.8386C32.3475 37.9418 35.0667 36.0115 36.9637 33.4382V45.16H29.1966ZM25.205 36.5541C18.9446 36.5541 13.8108 31.6352 13.4657 25.4588H13.4472V14.286C13.8265 14.249 14.2103 14.2306 14.5988 14.2306C20.8592 14.2306 25.993 19.1485 26.3381 25.325H26.3565V36.4978C25.9773 36.5347 25.5935 36.5541 25.205 36.5541ZM2.84004 45.16V25.325H2.85849C3.12607 20.5307 6.28072 16.4949 10.6072 14.9282V45.16H2.84004ZM10.6072 2.84096V11.9451C7.45623 12.842 4.73708 14.7731 2.84004 17.3465V2.84096H10.6072ZM36.9637 2.84096V25.4588H36.9444C36.6768 30.254 33.5231 34.2898 29.1966 35.8556V2.84096H36.9637ZM26.3565 0V17.3465C23.6964 13.737 19.4161 11.3896 14.5988 11.3896C14.2112 11.3896 13.8274 11.4053 13.4472 11.4349V0H0V48H13.4472V33.4382C16.1073 37.0477 20.3868 39.3941 25.205 39.3941C25.5926 39.3941 25.9764 39.3784 26.3565 39.3489V48H39.8038V0H26.3565Z" fill="#00785D"/>
<path d="M2.79492 25.2789L3.10633 22.8915L4.38656 19.9158L6.2204 17.3899L8.40024 15.6945L10.6147 14.8987V45.2089H2.79492V25.2789Z" fill="#00785D"/>
<path d="M36.9805 25.7286L36.5307 28.2891L35.3196 31.161L33.555 33.529L31.3751 35.4025L29.1607 36.2819V2.78834H36.9805V25.7286Z" fill="#00785D"/>
<path d="M26.3582 25.348C26.3582 14.9401 17.7542 13.6299 13.4521 14.2757V25.348C13.4521 36.2265 22.0562 37.3544 26.3582 36.5586V25.348Z" fill="#FECA37"/>
</svg>
