<svg width="176" height="63" viewBox="0 0 176 63" fill="none" xmlns="http://www.w3.org/2000/svg">
<path d="M38.3205 59.2725V50.9757C42.4562 49.7986 46.025 47.2651 48.5149 43.8876V59.2725H38.3205ZM33.0816 47.9772C24.8648 47.9772 18.1266 41.5212 17.6737 33.4146H17.6495V18.7503C18.1472 18.7019 18.651 18.6777 19.1609 18.6777C27.3777 18.6777 34.1158 25.1324 34.5687 33.239H34.593V47.9034C34.0952 47.9518 33.5915 47.9772 33.0816 47.9772ZM3.72755 59.2725V33.239H3.75177C4.10297 26.9465 8.24345 21.6495 13.9219 19.5932V59.2725H3.72755ZM13.9219 3.72876V15.678C9.7863 16.8551 6.21742 19.3897 3.72755 22.7673V3.72876H13.9219ZM48.5149 3.72876V33.4146H48.4895C48.1383 39.7083 43.999 45.0054 38.3205 47.0605V3.72876H48.5149ZM34.593 1.42278e-06V22.7673C31.1016 18.0298 25.4836 14.9489 19.1609 14.9489C18.6522 14.9489 18.1484 14.9695 17.6495 15.0082V1.42278e-06H0V63H17.6495V43.8876C21.1409 48.6251 26.7576 51.7048 33.0816 51.7048C33.5902 51.7048 34.094 51.6842 34.593 51.6454V63H52.2425V1.42278e-06H34.593Z" fill="white"/>
<path d="M3.66846 33.1785L4.07718 30.045L5.75748 26.1394L8.16439 22.8242L11.0254 20.599L13.9319 19.5544V59.3366H3.66846V33.1785Z" fill="white"/>
<path d="M48.5366 33.7688L47.9462 37.1294L46.3568 40.8987L44.0407 44.0067L41.1796 46.4657L38.2732 47.6199V3.65963H48.5366V33.7688Z" fill="white"/>
<path d="M34.595 33.2693C34.595 19.6089 23.3022 17.8893 17.6558 18.737V33.2693C17.6558 47.5473 28.9486 49.0278 34.595 47.9833V33.2693Z" fill="#FECA37"/>
<path d="M72.992 27V10.2H76.208L86.12 22.296H84.56V10.2H88.4V27H85.208L75.272 14.904H76.832V27H72.992ZM90.1668 27L97.6548 10.2H101.495L109.007 27H104.927L98.7828 12.168H100.319L94.1508 27H90.1668ZM93.9108 23.4L94.9428 20.448H103.583L104.639 23.4H93.9108ZM110.75 27V10.2H113.966L123.878 22.296H122.318V10.2H126.158V27H122.966L113.03 14.904H114.59V27H110.75ZM138.293 27.288C136.965 27.288 135.733 27.072 134.597 26.64C133.477 26.208 132.501 25.6 131.669 24.816C130.853 24.032 130.213 23.112 129.749 22.056C129.301 21 129.077 19.848 129.077 18.6C129.077 17.352 129.301 16.2 129.749 15.144C130.213 14.088 130.861 13.168 131.693 12.384C132.525 11.6 133.501 10.992 134.621 10.56C135.741 10.128 136.957 9.912 138.269 9.912C139.597 9.912 140.813 10.128 141.917 10.56C143.037 10.992 144.005 11.6 144.821 12.384C145.653 13.168 146.301 14.088 146.765 15.144C147.229 16.184 147.461 17.336 147.461 18.6C147.461 19.848 147.229 21.008 146.765 22.08C146.301 23.136 145.653 24.056 144.821 24.84C144.005 25.608 143.037 26.208 141.917 26.64C140.813 27.072 139.605 27.288 138.293 27.288ZM138.269 23.976C139.021 23.976 139.709 23.848 140.333 23.592C140.973 23.336 141.533 22.968 142.013 22.488C142.493 22.008 142.861 21.44 143.117 20.784C143.389 20.128 143.525 19.4 143.525 18.6C143.525 17.8 143.389 17.072 143.117 16.416C142.861 15.76 142.493 15.192 142.013 14.712C141.549 14.232 140.997 13.864 140.357 13.608C139.717 13.352 139.021 13.224 138.269 13.224C137.517 13.224 136.821 13.352 136.181 13.608C135.557 13.864 135.005 14.232 134.525 14.712C134.045 15.192 133.669 15.76 133.397 16.416C133.141 17.072 133.013 17.8 133.013 18.6C133.013 19.384 133.141 20.112 133.397 20.784C133.669 21.44 134.037 22.008 134.501 22.488C134.981 22.968 135.541 23.336 136.181 23.592C136.821 23.848 137.517 23.976 138.269 23.976ZM84.512 39.2H88.4V56H84.512V39.2ZM76.88 56H72.992V39.2H76.88V56ZM84.8 49.112H76.592V45.824H84.8V49.112ZM95.9508 45.968H104.039V48.992H95.9508V45.968ZM96.2388 52.88H105.383V56H92.3748V39.2H105.071V42.32H96.2388V52.88ZM108.476 56V39.2H115.748C117.252 39.2 118.548 39.448 119.636 39.944C120.724 40.424 121.564 41.12 122.156 42.032C122.748 42.944 123.044 44.032 123.044 45.296C123.044 46.544 122.748 47.624 122.156 48.536C121.564 49.432 120.724 50.12 119.636 50.6C118.548 51.08 117.252 51.32 115.748 51.32H110.636L112.364 49.616V56H108.476ZM119.156 56L114.956 49.904H119.108L123.356 56H119.156ZM112.364 50.048L110.636 48.224H115.532C116.732 48.224 117.628 47.968 118.22 47.456C118.812 46.928 119.108 46.208 119.108 45.296C119.108 44.368 118.812 43.648 118.22 43.136C117.628 42.624 116.732 42.368 115.532 42.368H110.636L112.364 40.52V50.048ZM126.125 56V39.2H134.333C136.445 39.2 138.029 39.6 139.085 40.4C140.157 41.2 140.693 42.256 140.693 43.568C140.693 44.448 140.477 45.216 140.045 45.872C139.613 46.512 139.021 47.008 138.269 47.36C137.517 47.712 136.653 47.888 135.677 47.888L136.133 46.904C137.189 46.904 138.125 47.08 138.941 47.432C139.757 47.768 140.389 48.272 140.837 48.944C141.301 49.616 141.533 50.44 141.533 51.416C141.533 52.856 140.965 53.984 139.829 54.8C138.693 55.6 137.021 56 134.813 56H126.125ZM129.989 53.072H134.525C135.533 53.072 136.293 52.912 136.805 52.592C137.333 52.256 137.597 51.728 137.597 51.008C137.597 50.304 137.333 49.784 136.805 49.448C136.293 49.096 135.533 48.92 134.525 48.92H129.701V46.088H133.853C134.797 46.088 135.517 45.928 136.013 45.608C136.525 45.272 136.781 44.768 136.781 44.096C136.781 43.44 136.525 42.952 136.013 42.632C135.517 42.296 134.797 42.128 133.853 42.128H129.989V53.072ZM142.268 56L149.756 39.2H153.596L161.108 56H157.028L150.884 41.168H152.42L146.252 56H142.268ZM146.012 52.4L147.044 49.448H155.684L156.74 52.4H146.012ZM162.851 56V39.2H166.739V52.832H175.163V56H162.851Z" fill="white"/>
</svg>
