<svg width="60" height="60" viewBox="0 0 60 60" fill="none" xmlns="http://www.w3.org/2000/svg">
<path d="M15.9375 55.3125L21.0591 45.0703C21.492 44.204 22.1577 43.4754 22.9815 42.9662C23.8053 42.457 24.7547 42.1874 25.7231 42.1875C27.1061 42.1875 28.4324 42.7369 29.4102 43.7148C30.3881 44.6926 30.9375 46.0189 30.9375 47.4019V55.3125H15.9375Z" fill="#0B8367"/>
<path d="M26.25 48.75C27.2855 48.75 28.125 47.9105 28.125 46.875C28.125 45.8395 27.2855 45 26.25 45C25.2145 45 24.375 45.8395 24.375 46.875C24.375 47.9105 25.2145 48.75 26.25 48.75Z" fill="#2B2B37"/>
<path d="M23.1843 28.125C23.3908 28.4825 23.4734 28.8982 23.4195 29.3075C23.3655 29.7168 23.178 30.0968 22.886 30.3887C22.594 30.6805 22.2139 30.8678 21.8046 30.9216C21.3952 30.9753 20.9796 30.8924 20.6222 30.6858C20.2648 30.4792 19.9856 30.1604 19.8278 29.7789C19.6701 29.3974 19.6427 28.9745 19.7498 28.5758C19.857 28.1771 20.0927 27.825 20.4205 27.5739C20.7482 27.3229 21.1496 27.1871 21.5625 27.1875C21.8914 27.1874 22.2145 27.274 22.4992 27.4386C22.784 27.6032 23.0203 27.8399 23.1843 28.125ZM22.5 17.8125C23.1654 17.8116 23.8096 18.047 24.3176 18.4769C24.8256 18.9067 25.1644 19.503 25.2736 20.1595C25.3829 20.8159 25.2554 21.4898 24.9139 22.061C24.5725 22.6322 24.0393 23.0635 23.4093 23.2781C23.1179 23.3841 22.8101 23.438 22.5 23.4375C21.754 23.4375 21.0387 23.1412 20.5112 22.6137C19.9838 22.0863 19.6875 21.3709 19.6875 20.625C19.6854 20.3224 19.7329 20.0216 19.8281 19.7344C20.043 19.0953 20.4784 18.5536 21.0562 18.2063C21.4946 17.9507 21.9925 17.8149 22.5 17.8125Z" fill="#2B2B37"/>
<path d="M43.125 44.0625L44.0625 46.875L35.625 50.625L34.6875 47.8125L43.125 44.0625ZM23.4094 23.2781L25.6594 28.125H23.1844C22.9776 27.7685 22.6591 27.4901 22.2781 27.3328C21.8972 27.1755 21.475 27.148 21.077 27.2548C20.6789 27.3615 20.3271 27.5964 20.0759 27.9232C19.8247 28.2499 19.6882 28.6504 19.6875 29.0625L18.5156 29.9438C17.715 30.544 17.0652 31.3224 16.6177 32.2174C16.1702 33.1124 15.9373 34.0994 15.9375 35.1C15.9346 35.4899 15.9691 35.8792 16.0406 36.2625C16.3875 38.0906 17.7094 43.2938 21.5625 44.0625L21.6469 44.1469C21.4199 44.4327 21.2221 44.7405 21.0562 45.0656L18.75 49.6875C18.75 49.6875 9.375 45 9.375 31.875C9.375 24.375 15 19.6875 15 19.6875H19.6875L19.8281 19.7344C19.7329 20.0216 19.6854 20.3224 19.6875 20.625C19.6875 21.3709 19.9838 22.0863 20.5113 22.6137C21.0387 23.1412 21.7541 23.4375 22.5 23.4375C22.8101 23.438 23.1179 23.3841 23.4094 23.2781Z" fill="#EDF4FA"/>
<path d="M42.8061 38.6999C42.905 38.9103 42.9172 39.1511 42.84 39.3704C42.7628 39.5897 42.6024 39.7698 42.3936 39.8718L37.7061 42.103C37.6035 42.1522 37.4922 42.1802 37.3786 42.1856C37.2651 42.1909 37.1516 42.1733 37.0449 42.134C36.9383 42.0947 36.8406 42.0343 36.7577 41.9565C36.6748 41.8787 36.6084 41.7851 36.5623 41.6812L35.9248 40.2937L42.2061 37.3687L42.8061 38.6999Z" fill="#A8B7D4"/>
<path d="M42.2063 37.3689L35.9251 40.2939L31.8751 42.1877L30.647 39.1783L44.822 32.7939L45.9376 35.6252L42.2063 37.3689Z" fill="#0B8367"/>
<path d="M22.5281 0.9375L25.7531 7.89375L20.5688 10.3313L17.3438 3.375L22.5281 0.9375ZM33.8063 25.2937L37.0312 32.25L31.8469 34.6875L28.6219 27.7313L33.8063 25.2937ZM50.625 59.0625H13.125C13.1268 58.0681 13.521 57.1147 14.2219 56.4094C14.7059 55.9329 15.3076 55.5933 15.9656 55.425C16.2628 55.3496 16.5684 55.3118 16.875 55.3125H46.875C47.8696 55.3125 48.8234 55.7076 49.5266 56.4109C50.2299 57.1141 50.625 58.0679 50.625 59.0625Z" fill="#393D48"/>
<path d="M23.4092 23.2783C24.0391 23.0637 24.5723 22.6324 24.9138 22.0612C25.2552 21.49 25.3827 20.8161 25.2735 20.1597C25.1643 19.5032 24.8254 18.9069 24.3174 18.4771C23.8094 18.0472 23.1653 17.8118 22.4998 17.8127C21.9924 17.8151 21.4945 17.9509 21.0561 18.2064L17.9717 11.5502L20.5686 10.3314L25.7529 7.89395L28.3404 6.68457L36.4029 24.0752L33.8061 25.2939L28.6217 27.7314L26.0342 28.9408L25.6592 28.1252L23.4092 23.2783Z" fill="#0B8367"/>
<path d="M23.2856 7.69855C22.8286 7.89443 22.3125 7.90077 21.8508 7.71617C21.3892 7.53156 21.0197 7.17115 20.8238 6.71418L19.0491 2.57324L17.3438 3.3748L20.5688 10.3311L25.7531 7.89355L25.2684 6.84918L23.2856 7.69855ZM32.5191 28.272L34.6875 27.1873L33.8063 25.2936L28.6219 27.7311L31.8469 34.6873L33.0966 34.0995L31.6341 30.687C31.4459 30.2475 31.4327 29.7527 31.5972 29.3038C31.7617 28.8549 32.0915 28.4858 32.5191 28.272Z" fill="#2B2B37"/>
<path d="M33.1792 23.0156C31.8327 23.6276 30.2994 23.6847 28.9111 23.1745C27.5228 22.6642 26.3914 21.6277 25.7617 20.2894L20.9805 10.1362L20.5661 10.3312L17.9692 11.55L21.0536 18.2062C21.4928 17.9502 21.9918 17.8144 22.5002 17.8125C23.1656 17.8115 23.8098 18.047 24.3178 18.4769C24.8258 18.9067 25.1646 19.503 25.2738 20.1595C25.3831 20.8159 25.2556 21.4898 24.9141 22.061C24.5727 22.6322 24.0395 23.0635 23.4096 23.2781L25.6596 28.125L26.0346 28.9406L28.6221 27.7312L33.8064 25.2937L36.4033 24.075L35.4377 21.989L33.1792 23.0156Z" fill="#00785D"/>
<path d="M29.0627 14.0624C28.8877 14.0634 28.7159 14.0153 28.5668 13.9237C28.4177 13.8321 28.2972 13.7005 28.2189 13.544L26.3439 9.79397C26.2328 9.57143 26.2146 9.31386 26.2934 9.07792C26.3721 8.84197 26.5414 8.64698 26.7639 8.53584C26.9865 8.4247 27.2441 8.40651 27.48 8.48527C27.7159 8.56404 27.9109 8.73331 28.0221 8.95584L29.8971 12.7058C29.9683 12.8485 30.0021 13.0069 29.995 13.1662C29.988 13.3254 29.9405 13.4803 29.857 13.6161C29.7735 13.7519 29.6567 13.8641 29.5177 13.9422C29.3787 14.0203 29.2221 14.0617 29.0627 14.0624Z" fill="#00785D"/>
<path d="M34.5629 39.0273C34.3431 39.1217 34.0954 39.1284 33.8708 39.0462C33.6461 38.9639 33.4614 38.7989 33.3545 38.5848L33.0995 38.0739L30.647 39.1783L31.8751 42.1876L35.9251 40.2939L42.2063 37.3689L45.9376 35.6251L45.3798 34.2104L34.5629 39.0273Z" fill="#00785D"/>
<path d="M39.2932 39.5155L42.5257 38.0783L42.2061 37.3687L35.9248 40.2937L36.5623 41.6812C36.6084 41.7851 36.6748 41.8787 36.7577 41.9565C36.8406 42.0343 36.9383 42.0947 37.0449 42.134C37.1516 42.1733 37.2651 42.1909 37.3786 42.1856C37.4922 42.1802 37.6035 42.1522 37.7061 42.103L38.2864 41.8265C38.1354 41.3851 38.1551 40.9032 38.3414 40.4756C38.5277 40.048 38.8672 39.7055 39.2932 39.5155Z" fill="#8698BA"/>
<path d="M38.4441 48.3307C38.3244 48.3838 38.195 48.4112 38.0642 48.4113C37.9333 48.4113 37.8039 48.384 37.6842 48.331C37.5646 48.278 37.4573 48.2006 37.3694 48.1037C37.2815 48.0067 37.2148 47.8925 37.1738 47.7682L36.8653 46.8429L34.6875 47.8123L35.625 50.6248L44.0625 46.8748L43.7597 45.9673L38.4441 48.3307Z" fill="#C1CFE8"/>
<path d="M22.5 22.5C23.5355 22.5 24.375 21.6605 24.375 20.625C24.375 19.5895 23.5355 18.75 22.5 18.75C21.4645 18.75 20.625 19.5895 20.625 20.625C20.625 21.6605 21.4645 22.5 22.5 22.5Z" fill="#8394B2"/>
<path d="M21.5625 30C22.0803 30 22.5 29.5803 22.5 29.0625C22.5 28.5447 22.0803 28.125 21.5625 28.125C21.0447 28.125 20.625 28.5447 20.625 29.0625C20.625 29.5803 21.0447 30 21.5625 30Z" fill="#8394B2"/>
<path d="M26.25 47.8125C26.7678 47.8125 27.1875 47.3928 27.1875 46.875C27.1875 46.3572 26.7678 45.9375 26.25 45.9375C25.7322 45.9375 25.3125 46.3572 25.3125 46.875C25.3125 47.3928 25.7322 47.8125 26.25 47.8125Z" fill="#8394B2"/>
<path d="M28.8553 53.4375H25.7316C22.7597 53.4375 20.7441 50.7188 21.8878 48.2456L23.8903 43.9181C24.1189 43.4572 24.4589 43.0605 24.8794 42.7641C25.2999 42.4676 25.7878 42.2807 26.2987 42.2203C26.1076 42.1989 25.9155 42.188 25.7231 42.1875C24.7547 42.1874 23.8053 42.457 22.9815 42.9662C22.1577 43.4754 21.492 44.204 21.0591 45.0703L15.9375 55.3125H30.9375V51.5625C30.9087 52.0868 30.6735 52.5783 30.2833 52.9296C29.8931 53.281 29.3797 53.4636 28.8553 53.4375Z" fill="#00785D"/>
<path d="M49.3978 56.3044C49.2304 56.5742 48.997 56.7969 48.7196 56.9515C48.4422 57.106 48.13 57.1872 47.8125 57.1875H19.6875C19.4389 57.1875 19.2004 57.0887 19.0246 56.9129C18.8488 56.7371 18.75 56.4987 18.75 56.25C18.75 56.0014 18.8488 55.7629 19.0246 55.5871C19.2004 55.4113 19.4389 55.3125 19.6875 55.3125H16.875C16.5684 55.3118 16.2628 55.3496 15.9656 55.425C15.3076 55.5933 14.7059 55.933 14.2219 56.4094C13.521 57.1147 13.1268 58.0682 13.125 59.0625H50.625C50.6242 58.5426 50.5145 58.0286 50.3032 57.5536C50.0918 57.0786 49.7834 56.6531 49.3978 56.3044Z" fill="#2B2B37"/>
<path d="M23.4093 23.2781C23.1179 23.3841 22.8101 23.438 22.5 23.4375C21.754 23.4375 21.0387 23.1412 20.5112 22.6137C19.9838 22.0863 19.6875 21.3709 19.6875 20.625C19.6854 20.3224 19.7329 20.0216 19.8281 19.7344L19.6875 19.6875H15L17.0512 23.7909C17.243 24.1844 17.2917 24.6323 17.1891 25.0578C17.0864 25.4833 16.8388 25.8598 16.4887 26.1225C15.105 27.1997 13.125 29.4844 13.125 33.75C13.0996 37.0903 14.1284 40.3535 16.065 43.0753C16.2895 43.3899 16.4124 43.7657 16.4171 44.1521C16.4218 44.5386 16.3081 44.9173 16.0912 45.2372L15.0515 46.7981C16.1313 47.9425 17.3783 48.9167 18.75 49.6875L21.0562 45.0656C21.222 44.7405 21.4199 44.4327 21.6468 44.1469L21.5625 44.0625C17.7093 43.2938 16.3875 38.0906 16.0406 36.2625C15.9691 35.8792 15.9346 35.4899 15.9375 35.1C15.9373 34.0994 16.1701 33.1124 16.6176 32.2174C17.0651 31.3224 17.715 30.544 18.5156 29.9438L19.6875 29.0625C19.6882 28.6504 19.8247 28.2499 20.0759 27.9232C20.327 27.5964 20.6789 27.3615 21.0769 27.2548C21.475 27.148 21.8972 27.1755 22.2781 27.3328C22.659 27.4901 22.9775 27.7685 23.1843 28.125H25.6593L23.4093 23.2781ZM46.7934 31.9106C46.6911 31.6842 46.5031 31.5077 46.2707 31.4198C46.0383 31.3319 45.7806 31.3398 45.554 31.4419L27.7415 39.4612C27.5772 39.5349 27.4375 39.6544 27.3392 39.8053C27.241 39.9563 27.1883 40.1324 27.1875 40.3125V42.3994C27.8547 42.5944 28.4762 42.9208 29.0156 43.3594C29.0413 43.2836 29.0571 43.2048 29.0625 43.125V40.9181L46.3209 33.15C46.4333 33.0997 46.5348 33.0277 46.6194 32.9382C46.704 32.8487 46.7701 32.7433 46.814 32.6282C46.8579 32.5131 46.8786 32.3905 46.8751 32.2674C46.8716 32.1442 46.8438 32.023 46.7934 31.9106Z" fill="#FECA37"/>
<path d="M43.5056 44.9195C43.6181 44.8695 43.7197 44.7978 43.8046 44.7086C43.8894 44.6194 43.9558 44.5143 44 44.3994C44.0443 44.2845 44.0654 44.162 44.0623 44.0389C44.0592 43.9158 44.0319 43.7945 43.9819 43.682C43.9319 43.5695 43.8602 43.4679 43.771 43.383C43.6817 43.2982 43.5767 43.2318 43.4618 43.1876C43.3468 43.1433 43.2243 43.1222 43.1013 43.1253C42.9782 43.1284 42.8569 43.1557 42.7444 43.2057L30.9375 48.4529V50.5051L43.5056 44.9195Z" fill="#8394B2"/>
</svg>
