<svg width="617" height="626" viewBox="0 0 617 626" fill="none" xmlns="http://www.w3.org/2000/svg">
<path d="M9.4 600.002V530.002H20.1L64 583.902H58.7V530.002H71.6V600.002H60.9L17 546.102H22.3V600.002H9.4ZM122.057 600.002V589.202L121.357 586.902V568.002C121.357 564.335 120.257 561.502 118.057 559.502C115.857 557.435 112.524 556.402 108.057 556.402C105.057 556.402 102.09 556.869 99.157 557.802C96.2904 558.735 93.857 560.035 91.857 561.702L86.957 552.602C89.8237 550.402 93.2237 548.769 97.157 547.702C101.157 546.569 105.29 546.002 109.557 546.002C117.29 546.002 123.257 547.869 127.457 551.602C131.724 555.269 133.857 560.969 133.857 568.702V600.002H122.057ZM105.257 600.702C101.257 600.702 97.757 600.035 94.757 598.702C91.757 597.302 89.4237 595.402 87.757 593.002C86.157 590.535 85.357 587.769 85.357 584.702C85.357 581.702 86.057 579.002 87.457 576.602C88.9237 574.202 91.2904 572.302 94.557 570.902C97.8237 569.502 102.157 568.802 107.557 568.802H123.057V577.102H108.457C104.19 577.102 101.324 577.802 99.857 579.202C98.3904 580.535 97.657 582.202 97.657 584.202C97.657 586.469 98.557 588.269 100.357 589.602C102.157 590.935 104.657 591.602 107.857 591.602C110.924 591.602 113.657 590.902 116.057 589.502C118.524 588.102 120.29 586.035 121.357 583.302L123.457 590.802C122.257 593.935 120.09 596.369 116.957 598.102C113.89 599.835 109.99 600.702 105.257 600.702ZM180.199 546.002C184.466 546.002 188.266 546.835 191.599 548.502C194.999 550.169 197.666 552.735 199.599 556.202C201.533 559.602 202.499 564.002 202.499 569.402V600.002H189.999V571.002C189.999 566.269 188.866 562.735 186.599 560.402C184.399 558.069 181.299 556.902 177.299 556.902C174.366 556.902 171.766 557.502 169.499 558.702C167.233 559.902 165.466 561.702 164.199 564.102C162.999 566.435 162.399 569.402 162.399 573.002V600.002H149.899V546.602H161.799V561.002L159.699 556.602C161.566 553.202 164.266 550.602 167.799 548.802C171.399 546.935 175.533 546.002 180.199 546.002ZM242.454 600.702C236.987 600.702 232.121 599.535 227.854 597.202C223.587 594.802 220.221 591.535 217.754 587.402C215.287 583.269 214.054 578.569 214.054 573.302C214.054 567.969 215.287 563.269 217.754 559.202C220.221 555.069 223.587 551.835 227.854 549.502C232.121 547.169 236.987 546.002 242.454 546.002C247.987 546.002 252.887 547.169 257.154 549.502C261.487 551.835 264.854 555.035 267.254 559.102C269.721 563.169 270.954 567.902 270.954 573.302C270.954 578.569 269.721 583.269 267.254 587.402C264.854 591.535 261.487 594.802 257.154 597.202C252.887 599.535 247.987 600.702 242.454 600.702ZM242.454 590.002C245.521 590.002 248.254 589.335 250.654 588.002C253.054 586.669 254.921 584.735 256.254 582.202C257.654 579.669 258.354 576.702 258.354 573.302C258.354 569.835 257.654 566.869 256.254 564.402C254.921 561.869 253.054 559.935 250.654 558.602C248.254 557.269 245.554 556.602 242.554 556.602C239.487 556.602 236.754 557.269 234.354 558.602C232.021 559.935 230.154 561.869 228.754 564.402C227.354 566.869 226.654 569.835 226.654 573.302C226.654 576.702 227.354 579.669 228.754 582.202C230.154 584.735 232.021 586.669 234.354 588.002C236.754 589.335 239.454 590.002 242.454 590.002ZM333.307 530.002H346.307V600.002H333.307V530.002ZM297.107 600.002H284.107V530.002H297.107V600.002ZM334.307 570.002H296.007V558.902H334.307V570.002ZM388.964 600.702C383.031 600.702 377.831 599.535 373.364 597.202C368.964 594.802 365.531 591.535 363.064 587.402C360.664 583.269 359.464 578.569 359.464 573.302C359.464 567.969 360.631 563.269 362.964 559.202C365.364 555.069 368.631 551.835 372.764 549.502C376.964 547.169 381.731 546.002 387.064 546.002C392.264 546.002 396.897 547.135 400.964 549.402C405.031 551.669 408.231 554.869 410.564 559.002C412.897 563.135 414.064 568.002 414.064 573.602C414.064 574.135 414.031 574.735 413.964 575.402C413.964 576.069 413.931 576.702 413.864 577.302H369.364V569.002H407.264L402.364 571.602C402.431 568.535 401.797 565.835 400.464 563.502C399.131 561.169 397.297 559.335 394.964 558.002C392.697 556.669 390.064 556.002 387.064 556.002C383.997 556.002 381.297 556.669 378.964 558.002C376.697 559.335 374.897 561.202 373.564 563.602C372.297 565.935 371.664 568.702 371.664 571.902V573.902C371.664 577.102 372.397 579.935 373.864 582.402C375.331 584.869 377.397 586.769 380.064 588.102C382.731 589.435 385.797 590.102 389.264 590.102C392.264 590.102 394.964 589.635 397.364 588.702C399.764 587.769 401.897 586.302 403.764 584.302L410.464 592.002C408.064 594.802 405.031 596.969 401.364 598.502C397.764 599.969 393.631 600.702 388.964 600.702ZM426.071 600.002V546.602H437.971V561.302L436.571 557.002C438.171 553.402 440.671 550.669 444.071 548.802C447.538 546.935 451.838 546.002 456.971 546.002V557.902C456.438 557.769 455.938 557.702 455.471 557.702C455.004 557.635 454.538 557.602 454.071 557.602C449.338 557.602 445.571 559.002 442.771 561.802C439.971 564.535 438.571 568.635 438.571 574.102V600.002H426.071ZM497.175 600.702C492.642 600.702 488.608 599.702 485.075 597.702C481.542 595.702 478.742 592.702 476.675 588.702C474.675 584.635 473.675 579.502 473.675 573.302C473.675 567.035 474.708 561.902 476.775 557.902C478.908 553.902 481.742 550.935 485.275 549.002C488.875 547.002 492.842 546.002 497.175 546.002C502.442 546.002 507.075 547.135 511.075 549.402C515.142 551.669 518.342 554.835 520.675 558.902C523.075 562.969 524.275 567.769 524.275 573.302C524.275 578.835 523.075 583.635 520.675 587.702C518.342 591.769 515.142 594.969 511.075 597.302C507.075 599.569 502.442 600.702 497.175 600.702ZM467.575 600.002V525.802H480.075V559.002L479.075 573.202L479.475 587.402V600.002H467.575ZM495.775 590.002C498.775 590.002 501.442 589.335 503.775 588.002C506.175 586.669 508.075 584.735 509.475 582.202C510.875 579.669 511.575 576.702 511.575 573.302C511.575 569.835 510.875 566.869 509.475 564.402C508.075 561.869 506.175 559.935 503.775 558.602C501.442 557.269 498.775 556.602 495.775 556.602C492.775 556.602 490.075 557.269 487.675 558.602C485.275 559.935 483.375 561.869 481.975 564.402C480.575 566.869 479.875 569.835 479.875 573.302C479.875 576.702 480.575 579.669 481.975 582.202C483.375 584.735 485.275 586.669 487.675 588.002C490.075 589.335 492.775 590.002 495.775 590.002ZM568.346 600.002V589.202L567.646 586.902V568.002C567.646 564.335 566.546 561.502 564.346 559.502C562.146 557.435 558.813 556.402 554.346 556.402C551.346 556.402 548.379 556.869 545.446 557.802C542.579 558.735 540.146 560.035 538.146 561.702L533.246 552.602C536.113 550.402 539.513 548.769 543.446 547.702C547.446 546.569 551.579 546.002 555.846 546.002C563.579 546.002 569.546 547.869 573.746 551.602C578.013 555.269 580.146 560.969 580.146 568.702V600.002H568.346ZM551.546 600.702C547.546 600.702 544.046 600.035 541.046 598.702C538.046 597.302 535.713 595.402 534.046 593.002C532.446 590.535 531.646 587.769 531.646 584.702C531.646 581.702 532.346 579.002 533.746 576.602C535.213 574.202 537.579 572.302 540.846 570.902C544.113 569.502 548.446 568.802 553.846 568.802H569.346V577.102H554.746C550.479 577.102 547.613 577.802 546.146 579.202C544.679 580.535 543.946 582.202 543.946 584.202C543.946 586.469 544.846 588.269 546.646 589.602C548.446 590.935 550.946 591.602 554.146 591.602C557.213 591.602 559.946 590.902 562.346 589.502C564.813 588.102 566.579 586.035 567.646 583.302L569.746 590.802C568.546 593.935 566.379 596.369 563.246 598.102C560.179 599.835 556.279 600.702 551.546 600.702ZM596.188 600.002V525.802H608.688V600.002H596.188Z" fill="white"/>
<path fill-rule="evenodd" clip-rule="evenodd" d="M249.963 330.871V259.312L383.033 392.376C418.915 428.264 481.705 403.343 481.414 350.948V140.289C481.414 -3.61203 547.029 6.94518 547.029 6.94518C547.029 6.94518 366.061 -45.965 366.061 140.289V212.276L235.959 82.1683C225.358 69.8784 209.696 62.0661 192.289 62.0661C159.301 62.0661 133.883 89.1173 134.61 122.49V330.865C134.61 474.771 69 464.214 69 464.214C69 464.214 249.963 517.124 249.963 330.871Z" fill="white"/>
<path d="M347.257 158.357C252.986 180.651 230.685 230.792 185.44 249.181C137.932 276.763 101.603 267.811 69 259.494C121.484 309.143 218.309 319.257 254.505 307.764C278.032 302.247 347.257 273.285 378.929 259.494C476.658 215.362 529.746 222.717 544.074 231.911C528.238 220.418 455.579 132.741 347.257 158.357Z" fill="#FECA37" stroke="#00785D" stroke-width="9.31517"/>
</svg>
