<svg width="496" height="472" viewBox="0 0 496 472" fill="none" xmlns="http://www.w3.org/2000/svg">
<path fill-rule="evenodd" clip-rule="evenodd" d="M197.963 330.871V259.312L331.033 392.376C366.915 428.264 429.705 403.343 429.414 350.948V140.289C429.414 -3.61203 495.029 6.94519 495.029 6.94519C495.029 6.94519 314.061 -45.965 314.061 140.289V212.276L183.959 82.1683C173.358 69.8784 157.696 62.0661 140.289 62.0661C107.301 62.0661 81.8832 89.1173 82.6098 122.49V330.865C82.6098 474.771 17 464.214 17 464.214C17 464.214 197.963 517.124 197.963 330.871Z" fill="#00785D"/>
<path d="M295.257 158.357C200.986 180.651 178.685 230.792 133.44 249.181C85.9322 276.763 49.6031 267.811 17 259.494C69.4843 309.143 166.309 319.257 202.505 307.764C226.032 302.247 295.257 273.285 326.929 259.494C424.658 215.362 477.746 222.717 492.074 231.911C476.238 220.418 403.579 132.741 295.257 158.357Z" fill="#FECA37" stroke="white" stroke-width="9.31517"/>
</svg>
