<svg width="60" height="60" viewBox="0 0 60 60" fill="none" xmlns="http://www.w3.org/2000/svg">
<path d="M8.02734 6.9375H51.9844V59.7656H8.02734V6.9375Z" fill="#00785D"/>
<path d="M8.02734 6.9375H51.9844V7.96875H8.02734V6.9375Z" fill="#18BF9A"/>
<path d="M12.5742 10.2773H47.4141V55.2305H12.5742V10.2773Z" fill="white"/>
<path d="M39.6211 5.02734H34.793C34.793 2.37891 32.6484 0.234375 30 0.234375C27.3516 0.234375 25.207 2.37891 25.207 5.02734H20.3789C18.8437 5.02734 17.6016 6.26953 17.6016 7.80469V11.8125C17.6016 12.1055 17.8359 12.3398 18.1289 12.3398H41.8945C42.1875 12.3398 42.4219 12.1055 42.4219 11.8125V7.81641C42.4102 6.26953 41.1563 5.02734 39.6211 5.02734ZM27.457 5.02734C27.457 3.62109 28.5938 2.48438 30 2.48438C31.4062 2.48438 32.543 3.62109 32.543 5.02734H27.457Z" fill="#FECA37"/>
<path d="M32.543 5.60156C32.543 5.40234 32.5195 5.21484 32.4727 5.02734H27.5273C27.4805 5.21484 27.457 5.40234 27.457 5.60156H32.543Z" fill="#DFE3E8"/>
<path d="M39.6211 5.02734H34.793C34.793 2.37891 32.6484 0.234375 30 0.234375C27.3516 0.234375 25.207 2.37891 25.207 5.02734H20.3789C18.8437 5.02734 17.6016 6.26953 17.6016 7.80469V8.37891C17.6016 6.84375 18.8437 5.60156 20.3789 5.60156H25.207C25.207 2.95312 27.3516 0.808594 30 0.808594C32.6484 0.808594 34.793 2.95312 34.793 5.60156H39.6211C41.1563 5.60156 42.3984 6.84375 42.3984 8.37891V7.80469C42.4102 6.26953 41.1563 5.02734 39.6211 5.02734Z" fill="#DFE3E8"/>
<path d="M41.8828 11.2148H18.1172C17.8242 11.2148 17.5898 10.9805 17.5898 10.6875V11.8125C17.5898 12.1055 17.8242 12.3398 18.1172 12.3398H41.8828C42.1758 12.3398 42.4102 12.1055 42.4102 11.8125V10.6875C42.4102 10.9805 42.1758 11.2148 41.8828 11.2148Z" fill="#919EAB"/>
<path d="M16.8164 17.5312H20.0391V20.7539H16.8164V17.5312Z" fill="#FECA37"/>
<path d="M23.5547 17.9414H43.1836V20.332H23.5547V17.9414Z" fill="#DFE3E8"/>
<path d="M16.8164 24.3398H20.0391V27.5625H16.8164V24.3398Z" fill="#5AC8AE"/>
<path d="M23.5547 24.75H43.1836V27.1406H23.5547V24.75Z" fill="#DFE3E8"/>
<path d="M16.8164 31.1484H20.0391V34.3711H16.8164V31.1484Z" fill="#5AC8AE"/>
<path d="M23.5547 31.5586H43.1836V33.9492H23.5547V31.5586Z" fill="#DFE3E8"/>
<path d="M16.8164 37.957H20.0391V41.1797H16.8164V37.957Z" fill="#5AC8AE"/>
<path d="M23.5547 38.3789H43.1836V40.7695H23.5547V38.3789Z" fill="#DFE3E8"/>
<path d="M16.8164 44.7656H20.0391V47.9883H16.8164V44.7656Z" fill="#5AC8AE"/>
<path d="M23.5547 45.1875H43.1836V47.5781H23.5547V45.1875Z" fill="#DFE3E8"/>
</svg>
