<svg width="41" height="40" viewBox="0 0 41 40" fill="none" xmlns="http://www.w3.org/2000/svg">
<circle cx="20.5" cy="20" r="20" fill="#00785D"/>
<path d="M30.5 29.25H10.5C10.09 29.25 9.75 29.59 9.75 30C9.75 30.41 10.09 30.75 10.5 30.75H30.5C30.91 30.75 31.25 30.41 31.25 30C31.25 29.59 30.91 29.25 30.5 29.25Z" fill="#FECA37"/>
<path d="M25.5 10H15.5C12.5 10 11.5 11.79 11.5 14V30H17.5V23.94C17.5 23.42 17.92 23 18.44 23H22.57C23.08 23 23.51 23.42 23.51 23.94V30H29.51V14C29.5 11.79 28.5 10 25.5 10ZM23 17.25H21.25V19C21.25 19.41 20.91 19.75 20.5 19.75C20.09 19.75 19.75 19.41 19.75 19V17.25H18C17.59 17.25 17.25 16.91 17.25 16.5C17.25 16.09 17.59 15.75 18 15.75H19.75V14C19.75 13.59 20.09 13.25 20.5 13.25C20.91 13.25 21.25 13.59 21.25 14V15.75H23C23.41 15.75 23.75 16.09 23.75 16.5C23.75 16.91 23.41 17.25 23 17.25Z" fill="#FECA37"/>
</svg>
