<svg width="193" height="176" viewBox="0 0 193 176" fill="none" xmlns="http://www.w3.org/2000/svg">
<path fill-rule="evenodd" clip-rule="evenodd" d="M8.7063 10.0311C1.10346 19.1214 -5.20871 28.9267 -10.2287 39.2004C4.80882 52.9341 27.3219 57.7651 52.4579 54.349C80.9992 50.4731 112.783 36.0181 141.058 11.9043C151.701 2.82714 161.071 -6.96051 169.067 -17.1077C168.418 -20.5021 167.645 -23.8788 166.75 -27.2301C165.468 -26.0806 164.165 -24.9427 162.844 -23.8156C133.274 1.40607 99.8455 16.5462 69.708 20.645C46.4366 23.8073 25.0537 20.4074 8.7063 10.0311Z" fill="#0B8367"/>
<path fill-rule="evenodd" clip-rule="evenodd" d="M162.576 -35.3545C112.978 -50.7407 56.7319 -38.8014 17.4641 0.466435C16.5175 1.41303 15.5864 2.36733 14.6737 3.33398C29.0794 11.9737 47.9187 14.714 68.5169 11.912C97.0582 8.03765 128.843 -6.41972 157.115 -30.532C158.976 -32.1182 160.794 -33.7251 162.576 -35.3545Z" fill="#0B8367"/>
<path fill-rule="evenodd" clip-rule="evenodd" d="M-14.0077 47.6205C-18.1297 57.6457 -21.0767 68.039 -22.851 78.5896C-7.90072 94.5922 15.9747 100.369 42.8512 96.7184C71.3894 92.8394 103.175 78.3828 131.447 54.2721C148.084 40.0817 161.611 24.1624 171.625 7.84346C171.556 3.44146 171.287 -0.958991 170.816 -5.34172C163.682 3.00789 155.655 11.0582 146.785 18.6225C117.216 43.8426 83.7908 58.9866 53.651 63.0815C27.0692 66.692 2.95462 61.7484 -14.0077 47.6205Z" fill="#0B8367"/>
<path fill-rule="evenodd" clip-rule="evenodd" d="M87.6228 92.5443C82.7934 99.9967 77.3384 107.334 71.2708 114.448C57.0796 131.086 41.1603 144.612 24.8421 154.626C20.4394 154.557 16.0404 154.287 11.6562 153.818C20.005 146.685 28.0569 138.656 35.6219 129.785C42.8791 121.277 49.3016 112.449 54.867 103.471C66.0441 101.051 77.0359 97.3066 87.6228 92.5443Z" fill="#0B8367"/>
<path fill-rule="evenodd" clip-rule="evenodd" d="M43.0335 105.514C38.7711 111.811 34.0598 118.016 28.9048 124.058C19.8254 134.704 10.0409 144.076 -0.107062 152.067C-3.50153 151.418 -6.87904 150.646 -10.2311 149.752C-9.08082 148.469 -7.94289 147.166 -6.81577 145.844C4.00949 133.155 12.9724 119.752 20.0082 106.205C27.682 106.775 35.4577 106.481 43.0335 105.514Z" fill="#0B8367"/>
<path fill-rule="evenodd" clip-rule="evenodd" d="M-18.3542 145.576C-24.0098 127.343 -25.9686 108.208 -24.2374 89.3501C-14.2538 97.908 -2.13711 102.835 10.6415 105.058C4.15654 117.016 -3.91921 128.845 -13.5325 140.116C-15.1179 141.976 -16.7264 143.796 -18.3542 145.576Z" fill="#0B8367"/>
</svg>
