<svg width="474" height="209" viewBox="0 0 474 209" fill="none" xmlns="http://www.w3.org/2000/svg">
<path d="M261.213 208.995C283.539 207.144 305.095 202.797 325.55 196.258C323.806 160.45 300.157 126.418 261.97 99.3861C218.613 68.688 156.771 47.121 86.7029 41.942C60.3278 39.9928 34.7059 40.5133 10.4399 43.1902C6.76869 48.2233 3.28532 53.387 4.69127e-05 58.6717C3.25231 58.8369 6.5169 59.0423 9.79186 59.2843C83.073 64.6957 148.031 87.4571 193.821 119.864C229.175 144.892 253.226 175.736 261.213 208.995Z" fill="#0B8367"/>
<path fill-rule="evenodd" clip-rule="evenodd" d="M341.865 190.482C360.787 183.135 378.629 173.868 395.113 162.945C396.52 124.422 372.314 87.5171 331.485 58.6107C288.129 27.9203 226.282 6.35333 156.222 1.17426C114.991 -1.87135 75.6092 1.10705 40.3895 8.95344C34.5948 14.5185 29.0685 20.3294 23.8372 26.3706C44.5456 24.8574 66.0485 24.8286 88.0281 26.4532C161.307 31.8666 226.266 54.6184 272.053 87.0332C312.434 115.623 338.075 151.788 341.865 190.482Z" fill="#0B8367"/>
<path fill-rule="evenodd" clip-rule="evenodd" d="M266.023 8.08366C282.45 4.81914 299.559 2.47636 317.188 1.17439C358.422 -1.87123 397.804 1.10717 433.021 8.95356C438.818 14.5186 444.34 20.3295 449.576 26.3708C428.869 24.8576 407.362 24.8287 385.381 26.4533C364.295 28.0107 343.898 31.0045 324.446 35.2522C306.262 24.3525 286.552 15.3328 266.023 8.08366Z" fill="#0B8367"/>
<path fill-rule="evenodd" clip-rule="evenodd" d="M343.005 47.4373C357.128 44.9045 371.728 43.0456 386.704 41.9414C413.085 39.9923 438.707 40.505 462.967 43.1896C466.638 48.2227 470.124 53.3865 473.411 58.6712C470.157 58.8363 466.892 59.0418 463.617 59.2837C432.167 61.6035 402.253 67.1301 374.725 75.2338C365.224 64.9736 354.431 55.662 343.005 47.4373Z" fill="#0B8367"/>
</svg>
