<svg width="41" height="40" viewBox="0 0 41 40" fill="none" xmlns="http://www.w3.org/2000/svg">
<circle cx="20.5" cy="20" r="20" fill="#00785D"/>
<g clip-path="url(#clip0_105_1143)">
<path d="M31.0722 26.4935L28.6333 24.8674L26.4651 23.4223C26.0467 23.1439 25.4844 23.2352 25.1755 23.6317L23.8339 25.3564C23.5457 25.7306 23.0273 25.8382 22.614 25.6094C21.7037 25.103 20.6272 24.6262 18.252 22.248C15.8768 19.8697 15.397 18.7963 14.8906 17.886C14.6618 17.4727 14.7693 16.9543 15.1436 16.6661L16.8683 15.3245C17.2648 15.0157 17.3561 14.4534 17.0777 14.0349L15.6769 11.9335L14.0064 9.42779C13.7221 9.00129 13.153 8.87324 12.7134 9.13685L10.7869 10.2926C10.2662 10.5994 9.88351 11.0947 9.718 11.6759C9.19117 13.5967 9.08495 17.834 15.8757 24.6247C22.6664 31.4154 26.9032 31.3088 28.824 30.7819C29.4052 30.6165 29.9006 30.2338 30.2073 29.7131L31.3631 27.7866C31.6267 27.347 31.4987 26.7779 31.0722 26.4935Z" fill="#FECA37"/>
<path d="M22.017 12.4137C25.5766 12.4176 28.4613 15.3023 28.4652 18.8619C28.4652 19.0714 28.635 19.2412 28.8446 19.2412C29.054 19.2412 29.2239 19.0714 29.2239 18.8619C29.2195 14.8835 25.9955 11.6595 22.0171 11.6551C21.8076 11.6551 21.6378 11.8249 21.6378 12.0344C21.6377 12.2438 21.8075 12.4137 22.017 12.4137Z" fill="#FECA37"/>
<path d="M22.017 14.6895C24.3202 14.6922 26.1867 16.5587 26.1894 18.8618C26.1894 19.0713 26.3592 19.2412 26.5687 19.2412C26.7782 19.2412 26.948 19.0714 26.948 18.8618C26.9449 16.1398 24.7391 13.934 22.017 13.9308C21.8075 13.9308 21.6377 14.1007 21.6377 14.3102C21.6377 14.5197 21.8075 14.6895 22.017 14.6895Z" fill="#FECA37"/>
<path d="M22.017 16.9654C23.064 16.9666 23.9123 17.815 23.9136 18.8619C23.9136 19.0714 24.0834 19.2412 24.2929 19.2412C24.5024 19.2412 24.6722 19.0714 24.6722 18.8619C24.6705 17.3962 23.4828 16.2085 22.0171 16.2068C21.8076 16.2068 21.6378 16.3766 21.6378 16.5861C21.6377 16.7956 21.8075 16.9654 22.017 16.9654Z" fill="#FECA37"/>
</g>
<defs>
<clipPath id="clip0_105_1143">
<rect width="22" height="22" fill="white" transform="translate(9.5 9)"/>
</clipPath>
</defs>
</svg>
