<svg width="159" height="151" viewBox="0 0 159 151" fill="none" xmlns="http://www.w3.org/2000/svg">
<path fill-rule="evenodd" clip-rule="evenodd" d="M173.593 110.266C175.415 99.8347 175.919 89.4266 175.214 79.2334C157.441 75.3241 137.861 81.6441 119.935 95.5181C99.5801 111.269 81.4424 136.656 70.3352 167.949C66.1545 179.729 63.2768 191.489 61.6224 202.914C63.6417 205.251 65.748 207.519 67.9378 209.713C68.4165 208.25 68.9164 206.788 69.4355 205.325C81.0495 172.596 100.154 145.944 121.645 129.307C138.241 116.463 156.307 109.54 173.593 110.266Z" fill="#F9FAFB"/>
<path fill-rule="evenodd" clip-rule="evenodd" d="M74.798 214.135C120.054 203.882 158.246 169.513 171.089 121.581C171.399 120.425 171.693 119.271 171.968 118.115C156.96 117.865 141.156 124.162 126.468 135.533C106.112 151.283 87.9751 176.672 76.8696 207.963C76.1383 210.022 75.4491 212.078 74.798 214.135Z" fill="#F9FAFB"/>
<path fill-rule="evenodd" clip-rule="evenodd" d="M174.377 71.0295C173.087 61.4298 170.724 52.0702 167.384 43.1128C148.665 37.4087 127.607 43.6055 108.44 58.4386C88.0886 74.1908 69.9503 99.5793 58.8442 130.869C52.3092 149.284 48.9544 167.646 48.4957 184.749C50.5162 188.125 52.69 191.41 55.013 194.591C56.803 184.942 59.4181 175.126 62.9022 165.31C74.5169 132.582 93.6167 105.929 115.111 89.2938C134.068 74.6235 154.938 67.675 174.377 71.0295Z" fill="#F9FAFB"/>
</svg>
