<svg width="36" height="36" viewBox="0 0 36 36" fill="none" xmlns="http://www.w3.org/2000/svg">
<g clip-path="url(#clip0_105_810)">
<path d="M6.44444 19.4446H15.1111C15.9056 19.4446 16.5556 18.7946 16.5556 18.0001V6.44457C16.5556 5.65012 15.9056 5.00012 15.1111 5.00012H6.44444C5.65 5.00012 5 5.65012 5 6.44457V18.0001C5 18.7946 5.65 19.4446 6.44444 19.4446ZM6.44444 31.0001H15.1111C15.9056 31.0001 16.5556 30.3501 16.5556 29.5557V23.7779C16.5556 22.9835 15.9056 22.3335 15.1111 22.3335H6.44444C5.65 22.3335 5 22.9835 5 23.7779V29.5557C5 30.3501 5.65 31.0001 6.44444 31.0001ZM20.8889 31.0001H29.5556C30.35 31.0001 31 30.3501 31 29.5557V18.0001C31 17.2057 30.35 16.5557 29.5556 16.5557H20.8889C20.0944 16.5557 19.4444 17.2057 19.4444 18.0001V29.5557C19.4444 30.3501 20.0944 31.0001 20.8889 31.0001ZM19.4444 6.44457V12.2223C19.4444 13.0168 20.0944 13.6668 20.8889 13.6668H29.5556C30.35 13.6668 31 13.0168 31 12.2223V6.44457C31 5.65012 30.35 5.00012 29.5556 5.00012H20.8889C20.0944 5.00012 19.4444 5.65012 19.4444 6.44457Z" fill="#00785D"/>
</g>
<defs>
<clipPath id="clip0_105_810">
<rect width="34.6667" height="34.6667" fill="white" transform="translate(0.666504 0.666626)"/>
</clipPath>
</defs>
</svg>
