<svg width="60" height="60" viewBox="0 0 60 60" fill="none" xmlns="http://www.w3.org/2000/svg">
<g clip-path="url(#clip0_365_7346)">
<path d="M30.0001 12.2073C33.3697 12.2073 36.1013 9.47569 36.1013 6.10609C36.1013 2.73648 33.3697 0.00488281 30.0001 0.00488281C26.6305 0.00488281 23.8989 2.73648 23.8989 6.10609C23.8989 9.47569 26.6305 12.2073 30.0001 12.2073Z" fill="#F4F6F8"/>
<path d="M10.9256 22.1156C13.2897 24.4528 13.3116 28.2639 10.9745 30.6278C10.9583 30.6442 10.942 30.6605 10.9256 30.6766C8.53575 33.0411 4.68793 33.0411 2.29816 30.6766C-0.0659289 28.3395 -0.0876644 24.5284 2.24935 22.1644C2.26549 22.1481 2.28176 22.1319 2.29816 22.1156C4.68793 19.7512 8.53575 19.7512 10.9256 22.1156Z" fill="#F3F4FF"/>
<path d="M35.0271 2.6521L26.5459 11.1333C29.3209 13.0423 33.118 12.3403 35.0271 9.56527C36.4593 7.48336 36.4593 4.73388 35.0271 2.6521Z" fill="#08A885"/>
<path d="M33.5956 1.2074L34.9875 2.59924C33.0559 -0.158379 29.2547 -0.827986 26.4971 1.10355C23.7395 3.03509 23.07 6.83627 25.0014 9.59376C25.0299 9.63443 25.0589 9.67473 25.0884 9.71464L33.5956 1.2074Z" fill="#08A885"/>
<path d="M36.1014 16.2747H23.899C21.6526 16.2747 19.8315 18.0957 19.8315 20.3421C19.8315 22.5885 21.6526 24.4096 23.899 24.4096H36.1014C38.3478 24.4096 40.1689 22.5885 40.1689 20.3421C40.1689 18.0957 38.3478 16.2747 36.1014 16.2747Z" fill="#FECA37"/>
<path d="M36.1012 16.2747H30V24.4096H36.1012C38.3476 24.4096 40.1687 22.5885 40.1687 20.3421C40.1687 18.0957 38.3476 16.2747 36.1012 16.2747Z" fill="#08A885"/>
<path d="M58.2981 1.19614C56.7097 -0.392204 54.1343 -0.392204 52.5458 1.19614L43.9175 9.82464C42.336 11.4201 42.3474 13.9955 43.9428 15.5768C45.5283 17.1484 48.0841 17.1484 49.6696 15.5768L58.298 6.94843C59.8865 5.35996 59.8865 2.78462 58.2981 1.19614Z" fill="#F3F4FF"/>
<path d="M52.5456 1.19599L48.2314 5.51018L53.9837 11.2625L58.2979 6.94829C59.8864 5.35981 59.8864 2.78447 58.2979 1.19599C56.7095 -0.39248 54.1341 -0.39248 52.5456 1.19599Z" fill="#0D9879"/>
<path d="M5.69038 20.4355H7.59116C5.6595 20.115 3.69122 20.7397 2.29811 22.1157C-0.0659756 24.4584 -0.0832621 28.2741 2.25947 30.638C3.18444 31.5715 4.3893 32.1769 5.69026 32.3622L5.69038 20.4355Z" fill="#0D9879"/>
<path d="M10.9257 22.1155C10.052 21.2484 8.93559 20.667 7.72412 20.448V32.3439C8.93546 32.1251 10.0519 31.5435 10.9257 30.6764C13.2898 28.3393 13.3116 24.5282 10.9744 22.1641C10.9583 22.1479 10.942 22.1317 10.9257 22.1155Z" fill="#FECA37"/>
<path d="M16.0828 9.82437L7.45439 1.19599C5.86592 -0.39248 3.29057 -0.39248 1.7021 1.19599C0.113624 2.78447 0.113624 5.35981 1.7021 6.94829L10.3305 15.5767C11.9189 17.1651 14.4943 17.1651 16.0828 15.5767C17.6712 13.9882 17.6712 11.4128 16.0828 9.82437Z" fill="#F3F4FF"/>
<path d="M1.7021 6.94829L6.01628 11.2625L11.7686 5.51018L7.45439 1.19599C5.86591 -0.39248 3.29057 -0.39248 1.7021 1.19599C0.113624 2.78447 0.113624 5.35981 1.7021 6.94829Z" fill="#FECD0D"/>
<path d="M56.8058 24.8333C55.4416 24.0147 53.6794 24.36 52.7248 25.6327L47.02 33.239C45.8866 34.7502 44.2103 35.7618 42.345 36.0603L22.8819 38.6457L36.2773 33.2668C37.1765 32.9372 37.764 32.0693 37.7359 31.1121C37.6762 29.9165 36.6585 28.9957 35.4629 29.0556C35.2837 29.0645 35.1064 29.0958 34.9349 29.1484L17.1328 34.623C14.9543 35.2454 13.1121 36.7078 12.0117 38.6884L8.64586 44.7469L3.56152 59.9999H18.8145L19.5795 53.88C19.7334 52.6487 20.5807 51.6151 21.7579 51.2227L47.6191 42.6023C49.3659 42.02 50.8274 40.7975 51.7093 39.1809L57.8582 29.1137C58.7519 27.6504 58.2902 25.7396 56.8269 24.8459C56.8198 24.8417 56.8128 24.8375 56.8058 24.8333Z" fill="#EFCB9A"/>
</g>
<defs>
<clipPath id="clip0_365_7346">
<rect width="60" height="60" fill="white"/>
</clipPath>
</defs>
</svg>
