<svg width="451" height="64" viewBox="0 0 451 64" fill="none" xmlns="http://www.w3.org/2000/svg">
<path fill-rule="evenodd" clip-rule="evenodd" d="M247.989 208.996C268.765 207.145 288.824 202.797 307.858 196.258C306.236 160.45 284.229 126.419 248.694 99.3864C208.348 68.6883 150.8 47.1213 85.5979 41.9422C61.0544 39.9931 37.2118 40.5135 14.6308 43.1904C11.2146 48.2235 7.97316 53.3873 4.91603 58.672C7.94243 58.8371 10.9803 59.0426 14.0278 59.2845C82.22 64.696 142.668 87.4574 185.277 119.865C218.176 144.892 240.557 175.736 247.989 208.996Z" fill="#0B8367"/>
<path fill-rule="evenodd" clip-rule="evenodd" d="M323.041 190.482C340.648 183.135 357.251 173.868 372.59 162.945C373.9 124.422 351.375 87.5173 313.381 58.6109C273.036 27.9205 215.484 6.35351 150.29 1.17444C111.922 -1.87116 75.2745 1.10723 42.5006 8.95363C37.1083 14.5187 31.9657 20.3295 27.0978 26.3708C46.3681 24.8576 66.3777 24.8288 86.8309 26.4534C155.021 31.8667 215.469 54.6186 258.077 87.0334C295.653 115.623 319.513 151.788 323.041 190.482Z" fill="#0B8367"/>
<path fill-rule="evenodd" clip-rule="evenodd" d="M252.465 8.08391C267.751 4.81938 283.672 2.4766 300.077 1.17463C338.447 -1.87098 375.094 1.10741 407.866 8.9538C413.26 14.5189 418.399 20.3297 423.271 26.371C404.003 24.8578 383.989 24.829 363.534 26.4536C343.912 28.0109 324.932 31.0047 306.831 35.2525C289.909 24.3528 271.568 15.3331 252.465 8.08391Z" fill="#0B8367"/>
<path fill-rule="evenodd" clip-rule="evenodd" d="M324.101 47.4375C337.244 44.9046 350.83 43.0458 364.765 41.9416C389.315 39.9925 413.157 40.5052 435.732 43.1898C439.149 48.2229 442.392 53.3866 445.451 58.6713C442.423 58.8365 439.385 59.0419 436.337 59.2839C407.072 61.6036 379.235 67.1303 353.618 75.234C344.777 64.9738 334.734 55.6622 324.101 47.4375Z" fill="#0B8367"/>
</svg>
