<svg width="40" height="40" viewBox="0 0 40 40" fill="none" xmlns="http://www.w3.org/2000/svg">
<circle cx="20" cy="20" r="19.75" stroke="#121218" stroke-width="0.5"/>
<path fill-rule="evenodd" clip-rule="evenodd" d="M20.0004 10.0013C17.2844 10.0013 16.9444 10.0126 15.8777 10.0613C14.813 10.11 14.0857 10.2793 13.4497 10.5266C12.783 10.7773 12.1784 11.1706 11.6784 11.68C11.1698 12.1794 10.7763 12.7836 10.525 13.4506C10.279 14.0866 10.109 14.8146 10.0604 15.8793C10.0124 16.9453 10.0004 17.2846 10.0004 20.0013C10.0004 22.718 10.0117 23.0573 10.0604 24.124C10.109 25.1886 10.2784 25.916 10.5257 26.552C10.7764 27.2186 11.1697 27.8233 11.679 28.3233C12.1785 28.8318 12.7827 29.2254 13.4497 29.4766C14.0857 29.7233 14.813 29.8926 15.8777 29.9413C16.9444 29.99 17.2844 30.0013 20.0004 30.0013C22.7164 30.0013 23.0564 29.99 24.123 29.9413C25.1877 29.8926 25.915 29.7233 26.551 29.476C27.2177 29.2253 27.8224 28.832 28.3224 28.3226C28.8309 27.8232 29.2245 27.219 29.4757 26.552C29.7224 25.916 29.8917 25.1886 29.9404 24.124C29.989 23.0573 30.0004 22.7173 30.0004 20.0013C30.0004 17.2853 29.989 16.9453 29.9404 15.8786C29.8917 14.814 29.7224 14.0866 29.475 13.4506C29.224 12.7834 28.8304 12.1789 28.3217 11.6793C27.8223 11.1708 27.218 10.7772 26.551 10.526C25.915 10.28 25.187 10.11 24.1224 10.0613C23.0564 10.0133 22.717 10.0013 20.0004 10.0013ZM20.0004 11.8033C22.6704 11.8033 22.987 11.8133 24.0417 11.8613C25.0164 11.906 25.5457 12.068 25.8984 12.206C26.365 12.3866 26.6984 12.604 27.0484 12.9533C27.3984 13.3033 27.615 13.6366 27.7957 14.1033C27.933 14.456 28.0957 14.9853 28.1404 15.96C28.1884 17.0146 28.1984 17.3313 28.1984 20.0013C28.1984 22.6713 28.1884 22.988 28.1404 24.0426C28.0957 25.0173 27.9337 25.5466 27.7957 25.8993C27.6357 26.3337 27.3803 26.7266 27.0484 27.0493C26.7258 27.3813 26.3328 27.6367 25.8984 27.7966C25.5457 27.934 25.0164 28.0966 24.0417 28.1413C22.987 28.1893 22.671 28.1993 20.0004 28.1993C17.3297 28.1993 17.0137 28.1893 15.959 28.1413C14.9844 28.0966 14.455 27.9346 14.1024 27.7966C13.668 27.6366 13.275 27.3812 12.9524 27.0493C12.6205 26.7266 12.3651 26.3337 12.205 25.8993C12.0677 25.5466 11.905 25.0173 11.8604 24.0426C11.8124 22.988 11.8024 22.6713 11.8024 20.0013C11.8024 17.3313 11.8124 17.0146 11.8604 15.96C11.905 14.9853 12.067 14.456 12.205 14.1033C12.3857 13.6366 12.603 13.3033 12.9524 12.9533C13.275 12.6213 13.668 12.366 14.1024 12.206C14.455 12.0686 14.9844 11.906 15.959 11.8613C17.0137 11.8133 17.3304 11.8033 20.0004 11.8033V11.8033Z" fill="#121218"/>
<path fill-rule="evenodd" clip-rule="evenodd" d="M20.0003 23.338C19.5622 23.338 19.1283 23.2517 18.7235 23.084C18.3186 22.9163 17.9508 22.6705 17.641 22.3607C17.3311 22.0509 17.0854 21.683 16.9177 21.2782C16.75 20.8734 16.6637 20.4395 16.6637 20.0013C16.6637 19.5631 16.75 19.1292 16.9177 18.7244C17.0854 18.3196 17.3311 17.9518 17.641 17.6419C17.9508 17.3321 18.3186 17.0863 18.7235 16.9186C19.1283 16.751 19.5622 16.6646 20.0003 16.6646C20.8853 16.6646 21.734 17.0162 22.3597 17.6419C22.9855 18.2677 23.337 19.1164 23.337 20.0013C23.337 20.8863 22.9855 21.7349 22.3597 22.3607C21.734 22.9864 20.8853 23.338 20.0003 23.338V23.338ZM20.0003 14.8613C18.6371 14.8613 17.3298 15.4028 16.3658 16.3668C15.4019 17.3307 14.8604 18.6381 14.8604 20.0013C14.8604 21.3645 15.4019 22.6719 16.3658 23.6358C17.3298 24.5998 18.6371 25.1413 20.0003 25.1413C21.3636 25.1413 22.6709 24.5998 23.6349 23.6358C24.5988 22.6719 25.1403 21.3645 25.1403 20.0013C25.1403 18.6381 24.5988 17.3307 23.6349 16.3668C22.6709 15.4028 21.3636 14.8613 20.0003 14.8613V14.8613ZM26.6357 14.768C26.6357 15.0902 26.5077 15.3993 26.2798 15.6271C26.052 15.855 25.7429 15.983 25.4207 15.983C25.0984 15.983 24.7894 15.855 24.5615 15.6271C24.3337 15.3993 24.2057 15.0902 24.2057 14.768C24.2057 14.4457 24.3337 14.1367 24.5615 13.9088C24.7894 13.681 25.0984 13.553 25.4207 13.553C25.7429 13.553 26.052 13.681 26.2798 13.9088C26.5077 14.1367 26.6357 14.4457 26.6357 14.768" fill="#121218"/>
</svg>
