<svg width="31" height="17" viewBox="0 0 31 17" fill="none" xmlns="http://www.w3.org/2000/svg">
<path d="M12.8565 0.199999C13.2405 0.199999 13.5525 0.327999 13.7925 0.584C14.0325 0.839999 14.1525 1.16 14.1525 1.544V15.536C14.1525 15.952 14.0085 16.304 13.7205 16.592C13.4485 16.864 13.1045 17 12.6885 17C12.4805 17 12.2645 16.968 12.0405 16.904C11.8325 16.824 11.6725 16.72 11.5605 16.592L2.1285 4.616L2.7525 4.232V15.656C2.7525 16.04 2.6245 16.36 2.3685 16.616C2.1285 16.872 1.8085 17 1.4085 17C1.0245 17 0.7125 16.872 0.4725 16.616C0.2325 16.36 0.1125 16.04 0.1125 15.656V1.664C0.1125 1.248 0.2485 0.903999 0.5205 0.631999C0.8085 0.343999 1.1605 0.199999 1.5765 0.199999C1.8005 0.199999 2.0325 0.247999 2.2725 0.344C2.5125 0.424 2.6885 0.552 2.8005 0.727999L11.9445 12.392L11.5365 12.68V1.544C11.5365 1.16 11.6565 0.839999 11.8965 0.584C12.1365 0.327999 12.4565 0.199999 12.8565 0.199999Z" fill="#00785D"/>
<path d="M25.2729 0.199999C26.8089 0.199999 27.9529 0.559999 28.7049 1.28C29.4569 2 29.8329 3.064 29.8329 4.472C29.8329 5.224 29.6489 5.888 29.2809 6.464C28.9129 7.024 28.3689 7.464 27.6489 7.784C26.9289 8.088 26.0409 8.24 24.9849 8.24L25.0809 7.16C25.5769 7.16 26.1449 7.232 26.7849 7.376C27.4249 7.504 28.0409 7.744 28.6329 8.096C29.2409 8.432 29.7369 8.912 30.1209 9.536C30.5209 10.144 30.7209 10.928 30.7209 11.888C30.7209 12.944 30.5449 13.808 30.1929 14.48C29.8569 15.152 29.4089 15.672 28.8489 16.04C28.2889 16.408 27.6889 16.664 27.0489 16.808C26.4089 16.936 25.7929 17 25.2009 17H19.2249C18.8089 17 18.4569 16.864 18.1689 16.592C17.8969 16.304 17.7609 15.952 17.7609 15.536V1.664C17.7609 1.248 17.8969 0.903999 18.1689 0.631999C18.4569 0.343999 18.8089 0.199999 19.2249 0.199999H25.2729ZM24.8409 3.032H20.5689L20.8809 2.648V6.992L20.5929 6.776H24.9129C25.3769 6.776 25.7929 6.624 26.1609 6.32C26.5289 6.016 26.7129 5.576 26.7129 5C26.7129 4.312 26.5369 3.816 26.1849 3.512C25.8489 3.192 25.4009 3.032 24.8409 3.032ZM25.0329 9.608H20.6649L20.8809 9.416V14.48L20.6409 14.24H25.2009C25.9369 14.24 26.5209 14.048 26.9529 13.664C27.3849 13.264 27.6009 12.672 27.6009 11.888C27.6009 11.168 27.4569 10.648 27.1689 10.328C26.8809 10.008 26.5369 9.808 26.1369 9.728C25.7369 9.648 25.3689 9.608 25.0329 9.608Z" fill="#FECA37"/>
</svg>
