<svg width="42" height="60" viewBox="0 0 42 60" fill="none" xmlns="http://www.w3.org/2000/svg">
<path d="M6.9375 55.3125L12.0591 45.0703C12.492 44.204 13.1577 43.4754 13.9815 42.9662C14.8053 42.457 15.7547 42.1874 16.7231 42.1875C18.1061 42.1875 19.4324 42.7369 20.4102 43.7148C21.3881 44.6926 21.9375 46.0189 21.9375 47.4019V55.3125H6.9375Z" fill="#0B8367"/>
<path d="M17.25 48.75C18.2855 48.75 19.125 47.9105 19.125 46.875C19.125 45.8395 18.2855 45 17.25 45C16.2145 45 15.375 45.8395 15.375 46.875C15.375 47.9105 16.2145 48.75 17.25 48.75Z" fill="#2B2B37"/>
<path d="M14.1843 28.125C14.3908 28.4825 14.4734 28.8982 14.4195 29.3075C14.3655 29.7168 14.178 30.0968 13.886 30.3887C13.594 30.6805 13.2139 30.8678 12.8046 30.9216C12.3952 30.9753 11.9796 30.8924 11.6222 30.6858C11.2648 30.4792 10.9856 30.1604 10.8278 29.7789C10.6701 29.3974 10.6427 28.9745 10.7498 28.5758C10.857 28.1771 11.0927 27.825 11.4205 27.5739C11.7482 27.3229 12.1496 27.1871 12.5625 27.1875C12.8914 27.1874 13.2145 27.274 13.4992 27.4386C13.784 27.6032 14.0203 27.8399 14.1843 28.125ZM13.5 17.8125C14.1654 17.8116 14.8096 18.047 15.3176 18.4769C15.8256 18.9067 16.1644 19.503 16.2736 20.1595C16.3829 20.8159 16.2554 21.4898 15.9139 22.061C15.5725 22.6322 15.0393 23.0635 14.4093 23.2781C14.1179 23.3841 13.8101 23.438 13.5 23.4375C12.754 23.4375 12.0387 23.1412 11.5112 22.6137C10.9838 22.0863 10.6875 21.3709 10.6875 20.625C10.6854 20.3224 10.7329 20.0216 10.8281 19.7344C11.043 19.0953 11.4784 18.5536 12.0562 18.2063C12.4946 17.9507 12.9925 17.8149 13.5 17.8125Z" fill="#2B2B37"/>
<path d="M34.125 44.0625L35.0625 46.875L26.625 50.625L25.6875 47.8125L34.125 44.0625ZM14.4094 23.2781L16.6594 28.125H14.1844C13.9776 27.7685 13.6591 27.4901 13.2781 27.3328C12.8972 27.1755 12.475 27.148 12.077 27.2548C11.6789 27.3615 11.3271 27.5964 11.0759 27.9232C10.8247 28.2499 10.6882 28.6504 10.6875 29.0625L9.51562 29.9438C8.71498 30.544 8.06515 31.3224 7.61765 32.2174C7.17015 33.1124 6.93728 34.0994 6.9375 35.1C6.9346 35.4899 6.96914 35.8792 7.04063 36.2625C7.3875 38.0906 8.70937 43.2938 12.5625 44.0625L12.6469 44.1469C12.4199 44.4327 12.2221 44.7405 12.0562 45.0656L9.75 49.6875C9.75 49.6875 0.375 45 0.375 31.875C0.375 24.375 6 19.6875 6 19.6875H10.6875L10.8281 19.7344C10.7329 20.0216 10.6854 20.3224 10.6875 20.625C10.6875 21.3709 10.9838 22.0863 11.5113 22.6137C12.0387 23.1412 12.7541 23.4375 13.5 23.4375C13.8101 23.438 14.1179 23.3841 14.4094 23.2781Z" fill="#EDF4FA"/>
<path d="M33.8061 38.6999C33.905 38.9103 33.9172 39.1511 33.84 39.3704C33.7628 39.5897 33.6024 39.7698 33.3936 39.8718L28.7061 42.103C28.6035 42.1522 28.4922 42.1802 28.3786 42.1856C28.2651 42.1909 28.1516 42.1733 28.0449 42.134C27.9383 42.0947 27.8406 42.0343 27.7577 41.9565C27.6748 41.8787 27.6084 41.7851 27.5623 41.6812L26.9248 40.2937L33.2061 37.3687L33.8061 38.6999Z" fill="#A8B7D4"/>
<path d="M33.2063 37.3689L26.9251 40.2939L22.8751 42.1877L21.647 39.1783L35.822 32.7939L36.9376 35.6252L33.2063 37.3689Z" fill="#0B8367"/>
<path d="M13.5281 0.9375L16.7531 7.89375L11.5688 10.3313L8.34375 3.375L13.5281 0.9375ZM24.8063 25.2937L28.0312 32.25L22.8469 34.6875L19.6219 27.7313L24.8063 25.2937ZM41.625 59.0625H4.125C4.12678 58.0681 4.52096 57.1147 5.22188 56.4094C5.70595 55.9329 6.30761 55.5933 6.96563 55.425C7.26284 55.3496 7.56836 55.3118 7.875 55.3125H37.875C38.8696 55.3125 39.8234 55.7076 40.5266 56.4109C41.2299 57.1141 41.625 58.0679 41.625 59.0625Z" fill="#393D48"/>
<path d="M14.4092 23.2783C15.0391 23.0637 15.5723 22.6324 15.9138 22.0612C16.2552 21.49 16.3827 20.8161 16.2735 20.1597C16.1643 19.5032 15.8254 18.9069 15.3174 18.4771C14.8094 18.0472 14.1653 17.8118 13.4998 17.8127C12.9924 17.8151 12.4945 17.9509 12.0561 18.2064L8.97168 11.5502L11.5686 10.3314L16.7529 7.89395L19.3404 6.68457L27.4029 24.0752L24.8061 25.2939L19.6217 27.7314L17.0342 28.9408L16.6592 28.1252L14.4092 23.2783Z" fill="#0B8367"/>
<path d="M14.2856 7.69855C13.8286 7.89443 13.3125 7.90077 12.8508 7.71617C12.3892 7.53156 12.0197 7.17115 11.8238 6.71418L10.0491 2.57324L8.34375 3.3748L11.5688 10.3311L16.7531 7.89355L16.2684 6.84918L14.2856 7.69855ZM23.5191 28.272L25.6875 27.1873L24.8063 25.2936L19.6219 27.7311L22.8469 34.6873L24.0966 34.0995L22.6341 30.687C22.4459 30.2475 22.4327 29.7527 22.5972 29.3038C22.7617 28.8549 23.0915 28.4858 23.5191 28.272Z" fill="#2B2B37"/>
<path d="M24.1792 23.0156C22.8327 23.6276 21.2994 23.6847 19.9111 23.1745C18.5228 22.6642 17.3914 21.6277 16.7617 20.2894L11.9805 10.1362L11.5661 10.3312L8.96924 11.55L12.0536 18.2062C12.4928 17.9502 12.9918 17.8144 13.5002 17.8125C14.1656 17.8115 14.8098 18.047 15.3178 18.4769C15.8258 18.9067 16.1646 19.503 16.2738 20.1595C16.3831 20.8159 16.2556 21.4898 15.9141 22.061C15.5727 22.6322 15.0395 23.0635 14.4096 23.2781L16.6596 28.125L17.0346 28.9406L19.6221 27.7312L24.8064 25.2937L27.4033 24.075L26.4377 21.989L24.1792 23.0156Z" fill="#00785D"/>
<path d="M20.0627 14.0624C19.8877 14.0634 19.7159 14.0153 19.5668 13.9237C19.4177 13.8321 19.2972 13.7005 19.2189 13.544L17.3439 9.79397C17.2328 9.57143 17.2146 9.31386 17.2934 9.07792C17.3721 8.84197 17.5414 8.64698 17.7639 8.53584C17.9865 8.4247 18.2441 8.40651 18.48 8.48527C18.7159 8.56404 18.9109 8.73331 19.0221 8.95584L20.8971 12.7058C20.9683 12.8485 21.0021 13.0069 20.995 13.1662C20.988 13.3254 20.9405 13.4803 20.857 13.6161C20.7735 13.7519 20.6567 13.8641 20.5177 13.9422C20.3787 14.0203 20.2221 14.0617 20.0627 14.0624Z" fill="#00785D"/>
<path d="M25.5629 39.0273C25.3431 39.1217 25.0954 39.1284 24.8708 39.0462C24.6461 38.9639 24.4614 38.7989 24.3545 38.5848L24.0995 38.0739L21.647 39.1783L22.8751 42.1876L26.9251 40.2939L33.2063 37.3689L36.9376 35.6251L36.3798 34.2104L25.5629 39.0273Z" fill="#00785D"/>
<path d="M30.2932 39.5155L33.5257 38.0783L33.2061 37.3687L26.9248 40.2937L27.5623 41.6812C27.6084 41.7851 27.6748 41.8787 27.7577 41.9565C27.8406 42.0343 27.9383 42.0947 28.0449 42.134C28.1516 42.1733 28.2651 42.1909 28.3786 42.1856C28.4922 42.1802 28.6035 42.1522 28.7061 42.103L29.2864 41.8265C29.1354 41.3851 29.1551 40.9032 29.3414 40.4756C29.5277 40.048 29.8672 39.7055 30.2932 39.5155Z" fill="#8698BA"/>
<path d="M29.4441 48.3307C29.3244 48.3838 29.195 48.4112 29.0642 48.4113C28.9333 48.4113 28.8039 48.384 28.6842 48.331C28.5646 48.278 28.4573 48.2006 28.3694 48.1037C28.2815 48.0067 28.2148 47.8925 28.1738 47.7682L27.8653 46.8429L25.6875 47.8123L26.625 50.6248L35.0625 46.8748L34.7597 45.9673L29.4441 48.3307Z" fill="#C1CFE8"/>
<path d="M13.5 22.5C14.5355 22.5 15.375 21.6605 15.375 20.625C15.375 19.5895 14.5355 18.75 13.5 18.75C12.4645 18.75 11.625 19.5895 11.625 20.625C11.625 21.6605 12.4645 22.5 13.5 22.5Z" fill="#8394B2"/>
<path d="M12.5625 30C13.0803 30 13.5 29.5803 13.5 29.0625C13.5 28.5447 13.0803 28.125 12.5625 28.125C12.0447 28.125 11.625 28.5447 11.625 29.0625C11.625 29.5803 12.0447 30 12.5625 30Z" fill="#8394B2"/>
<path d="M17.25 47.8125C17.7678 47.8125 18.1875 47.3928 18.1875 46.875C18.1875 46.3572 17.7678 45.9375 17.25 45.9375C16.7322 45.9375 16.3125 46.3572 16.3125 46.875C16.3125 47.3928 16.7322 47.8125 17.25 47.8125Z" fill="#8394B2"/>
<path d="M19.8553 53.4375H16.7316C13.7597 53.4375 11.7441 50.7188 12.8878 48.2456L14.8903 43.9181C15.1189 43.4572 15.4589 43.0605 15.8794 42.7641C16.2999 42.4676 16.7878 42.2807 17.2987 42.2203C17.1076 42.1989 16.9155 42.188 16.7231 42.1875C15.7547 42.1874 14.8053 42.457 13.9815 42.9662C13.1577 43.4754 12.492 44.204 12.0591 45.0703L6.9375 55.3125H21.9375V51.5625C21.9087 52.0868 21.6735 52.5783 21.2833 52.9296C20.8931 53.281 20.3797 53.4636 19.8553 53.4375Z" fill="#00785D"/>
<path d="M40.3978 56.3044C40.2304 56.5742 39.997 56.7969 39.7196 56.9515C39.4422 57.106 39.13 57.1872 38.8125 57.1875H10.6875C10.4389 57.1875 10.2004 57.0887 10.0246 56.9129C9.84877 56.7371 9.75 56.4987 9.75 56.25C9.75 56.0014 9.84877 55.7629 10.0246 55.5871C10.2004 55.4113 10.4389 55.3125 10.6875 55.3125H7.875C7.56836 55.3118 7.26284 55.3496 6.96563 55.425C6.30761 55.5933 5.70595 55.933 5.22188 56.4094C4.52096 57.1147 4.12678 58.0682 4.125 59.0625H41.625C41.6242 58.5426 41.5145 58.0286 41.3032 57.5536C41.0918 57.0786 40.7834 56.6531 40.3978 56.3044Z" fill="#2B2B37"/>
<path d="M14.4093 23.2781C14.1179 23.3841 13.8101 23.438 13.5 23.4375C12.754 23.4375 12.0387 23.1412 11.5112 22.6137C10.9838 22.0863 10.6875 21.3709 10.6875 20.625C10.6854 20.3224 10.7329 20.0216 10.8281 19.7344L10.6875 19.6875H5.99997L8.05122 23.7909C8.24298 24.1844 8.29173 24.6323 8.18908 25.0578C8.08643 25.4833 7.83879 25.8598 7.48872 26.1225C6.10497 27.1997 4.12497 29.4844 4.12497 33.75C4.09961 37.0903 5.12841 40.3535 7.06497 43.0753C7.28954 43.3899 7.41244 43.7657 7.41713 44.1521C7.42182 44.5386 7.30809 44.9173 7.09122 45.2372L6.05153 46.7981C7.13131 47.9425 8.37828 48.9167 9.74997 49.6875L12.0562 45.0656C12.222 44.7405 12.4199 44.4327 12.6468 44.1469L12.5625 44.0625C8.70934 43.2938 7.38747 38.0906 7.0406 36.2625C6.96911 35.8792 6.93457 35.4899 6.93747 35.1C6.93725 34.0994 7.17012 33.1124 7.61762 32.2174C8.06512 31.3224 8.71495 30.544 9.51559 29.9438L10.6875 29.0625C10.6882 28.6504 10.8247 28.2499 11.0759 27.9232C11.327 27.5964 11.6789 27.3615 12.0769 27.2548C12.475 27.148 12.8972 27.1755 13.2781 27.3328C13.659 27.4901 13.9775 27.7685 14.1843 28.125H16.6593L14.4093 23.2781ZM37.7934 31.9106C37.6911 31.6842 37.5031 31.5077 37.2707 31.4198C37.0383 31.3319 36.7806 31.3398 36.554 31.4419L18.7415 39.4612C18.5772 39.5349 18.4375 39.6544 18.3392 39.8053C18.241 39.9563 18.1883 40.1324 18.1875 40.3125V42.3994C18.8547 42.5944 19.4762 42.9208 20.0156 43.3594C20.0413 43.2836 20.0571 43.2048 20.0625 43.125V40.9181L37.3209 33.15C37.4333 33.0997 37.5348 33.0277 37.6194 32.9382C37.704 32.8487 37.7701 32.7433 37.814 32.6282C37.8579 32.5131 37.8786 32.3905 37.8751 32.2674C37.8716 32.1442 37.8438 32.023 37.7934 31.9106Z" fill="#C1CFE8"/>
<path d="M34.5056 44.9195C34.6181 44.8695 34.7197 44.7978 34.8046 44.7086C34.8894 44.6194 34.9558 44.5143 35 44.3994C35.0443 44.2845 35.0654 44.162 35.0623 44.0389C35.0592 43.9158 35.0319 43.7945 34.9819 43.682C34.9319 43.5695 34.8602 43.4679 34.771 43.383C34.6817 43.2982 34.5767 43.2318 34.4618 43.1876C34.3468 43.1433 34.2243 43.1222 34.1013 43.1253C33.9782 43.1284 33.8569 43.1557 33.7444 43.2057L21.9375 48.4529V50.5051L34.5056 44.9195Z" fill="#8394B2"/>
</svg>
