<svg width="32" height="32" viewBox="0 0 32 32" fill="none" xmlns="http://www.w3.org/2000/svg">
<path d="M10.2423 30.4C10.6861 30.4 11.1405 30.3974 11.6049 30.3974H20.3943C20.858 30.3974 21.3124 30.4 21.7562 30.4C25.8231 30.4 28.9306 30.192 28.9306 25.9405C28.9306 21.4905 25.5274 17.8374 21.1812 17.4403C21.1466 18.9971 16.001 22.839 16.001 22.839C16.001 22.839 10.8541 18.9974 10.8193 17.4406C6.47366 17.8374 3.06982 21.4905 3.06982 25.9405C3.06982 30.192 6.17606 30.4 10.2423 30.4ZM19.8401 24.5942C19.8401 24.4675 19.9543 24.3654 20.0964 24.3654H21.4865V22.976C21.4865 22.8352 21.5879 22.7197 21.7146 22.7197H23.0865C23.2125 22.7197 23.3146 22.8342 23.3146 22.976V24.3657H24.7041C24.8449 24.3657 24.9601 24.4678 24.9601 24.5945V25.9657C24.9601 26.0925 24.8458 26.1945 24.7041 26.1945H23.3143V27.584C23.3143 27.7254 23.2119 27.84 23.0855 27.84H21.7143C21.5876 27.84 21.4855 27.7257 21.4855 27.584V26.1942H20.0961C19.9546 26.1942 19.8397 26.0921 19.8397 25.9654L19.8401 24.5942Z" fill="#00785D"/>
<path d="M16.0027 18.5574C19.9336 18.5574 23.1198 12.6467 23.1198 8.71614C23.1198 4.78622 19.9336 1.59998 16.0027 1.59998C12.0725 1.59998 8.88623 4.78622 8.88623 8.71614C8.88623 12.6467 12.0725 18.5574 16.0027 18.5574Z" fill="#00785D"/>
</svg>
