<svg width="80" height="80" viewBox="0 0 80 80" fill="none" xmlns="http://www.w3.org/2000/svg">
<path d="M58.4335 25.9C58.2001 25.8667 57.9668 25.8667 57.7335 25.9C52.5668 25.7334 48.4668 21.5 48.4668 16.3C48.4668 11 52.7668 6.66669 58.1001 6.66669C63.4001 6.66669 67.7335 10.9667 67.7335 16.3C67.7001 21.5 63.6001 25.7334 58.4335 25.9Z" fill="#FECA37"/>
<path d="M69.3002 49.0001C65.5668 51.5001 60.3335 52.4334 55.5002 51.8001C56.7668 49.0667 57.4335 46.0335 57.4668 42.8335C57.4668 39.5001 56.7335 36.3335 55.3335 33.5668C60.2668 32.9001 65.5002 33.8334 69.2668 36.3334C74.5335 39.8001 74.5335 45.5001 69.3002 49.0001Z" fill="#FECA37"/>
<path d="M21.4665 25.9C21.6998 25.8667 21.9332 25.8667 22.1665 25.9C27.3332 25.7334 31.4332 21.5 31.4332 16.3C31.4332 11 27.1332 6.66669 21.7998 6.66669C16.4998 6.66669 12.1665 10.9667 12.1665 16.3C12.1998 21.5 16.2998 25.7334 21.4665 25.9Z" fill="#FECA37"/>
<path d="M21.8337 42.8333C21.8337 46.0666 22.5337 49.1333 23.8004 51.9C19.1004 52.4 14.2004 51.4 10.6004 49.0333C5.33372 45.5333 5.33372 39.8333 10.6004 36.3333C14.1671 33.9333 19.2004 32.9666 23.9337 33.5C22.5671 36.3 21.8337 39.4666 21.8337 42.8333Z" fill="#FECA37"/>
<path d="M40.3995 52.9C40.1328 52.8667 39.8328 52.8667 39.5328 52.9C33.3995 52.7 28.4995 47.6667 28.4995 41.4667C28.4995 35.1333 33.5995 30 39.9662 30C46.2995 30 51.4328 35.1333 51.4328 41.4667C51.4328 47.6667 46.5662 52.7 40.3995 52.9Z" fill="#00785D"/>
<path d="M29.566 59.8C24.5327 63.1667 24.5327 68.7 29.566 72.0334C35.2993 75.8667 44.6994 75.8667 50.4327 72.0334C55.466 68.6667 55.466 63.1334 50.4327 59.8C44.7327 55.9667 35.3327 55.9667 29.566 59.8Z" fill="#00785D"/>
</svg>
