<svg width="64" height="64" viewBox="0 0 64 64" fill="none" xmlns="http://www.w3.org/2000/svg">
<path d="M32.0002 5.33331C25.0135 5.33331 19.3335 11.0133 19.3335 18C19.3335 24.8533 24.6935 30.4 31.6802 30.64C31.8935 30.6133 32.1068 30.6133 32.2668 30.64C32.3202 30.64 32.3468 30.64 32.4002 30.64C32.4268 30.64 32.4268 30.64 32.4535 30.64C39.2802 30.4 44.6402 24.8533 44.6668 18C44.6668 11.0133 38.9868 5.33331 32.0002 5.33331Z" fill="#FECA37"/>
<path d="M45.5466 37.7333C38.1066 32.7733 25.9732 32.7733 18.4799 37.7333C15.0932 40 13.2266 43.0666 13.2266 46.3466C13.2266 49.6266 15.0932 52.6666 18.4532 54.9066C22.1866 57.4133 27.0932 58.6666 31.9999 58.6666C36.9066 58.6666 41.8132 57.4133 45.5466 54.9066C48.9066 52.64 50.7732 49.6 50.7732 46.2933C50.7466 43.0133 48.9066 39.9733 45.5466 37.7333Z" fill="#00785D"/>
</svg>
