<svg width="400" height="260" viewBox="0 0 400 260" fill="none" xmlns="http://www.w3.org/2000/svg">
<g clip-path="url(#clip0_112_21121)">
<rect width="400" height="260" fill="#00785D"/>
<path fill-rule="evenodd" clip-rule="evenodd" d="M451.481 219.128C448.452 227.409 444.482 235.124 439.73 242.181C425.286 237.6 413.797 224.891 406.647 207.423C398.527 187.59 396.017 161.732 401.036 134.541C402.925 124.306 405.746 114.627 409.31 105.7C411.739 104.856 414.202 104.097 416.694 103.427C416.431 104.681 416.182 105.944 415.948 107.215C410.696 135.652 413.377 162.824 421.948 183.769C428.567 199.941 438.713 212.454 451.481 219.128Z" fill="#0B8367"/>
<path fill-rule="evenodd" clip-rule="evenodd" d="M423.482 103.094C451.849 129.33 465.08 170.015 454.386 209.926C454.128 210.889 453.86 211.844 453.577 212.791C442.65 206.723 433.876 195.603 428.018 181.288C419.896 161.455 417.388 135.596 422.407 108.407C422.737 106.618 423.096 104.849 423.482 103.094Z" fill="#0B8367"/>
<path fill-rule="evenodd" clip-rule="evenodd" d="M435.71 247.749C430.784 254.134 425.183 259.9 419.045 264.968C403.171 261.288 390.567 248.053 382.92 229.376C374.803 209.544 372.293 183.684 377.311 156.497C380.266 140.497 385.491 125.859 392.281 113.334C395.144 111.742 398.079 110.277 401.078 108.951C398.352 116.654 396.151 124.821 394.577 133.351C389.326 161.787 392.003 188.959 400.577 209.903C408.14 228.375 420.296 242.075 435.71 247.749Z" fill="#0B8367"/>
<path fill-rule="evenodd" clip-rule="evenodd" d="M368.953 198.974C365.948 204.858 363.249 211.103 360.923 217.659C355.481 232.994 352.688 248.284 352.306 262.524C353.988 265.335 355.799 268.069 357.732 270.72C359.223 262.686 361.401 254.511 364.302 246.336C367.085 238.495 370.384 231.072 374.099 224.146C371.5 216.043 369.823 207.567 368.953 198.974Z" fill="#0B8367"/>
<path fill-rule="evenodd" clip-rule="evenodd" d="M377.185 232.531C374.713 237.62 372.467 242.964 370.491 248.534C367.01 258.345 364.61 268.137 363.237 277.648C364.918 279.594 366.672 281.483 368.495 283.311C368.894 282.092 369.31 280.874 369.742 279.656C373.891 267.96 379.194 257.198 385.305 247.625C382.083 242.892 379.38 237.772 377.185 232.531Z" fill="#0B8367"/>
<path fill-rule="evenodd" clip-rule="evenodd" d="M374.208 286.991C388.061 283.852 401.119 277.996 412.627 269.865C403.398 266.615 395.716 260.641 389.529 253.234C384.237 261.861 379.618 271.466 375.932 281.853C375.324 283.567 374.749 285.28 374.208 286.991Z" fill="#0B8367"/>
<path fill-rule="evenodd" clip-rule="evenodd" d="M-40.4572 37.7458C-37.4281 29.465 -33.4582 21.7497 -28.7057 14.6929C-14.2617 19.2733 -2.77336 31.9828 4.37671 49.4506C12.4974 69.2837 15.0074 95.1418 9.98831 122.332C8.09884 132.568 5.27769 142.246 1.71401 151.174C-0.71494 152.018 -3.1781 152.777 -5.67048 153.447C-5.40679 152.193 -5.15831 150.93 -4.92367 149.659C0.327688 121.222 -2.35282 94.0494 -10.9236 73.1048C-17.5435 56.933 -27.6893 44.4194 -40.4572 37.7458Z" fill="#0B8367"/>
<path fill-rule="evenodd" clip-rule="evenodd" d="M-12.4586 153.779C-40.8247 127.544 -54.0566 86.8591 -43.3622 46.9474C-43.1044 45.9853 -42.8359 45.0302 -42.5526 44.0825C-31.6261 50.1509 -22.8517 61.2709 -16.9941 75.5862C-8.87242 95.4187 -6.36359 121.278 -11.3829 148.466C-11.7127 150.255 -12.0716 152.025 -12.4586 153.779Z" fill="#0B8367"/>
<path fill-rule="evenodd" clip-rule="evenodd" d="M-24.6865 9.1251C-19.76 2.73936 -14.1593 -3.02616 -8.02092 -8.09463C7.8526 -4.4145 20.4573 8.821 28.1037 27.4975C36.2212 47.3298 38.7309 73.1895 33.7126 100.377C30.7583 116.377 25.5325 131.015 18.7428 143.539C15.8804 145.132 12.945 146.596 9.94554 147.923C12.6718 140.22 14.8729 132.053 16.4473 123.523C21.6977 95.0869 19.0211 67.915 10.447 46.9704C2.88432 28.4987 -9.27247 14.7991 -24.6865 9.1251Z" fill="#0B8367"/>
<path fill-rule="evenodd" clip-rule="evenodd" d="M42.0706 57.9C45.0761 52.0156 47.7747 45.7708 50.1012 39.2145C55.5429 23.8803 58.3364 8.59023 58.7181 -5.65004C57.0359 -8.46152 55.2254 -11.1956 53.2916 -13.8459C51.8013 -5.81247 49.6234 2.36278 46.722 10.5375C43.9392 18.3792 40.6401 25.8019 36.9252 32.7283C39.5244 40.8305 41.2007 49.3065 42.0706 57.9Z" fill="#0B8367"/>
<path fill-rule="evenodd" clip-rule="evenodd" d="M33.8391 24.3431C36.3113 19.2537 38.5569 13.9095 40.5325 8.33993C44.0143 -1.471 46.4136 -11.2627 47.7874 -20.7746C46.106 -22.7202 44.3523 -24.6096 42.5291 -26.4369C42.1304 -25.2184 41.7141 -24.0004 41.2819 -22.7825C37.1327 -11.0863 31.8303 -0.324369 25.7185 9.24915C28.9407 13.9818 31.6441 19.1016 33.8391 24.3431Z" fill="#0B8367"/>
<path fill-rule="evenodd" clip-rule="evenodd" d="M36.8164 -30.1177C22.9631 -26.9786 9.90452 -21.1221 -1.60284 -12.9909C7.62579 -9.74159 15.3081 -3.76678 21.4948 3.64022C26.7874 -4.98712 31.4057 -14.5919 35.0916 -24.9793C35.7004 -26.6928 36.2747 -28.4063 36.8164 -30.1177Z" fill="#0B8367"/>
</g>
<defs>
<clipPath id="clip0_112_21121">
<rect width="400" height="260" fill="white"/>
</clipPath>
</defs>
</svg>
