<svg width="64" height="64" viewBox="0 0 64 64" fill="none" xmlns="http://www.w3.org/2000/svg">
<path d="M24.0002 5.33331C17.0135 5.33331 11.3335 11.0133 11.3335 18C11.3335 24.8533 16.6935 30.4 23.6802 30.64C23.8935 30.6133 24.1068 30.6133 24.2668 30.64C24.3202 30.64 24.3468 30.64 24.4002 30.64C24.4268 30.64 24.4268 30.64 24.4535 30.64C31.2802 30.4 36.6402 24.8533 36.6668 18C36.6668 11.0133 30.9868 5.33331 24.0002 5.33331Z" fill="#FECA37"/>
<path d="M37.5466 37.7333C30.1066 32.7733 17.9732 32.7733 10.4799 37.7333C7.09323 40 5.22656 43.0666 5.22656 46.3466C5.22656 49.6266 7.09323 52.6666 10.4532 54.9066C14.1866 57.4133 19.0932 58.6666 23.9999 58.6666C28.9066 58.6666 33.8132 57.4133 37.5466 54.9066C40.9066 52.64 42.7732 49.6 42.7732 46.2933C42.7466 43.0133 40.9066 39.9733 37.5466 37.7333Z" fill="#00785D"/>
<path d="M53.3065 19.5733C53.7331 24.7467 50.0531 29.28 44.9598 29.8933C44.9331 29.8933 44.9331 29.8933 44.9065 29.8933H44.8265C44.6665 29.8933 44.5065 29.8933 44.3731 29.9467C41.7865 30.08 39.4131 29.2533 37.6265 27.7333C40.3731 25.28 41.9465 21.6 41.6265 17.6C41.4398 15.44 40.6931 13.4667 39.5731 11.7867C40.5865 11.28 41.7598 10.96 42.9598 10.8533C48.1865 10.4 52.8531 14.2933 53.3065 19.5733Z" fill="#FECA37"/>
<path d="M58.64 44.24C58.4266 46.8267 56.7733 49.0667 54 50.5867C51.3333 52.0533 47.9733 52.7467 44.64 52.6667C46.56 50.9333 47.68 48.7733 47.8933 46.48C48.16 43.1733 46.5866 40 43.44 37.4667C41.6533 36.0533 39.5733 34.9333 37.3066 34.1067C43.2 32.4 50.6133 33.5467 55.1733 37.2267C57.6266 39.2 58.88 41.68 58.64 44.24Z" fill="#00785D"/>
</svg>
