<svg width="140" height="200" viewBox="0 0 140 200" fill="none" xmlns="http://www.w3.org/2000/svg">
<path fill-rule="evenodd" clip-rule="evenodd" d="M167.08 131.958C162.372 144.83 156.2 156.824 148.812 167.793C126.359 160.673 108.5 140.916 97.3856 113.762C84.7621 82.9319 80.8602 42.7352 88.6624 0.467186C91.5996 -15.4433 95.9851 -30.4889 101.525 -44.3669C105.301 -45.6793 109.13 -46.8586 113.004 -47.9002C112.594 -45.9511 112.208 -43.9879 111.843 -42.0123C103.68 2.19306 107.847 44.4335 121.17 76.9919C131.461 102.131 147.232 121.584 167.08 131.958Z" fill="#0B8367"/>
<path fill-rule="evenodd" clip-rule="evenodd" d="M123.556 -48.4176C167.651 -7.63478 188.22 55.6105 171.596 117.653C171.195 119.149 170.778 120.634 170.337 122.107C153.352 112.674 139.712 95.3875 130.607 73.1342C117.981 42.3045 114.082 2.10572 121.884 -40.1583C122.397 -42.9395 122.955 -45.6902 123.556 -48.4176Z" fill="#0B8367"/>
<path fill-rule="evenodd" clip-rule="evenodd" d="M142.564 176.448C134.906 186.375 126.2 195.337 116.657 203.216C91.9819 197.496 72.3878 176.921 60.5014 147.888C47.8827 117.059 43.9815 76.8598 51.7824 34.5967C56.3748 9.72467 64.4984 -13.0306 75.0531 -32.4994C79.5026 -34.9756 84.0657 -37.2515 88.7284 -39.314C84.4904 -27.3395 81.0688 -14.6433 78.6213 -1.38425C70.4596 42.8202 74.6204 85.059 87.9489 117.618C99.7051 146.332 118.603 167.628 142.564 176.448Z" fill="#0B8367"/>
<path fill-rule="evenodd" clip-rule="evenodd" d="M38.7899 100.628C34.118 109.775 29.923 119.483 26.3064 129.674C17.8472 153.512 13.5047 177.28 12.9113 199.417C15.5263 203.787 18.3408 208.037 21.3469 212.157C23.6636 199.669 27.0492 186.961 31.5594 174.253C35.8852 162.063 41.0137 150.524 46.7886 139.757C42.7481 127.162 40.1423 113.986 38.7899 100.628Z" fill="#0B8367"/>
<path fill-rule="evenodd" clip-rule="evenodd" d="M51.5858 152.792C47.7428 160.703 44.2521 169.011 41.181 177.669C35.7685 192.92 32.0388 208.141 29.9032 222.928C32.5169 225.952 35.243 228.889 38.0772 231.73C38.6971 229.836 39.3442 227.942 40.0161 226.049C46.466 207.867 54.7086 191.138 64.2094 176.256C59.2004 168.899 54.998 160.94 51.5858 152.792Z" fill="#0B8367"/>
<path fill-rule="evenodd" clip-rule="evenodd" d="M46.9576 237.452C68.4926 232.572 88.7922 223.468 106.68 210.828C92.3345 205.777 80.3924 196.489 70.7751 184.975C62.5477 198.386 55.3685 213.317 49.6388 229.464C48.6925 232.128 47.7997 234.791 46.9576 237.452Z" fill="#0B8367"/>
</svg>
