<svg width="41" height="40" viewBox="0 0 41 40" fill="none" xmlns="http://www.w3.org/2000/svg">
<circle cx="20.667" cy="20" r="19.75" stroke="#121218" stroke-width="0.5"/>
<path d="M26.9371 14.1255C25.8809 13.4368 25.1185 12.335 24.8807 11.0505C24.8294 10.773 24.8011 10.4874 24.8011 10.1952H21.4301L21.4247 23.7049C21.3681 25.2178 20.1229 26.432 18.5965 26.432C18.1221 26.432 17.6754 26.3134 17.282 26.1064C16.3801 25.6318 15.7628 24.6864 15.7628 23.5984C15.7628 22.0358 17.0341 20.7646 18.5965 20.7646C18.8882 20.7646 19.1679 20.8127 19.4326 20.8956V17.4542C19.1587 17.4169 18.8804 17.3936 18.5965 17.3936C15.1752 17.3936 12.3918 20.1771 12.3918 23.5984C12.3918 25.6975 13.4406 27.5552 15.0407 28.6785C16.0485 29.386 17.2744 29.803 18.5965 29.803C22.0178 29.803 24.8011 27.0197 24.8011 23.5984V16.7478C26.1233 17.6967 27.7431 18.2559 29.491 18.2559V14.885C28.5495 14.885 27.6725 14.605 26.9371 14.1255Z" fill="#121218"/>
</svg>
