<svg width="60" height="60" viewBox="0 0 60 60" fill="none" xmlns="http://www.w3.org/2000/svg">
<g clip-path="url(#clip0_365_7223)">
<path d="M42.7842 4.14062L44.1308 2.79396L46.8242 5.48729L45.4775 6.83396L42.7842 4.14062Z" fill="#FFD064"/>
<path d="M43.4626 4.41526C43.9886 4.41526 44.415 3.98887 44.415 3.46288C44.415 2.93689 43.9886 2.5105 43.4626 2.5105C42.9366 2.5105 42.5103 2.93689 42.5103 3.46288C42.5103 3.98887 42.9366 4.41526 43.4626 4.41526Z" fill="#FFE07D"/>
<path d="M56.2651 14.907L54.9185 16.2537L52.2251 13.5603L53.5718 12.2136L56.2651 14.907Z" fill="#FFD064"/>
<path d="M55.5847 16.5371C56.1107 16.5371 56.5371 16.1107 56.5371 15.5847C56.5371 15.0587 56.1107 14.6323 55.5847 14.6323C55.0587 14.6323 54.6323 15.0587 54.6323 15.5847C54.6323 16.1107 55.0587 16.5371 55.5847 16.5371Z" fill="#FFE07D"/>
<path d="M44.1396 16.2642L42.793 14.9175L45.4863 12.2242L46.833 13.5708L44.1396 16.2642Z" fill="#FFD064"/>
<path d="M43.4626 16.5371C43.9886 16.5371 44.415 16.1107 44.415 15.5847C44.415 15.0587 43.9886 14.6323 43.4626 14.6323C42.9366 14.6323 42.5103 15.0587 42.5103 15.5847C42.5103 16.1107 42.9366 16.5371 43.4626 16.5371Z" fill="#FFE07D"/>
<path d="M54.9058 2.78345L56.2524 4.13012L53.5591 6.82346L52.2124 5.47679L54.9058 2.78345Z" fill="#FFD064"/>
<path d="M55.5847 4.41526C56.1107 4.41526 56.5371 3.98887 56.5371 3.46288C56.5371 2.93689 56.1107 2.5105 55.5847 2.5105C55.0587 2.5105 54.6323 2.93689 54.6323 3.46288C54.6323 3.98887 55.0587 4.41526 55.5847 4.41526Z" fill="#FFE07D"/>
<path d="M40.9521 10.4763V8.57155H44.7617V10.4763H40.9521Z" fill="#FFD064"/>
<path d="M40.9519 10.4763C41.4779 10.4763 41.9043 10.0499 41.9043 9.52392C41.9043 8.99793 41.4779 8.57153 40.9519 8.57153C40.4259 8.57153 39.9995 8.99793 39.9995 9.52392C39.9995 10.0499 40.4259 10.4763 40.9519 10.4763Z" fill="#FFE07D"/>
<path d="M58.0952 8.57153V10.4763H54.2857V8.57153H58.0952Z" fill="#FFD064"/>
<path d="M58.095 10.4763C58.6209 10.4763 59.0473 10.0499 59.0473 9.52392C59.0473 8.99793 58.6209 8.57153 58.095 8.57153C57.569 8.57153 57.1426 8.99793 57.1426 9.52392C57.1426 10.0499 57.569 10.4763 58.095 10.4763Z" fill="#FFE07D"/>
<path d="M50.4761 18.0952H48.5713V14.2857H50.4761V18.0952Z" fill="#FFD064"/>
<path d="M49.5237 19.0476C50.0497 19.0476 50.4761 18.6212 50.4761 18.0952C50.4761 17.5692 50.0497 17.1428 49.5237 17.1428C48.9977 17.1428 48.5713 17.5692 48.5713 18.0952C48.5713 18.6212 48.9977 19.0476 49.5237 19.0476Z" fill="#FFE07D"/>
<path d="M48.5713 0.952393H50.4761V4.76192H48.5713V0.952393Z" fill="#FFD064"/>
<path d="M49.5237 1.90477C50.0497 1.90477 50.4761 1.47837 50.4761 0.952383C50.4761 0.426396 50.0497 0 49.5237 0C48.9977 0 48.5713 0.426396 48.5713 0.952383C48.5713 1.47837 48.9977 1.90477 49.5237 1.90477Z" fill="#FFE07D"/>
<path d="M55.2381 9.52387C55.2381 10.7063 54.879 11.8048 54.2639 12.7163C53.2372 14.2377 51.4973 14.8243 49.5238 14.8243C46.3679 14.8243 44.4727 12.6797 44.4727 9.52387C44.4727 7.55031 44.81 5.81043 46.3314 4.78375C47.2429 4.16863 48.3414 3.80957 49.5238 3.80957C52.6798 3.80957 55.2381 6.36789 55.2381 9.52387Z" fill="#0D9879"/>
<path d="M51.0714 13.6904C47.9155 13.6904 45.3571 11.1321 45.3571 7.97611C45.3571 6.79369 45.7163 5.69518 46.3314 4.78369C44.81 5.81037 43.8096 7.55025 43.8096 9.52381C43.8096 12.6798 46.3679 15.2381 49.5239 15.2381C51.4974 15.2381 53.2373 14.2377 54.264 12.7162C53.3523 13.3312 52.2537 13.6904 51.0714 13.6904Z" fill="#00785D"/>
<path d="M10.8247 6.13135L9.17518 7.08373L6.79422 2.95991L8.44375 2.00753L10.8247 6.13135Z" fill="#FFD064"/>
<path d="M7.61889 3.43602C8.14487 3.43602 8.57127 3.00962 8.57127 2.48363C8.57127 1.95765 8.14487 1.53125 7.61889 1.53125C7.0929 1.53125 6.6665 1.95765 6.6665 2.48363C6.6665 3.00962 7.0929 3.43602 7.61889 3.43602Z" fill="#FFE07D"/>
<path d="M15.8413 18.6301L17.4908 17.6777L19.8718 21.8016L18.2223 22.7539L15.8413 18.6301Z" fill="#FFD064"/>
<path d="M19.0476 23.2307C19.5736 23.2307 20 22.8043 20 22.2783C20 21.7523 19.5736 21.3259 19.0476 21.3259C18.5216 21.3259 18.0952 21.7523 18.0952 22.2783C18.0952 22.8043 18.5216 23.2307 19.0476 23.2307Z" fill="#FFE07D"/>
<path d="M19.5825 9.87305L18.6301 8.22352L22.754 5.84256L23.7063 7.49209L19.5825 9.87305Z" fill="#FFD064"/>
<path d="M23.2307 7.61912C23.7567 7.61912 24.1831 7.19272 24.1831 6.66674C24.1831 6.14075 23.7567 5.71436 23.2307 5.71436C22.7047 5.71436 22.2783 6.14075 22.2783 6.66674C22.2783 7.19272 22.7047 7.61912 23.2307 7.61912Z" fill="#FFE07D"/>
<path d="M7.0835 14.8894L8.03588 16.5389L3.91206 18.9199L2.95968 17.2704L7.0835 14.8894Z" fill="#FFD064"/>
<path d="M3.43578 19.0476C3.96177 19.0476 4.38816 18.6212 4.38816 18.0952C4.38816 17.5692 3.96177 17.1428 3.43578 17.1428C2.90979 17.1428 2.4834 17.5692 2.4834 18.0952C2.4834 18.6212 2.90979 19.0476 3.43578 19.0476Z" fill="#FFE07D"/>
<path d="M18.2222 2.00732L19.8717 2.95971L17.4907 7.08352L15.8412 6.13114L18.2222 2.00732Z" fill="#FFD064"/>
<path d="M19.0476 3.43602C19.5736 3.43602 20 3.00962 20 2.48363C20 1.95765 19.5736 1.53125 19.0476 1.53125C18.5216 1.53125 18.0952 1.95765 18.0952 2.48363C18.0952 3.00962 18.5216 3.43602 19.0476 3.43602Z" fill="#FFE07D"/>
<path d="M8.44385 22.7551L6.79432 21.8027L9.17528 17.6789L10.8248 18.6313L8.44385 22.7551Z" fill="#FFD064"/>
<path d="M7.61889 23.2307C8.14487 23.2307 8.57127 22.8043 8.57127 22.2783C8.57127 21.7523 8.14487 21.3259 7.61889 21.3259C7.0929 21.3259 6.6665 21.7523 6.6665 22.2783C6.6665 22.8043 7.0929 23.2307 7.61889 23.2307Z" fill="#FFE07D"/>
<path d="M2.95947 7.4917L3.91186 5.84217L8.03567 8.22313L7.08329 9.87266L2.95947 7.4917Z" fill="#FFD064"/>
<path d="M3.43578 7.61912C3.96177 7.61912 4.38816 7.19272 4.38816 6.66674C4.38816 6.14075 3.96177 5.71436 3.43578 5.71436C2.90979 5.71436 2.4834 6.14075 2.4834 6.66674C2.4834 7.19272 2.90979 7.61912 3.43578 7.61912Z" fill="#FFE07D"/>
<path d="M23.707 17.2698L22.7546 18.9193L18.6308 16.5383L19.5832 14.8888L23.707 17.2698Z" fill="#FFD064"/>
<path d="M23.2307 19.0476C23.7567 19.0476 24.1831 18.6212 24.1831 18.0952C24.1831 17.5692 23.7567 17.1428 23.2307 17.1428C22.7047 17.1428 22.2783 17.5692 22.2783 18.0952C22.2783 18.6212 22.7047 19.0476 23.2307 19.0476Z" fill="#FFE07D"/>
<path d="M24.7617 11.4287V13.3335H19.9998V11.4287H24.7617Z" fill="#FFD064"/>
<path d="M24.762 13.3335C25.2879 13.3335 25.7143 12.9071 25.7143 12.3811C25.7143 11.8551 25.2879 11.4287 24.762 11.4287C24.236 11.4287 23.8096 11.8551 23.8096 12.3811C23.8096 12.9071 24.236 13.3335 24.762 13.3335Z" fill="#FFE07D"/>
<path d="M1.9043 13.3333V11.4285H6.66621V13.3333H1.9043Z" fill="#FFD064"/>
<path d="M1.90453 13.3335C2.43052 13.3335 2.85691 12.9071 2.85691 12.3811C2.85691 11.8551 2.43052 11.4287 1.90453 11.4287C1.37854 11.4287 0.952148 11.8551 0.952148 12.3811C0.952148 12.9071 1.37854 13.3335 1.90453 13.3335Z" fill="#FFE07D"/>
<path d="M12.3809 0.952393H14.2856V5.71431H12.3809V0.952393Z" fill="#FFD064"/>
<path d="M13.3332 1.90477C13.8592 1.90477 14.2856 1.47837 14.2856 0.952383C14.2856 0.426396 13.8592 0 13.3332 0C12.8073 0 12.3809 0.426396 12.3809 0.952383C12.3809 1.47837 12.8073 1.90477 13.3332 1.90477Z" fill="#FFE07D"/>
<path d="M14.2856 23.8096H12.3809V19.0477H14.2856V23.8096Z" fill="#FFD064"/>
<path d="M13.3332 24.7619C13.8592 24.7619 14.2856 24.3355 14.2856 23.8096C14.2856 23.2836 13.8592 22.8572 13.3332 22.8572C12.8073 22.8572 12.3809 23.2836 12.3809 23.8096C12.3809 24.3355 12.8073 24.7619 13.3332 24.7619Z" fill="#FFE07D"/>
<path d="M20.9524 12.3809C20.9524 14.0583 20.4104 15.6091 19.4919 16.8677C18.1063 18.7663 15.8639 19.6288 13.3334 19.6288C9.12551 19.6288 6.21094 16.5888 6.21094 12.3809C6.21094 9.85188 6.94641 7.61067 8.8432 6.22493C10.1024 5.30489 11.6544 4.76196 13.3334 4.76196C17.5412 4.76185 20.9524 8.17306 20.9524 12.3809Z" fill="#0D9879"/>
<path d="M14.9996 18.3333C10.7917 18.3333 7.38051 14.922 7.38051 10.7142C7.38051 9.03583 7.92332 7.4838 8.84277 6.22485C6.94539 7.6106 5.71387 9.85134 5.71387 12.3808C5.71387 16.5887 9.12508 19.9999 13.3329 19.9999C15.8624 19.9999 18.1056 18.765 19.4915 16.8676C18.2324 17.787 16.6779 18.3333 14.9996 18.3333Z" fill="#00785D"/>
<path d="M32.2793 29.9136C31.8589 29.9136 31.4738 29.6327 31.3604 29.2072L30.6209 26.4477C30.4851 25.9399 30.7865 25.4176 31.2943 25.2814C31.8011 25.1461 32.3249 25.447 32.4606 25.9548L33.2 28.7143C33.3358 29.2221 33.0344 29.7444 32.5266 29.8806C32.4439 29.903 32.3612 29.9136 32.2793 29.9136Z" fill="#C3DDFF"/>
<path d="M38.9341 54.7517C38.5137 54.7517 38.1286 54.4708 38.0152 54.0453L37.2757 51.2857C37.1399 50.778 37.4413 50.2557 37.9491 50.1195C38.4559 49.9837 38.9796 50.2851 39.1153 50.7928L39.8548 53.5524C39.9906 54.0601 39.6892 54.5824 39.1814 54.7186C39.0987 54.741 39.0158 54.7517 38.9341 54.7517Z" fill="#C3DDFF"/>
<path d="M46.2757 37.995C45.8553 37.995 45.4702 37.7141 45.3568 37.2886C45.221 36.7803 45.5224 36.258 46.0301 36.1223L48.7906 35.3829C49.3003 35.248 49.8221 35.548 49.9569 36.0562C50.0927 36.5645 49.7913 37.0868 49.2835 37.2225L46.523 37.9619C46.4403 37.9843 46.3574 37.995 46.2757 37.995Z" fill="#C3DDFF"/>
<path d="M21.4378 44.6505C21.0174 44.6505 20.6323 44.3696 20.5189 43.9441C20.3831 43.4359 20.6845 42.9136 21.1923 42.7779L23.9527 42.0384C24.4624 41.9026 24.9833 42.204 25.119 42.7118C25.2548 43.22 24.9534 43.7423 24.4456 43.878L21.6851 44.6175C21.6023 44.6399 21.5196 44.6505 21.4378 44.6505Z" fill="#C3DDFF"/>
<path d="M24.2001 37.9951C24.1183 37.9951 24.0355 37.9844 23.9527 37.962L21.1923 37.2226C20.6845 37.0867 20.3831 36.5645 20.5189 36.0563C20.6547 35.5481 21.1783 35.2485 21.6851 35.3829L24.4456 36.1224C24.9534 36.2582 25.2548 36.7804 25.119 37.2886C25.0055 37.7142 24.6205 37.9951 24.2001 37.9951Z" fill="#C3DDFF"/>
<path d="M49.038 44.6506C48.9562 44.6506 48.8733 44.64 48.7906 44.6176L46.0301 43.8781C45.5224 43.7423 45.221 43.2201 45.3568 42.7119C45.4926 42.2041 46.0162 41.9032 46.523 42.0385L49.2835 42.778C49.7913 42.9138 50.0927 43.436 49.9569 43.9442C49.8434 44.3697 49.4585 44.6506 49.038 44.6506Z" fill="#C3DDFF"/>
<path d="M38.1965 29.9137C38.1147 29.9137 38.0318 29.903 37.9491 29.8807C37.4413 29.7444 37.1399 29.2222 37.2757 28.7144L38.0152 25.9549C38.151 25.4471 38.6737 25.1466 39.1814 25.2815C39.6892 25.4178 39.9906 25.94 39.8548 26.4478L39.1153 29.2073C39.0019 29.6328 38.6169 29.9137 38.1965 29.9137Z" fill="#C3DDFF"/>
<path d="M31.5422 54.7518C31.4604 54.7518 31.3775 54.7411 31.2948 54.7187C30.787 54.5824 30.4856 54.0602 30.6214 53.5525L31.3609 50.7929C31.4967 50.2852 32.0194 49.9842 32.5271 50.1196C33.0349 50.2559 33.3363 50.778 33.2005 51.2858L32.461 54.0453C32.3476 54.4709 31.9625 54.7518 31.5422 54.7518Z" fill="#C3DDFF"/>
<path d="M43.3191 32.8712C43.0755 32.8712 42.8317 32.7781 42.6458 32.5921C42.2737 32.2201 42.2737 31.6175 42.6458 31.2454L44.6658 29.2253C45.0379 28.8533 45.6405 28.8533 46.0126 29.2253C46.3846 29.5974 46.3846 30.2 46.0126 30.5721L43.9925 32.5921C43.8064 32.7781 43.5627 32.8712 43.3191 32.8712Z" fill="#C3DDFF"/>
<path d="M25.1365 51.0538C24.8929 51.0538 24.6491 50.9607 24.4631 50.7748C24.0911 50.4027 24.0911 49.8001 24.4631 49.428L26.4832 47.408C26.8553 47.0359 27.4579 47.0359 27.8299 47.408C28.202 47.78 28.202 48.3826 27.8299 48.7547L25.8099 50.7748C25.6239 50.9607 25.3801 51.0538 25.1365 51.0538Z" fill="#C3DDFF"/>
<path d="M27.1566 32.8712C26.9129 32.8712 26.6692 32.7781 26.4832 32.5921L24.4631 30.5721C24.0911 30.2 24.0911 29.5974 24.4631 29.2253C24.8352 28.8533 25.4378 28.8533 25.8099 29.2253L27.8299 31.2454C28.202 31.6175 28.202 32.2201 27.8299 32.5921C27.644 32.7781 27.4002 32.8712 27.1566 32.8712Z" fill="#C3DDFF"/>
<path d="M45.3392 51.0538C45.0956 51.0538 44.8518 50.9607 44.6658 50.7748L42.6458 48.7547C42.2737 48.3826 42.2737 47.78 42.6458 47.408C43.0178 47.0359 43.6204 47.0359 43.9925 47.408L46.0126 49.428C46.3846 49.8001 46.3846 50.4027 46.0126 50.7748C45.8266 50.9607 45.5828 51.0538 45.3392 51.0538Z" fill="#C3DDFF"/>
<path d="M30.3491 29.627L28.6996 30.5793L25.8424 25.6308L27.492 24.6784L30.3491 29.627Z" fill="#FFD064"/>
<path d="M44.6353 54.3713L42.9857 55.3237L40.1286 50.3751L41.7781 49.4228L44.6353 54.3713Z" fill="#FFD064"/>
<path d="M44.2856 57.5756C45.3376 57.5756 46.1904 56.7229 46.1904 55.6709C46.1904 54.6189 45.3376 53.7661 44.2856 53.7661C43.2337 53.7661 42.3809 54.6189 42.3809 55.6709C42.3809 56.7229 43.2337 57.5756 44.2856 57.5756Z" fill="#FFE07D"/>
<path d="M26.1904 26.2338C27.2424 26.2338 28.0952 25.3811 28.0952 24.3291C28.0952 23.2771 27.2424 22.4243 26.1904 22.4243C25.1384 22.4243 24.2856 23.2771 24.2856 24.3291C24.2856 25.3811 25.1384 26.2338 26.1904 26.2338Z" fill="#FFE07D"/>
<path d="M45.6108 35.1118L44.6585 33.4623L49.607 30.6051L50.5594 32.2547L45.6108 35.1118Z" fill="#FFD064"/>
<path d="M20.8667 49.3967L19.9143 47.7472L24.8629 44.8901L25.8153 46.5396L20.8667 49.3967Z" fill="#FFD064"/>
<path d="M19.5669 50.9524C20.6188 50.9524 21.4716 50.0996 21.4716 49.0476C21.4716 47.9956 20.6188 47.1428 19.5669 47.1428C18.5149 47.1428 17.6621 47.9956 17.6621 49.0476C17.6621 50.0996 18.5149 50.9524 19.5669 50.9524Z" fill="#FFE07D"/>
<path d="M50.9087 32.8571C51.9606 32.8571 52.8134 32.0043 52.8134 30.9524C52.8134 29.9004 51.9606 29.0476 50.9087 29.0476C49.8567 29.0476 49.0039 29.9004 49.0039 30.9524C49.0039 32.0043 49.8567 32.8571 50.9087 32.8571Z" fill="#FFE07D"/>
<path d="M42.9834 24.677L44.6329 25.6294L41.7758 30.578L40.1263 29.6256L42.9834 24.677Z" fill="#FFD064"/>
<path d="M28.6982 49.4199L30.3478 50.3723L27.4906 55.3209L25.8411 54.3685L28.6982 49.4199Z" fill="#FFD064"/>
<path d="M26.1904 57.5756C27.2424 57.5756 28.0952 56.7229 28.0952 55.6709C28.0952 54.6189 27.2424 53.7661 26.1904 53.7661C25.1384 53.7661 24.2856 54.6189 24.2856 55.6709C24.2856 56.7229 25.1384 57.5756 26.1904 57.5756Z" fill="#FFE07D"/>
<path d="M44.2856 26.2338C45.3376 26.2338 46.1904 25.3811 46.1904 24.3291C46.1904 23.2771 45.3376 22.4243 44.2856 22.4243C43.2337 22.4243 42.3809 23.2771 42.3809 24.3291C42.3809 25.3811 43.2337 26.2338 44.2856 26.2338Z" fill="#FFE07D"/>
<path d="M19.9146 32.2539L20.8669 30.6044L25.8155 33.4615L24.8631 35.1111L19.9146 32.2539Z" fill="#FFD064"/>
<path d="M44.6582 46.5403L45.6106 44.8908L50.5592 47.7479L49.6068 49.3974L44.6582 46.5403Z" fill="#FFD064"/>
<path d="M50.9087 50.9524C51.9606 50.9524 52.8134 50.0996 52.8134 49.0476C52.8134 47.9956 51.9606 47.1428 50.9087 47.1428C49.8567 47.1428 49.0039 47.9956 49.0039 49.0476C49.0039 50.0996 49.8567 50.9524 50.9087 50.9524Z" fill="#FFE07D"/>
<path d="M19.5669 32.8571C20.6188 32.8571 21.4716 32.0043 21.4716 30.9524C21.4716 29.9004 20.6188 29.0476 19.5669 29.0476C18.5149 29.0476 17.6621 29.9004 17.6621 30.9524C17.6621 32.0043 18.5149 32.8571 19.5669 32.8571Z" fill="#FFE07D"/>
<path d="M52.3809 39.0476V40.9524H46.6666V39.0476H52.3809Z" fill="#FFD064"/>
<path d="M23.8096 39.0476V40.9524H18.0953V39.0476H23.8096Z" fill="#FFD064"/>
<path d="M17.1426 41.9047C18.1945 41.9047 19.0473 41.052 19.0473 40C19.0473 38.948 18.1945 38.0952 17.1426 38.0952C16.0906 38.0952 15.2378 38.948 15.2378 40C15.2378 41.052 16.0906 41.9047 17.1426 41.9047Z" fill="#FFE07D"/>
<path d="M53.333 41.9047C54.385 41.9047 55.2378 41.052 55.2378 40C55.2378 38.948 54.385 38.0952 53.333 38.0952C52.281 38.0952 51.4282 38.948 51.4282 40C51.4282 41.052 52.281 41.9047 53.333 41.9047Z" fill="#FFE07D"/>
<path d="M34.2856 22.8572H36.1904V28.5715H34.2856V22.8572Z" fill="#FFD064"/>
<path d="M34.2856 51.4285H36.1904V57.1428H34.2856V51.4285Z" fill="#FFD064"/>
<path d="M23.4961 39.9999C23.4961 36.0957 24.6643 32.6135 27.4877 30.3442C29.6092 28.6391 32.3045 27.6189 35.238 27.6189C42.0758 27.6189 47.619 33.162 47.619 39.9999C47.619 42.933 46.5991 45.6278 44.8945 47.7491C42.6253 50.5732 39.1427 51.8261 35.238 51.8261C28.4003 51.8261 23.4961 46.8378 23.4961 39.9999Z" fill="#0D9879"/>
<path d="M37.1427 50.4761C30.3049 50.4761 24.7617 44.9329 24.7617 38.0951C24.7617 35.1617 25.7826 32.4658 27.4875 30.3442C24.6638 32.6135 22.8569 36.0956 22.8569 39.9999C22.8569 46.8377 28.4001 52.3809 35.2379 52.3809C39.1422 52.3809 42.6252 50.5728 44.8944 47.7492C42.773 49.4541 40.0762 50.4761 37.1427 50.4761Z" fill="#00785D"/>
<path d="M35.2378 60C36.2897 60 37.1425 59.1472 37.1425 58.0952C37.1425 57.0432 36.2897 56.1904 35.2378 56.1904C34.1858 56.1904 33.333 57.0432 33.333 58.0952C33.333 59.1472 34.1858 60 35.2378 60Z" fill="#FFE07D"/>
<path d="M35.2378 23.8095C36.2897 23.8095 37.1425 22.9567 37.1425 21.9048C37.1425 20.8528 36.2897 20 35.2378 20C34.1858 20 33.333 20.8528 33.333 21.9048C33.333 22.9567 34.1858 23.8095 35.2378 23.8095Z" fill="#FFE07D"/>
<path d="M39.9995 37.1428C41.0515 37.1428 41.9043 36.29 41.9043 35.238C41.9043 34.186 41.0515 33.3333 39.9995 33.3333C38.9475 33.3333 38.0947 34.186 38.0947 35.238C38.0947 36.29 38.9475 37.1428 39.9995 37.1428Z" fill="#FFE07D"/>
<path d="M35.2378 41.9047C36.2897 41.9047 37.1425 41.052 37.1425 40C37.1425 38.948 36.2897 38.0952 35.2378 38.0952C34.1858 38.0952 33.333 38.948 33.333 40C33.333 41.052 34.1858 41.9047 35.2378 41.9047Z" fill="#FFE07D"/>
<path d="M13.3332 10.4763C12.8068 10.4763 12.3809 10.0498 12.3809 9.52391V8.57152C12.3809 8.04559 12.8068 7.61914 13.3332 7.61914C13.8596 7.61914 14.2856 8.04559 14.2856 8.57152V9.52391C14.2856 10.0498 13.8596 10.4763 13.3332 10.4763Z" fill="#FFE07D"/>
<path d="M13.3332 17.1428C12.8068 17.1428 12.3809 16.7163 12.3809 16.1904V15.238C12.3809 14.7121 12.8068 14.2856 13.3332 14.2856C13.8596 14.2856 14.2856 14.7121 14.2856 15.238V16.1904C14.2856 16.7163 13.8596 17.1428 13.3332 17.1428Z" fill="#FFE07D"/>
<path d="M17.1426 13.3335H16.1902C15.6638 13.3335 15.2378 12.907 15.2378 12.3811C15.2378 11.8552 15.6638 11.4287 16.1902 11.4287H17.1426C17.669 11.4287 18.0949 11.8552 18.0949 12.3811C18.0949 12.907 17.669 13.3335 17.1426 13.3335Z" fill="#FFE07D"/>
<path d="M10.4761 13.3335H9.52367C8.99727 13.3335 8.57129 12.907 8.57129 12.3811C8.57129 11.8552 8.99727 11.4287 9.52367 11.4287H10.4761C11.0025 11.4287 11.4284 11.8552 11.4284 12.3811C11.4284 12.907 11.0025 13.3335 10.4761 13.3335Z" fill="#FFE07D"/>
<path d="M30.4761 37.1428C31.528 37.1428 32.3808 36.29 32.3808 35.238C32.3808 34.186 31.528 33.3333 30.4761 33.3333C29.4241 33.3333 28.5713 34.186 28.5713 35.238C28.5713 36.29 29.4241 37.1428 30.4761 37.1428Z" fill="#FFE07D"/>
<path d="M39.9995 46.6667C41.0515 46.6667 41.9043 45.8139 41.9043 44.7619C41.9043 43.71 41.0515 42.8572 39.9995 42.8572C38.9475 42.8572 38.0947 43.71 38.0947 44.7619C38.0947 45.8139 38.9475 46.6667 39.9995 46.6667Z" fill="#FFE07D"/>
<path d="M30.4761 46.6667C31.528 46.6667 32.3808 45.8139 32.3808 44.7619C32.3808 43.71 31.528 42.8572 30.4761 42.8572C29.4241 42.8572 28.5713 43.71 28.5713 44.7619C28.5713 45.8139 29.4241 46.6667 30.4761 46.6667Z" fill="#FFE07D"/>
<path d="M35.238 32.3808C35.764 32.3808 36.1904 31.9544 36.1904 31.4285C36.1904 30.9025 35.764 30.4761 35.238 30.4761C34.712 30.4761 34.2856 30.9025 34.2856 31.4285C34.2856 31.9544 34.712 32.3808 35.238 32.3808Z" fill="#C3DDFF"/>
<path d="M35.238 49.5239C35.764 49.5239 36.1904 49.0975 36.1904 48.5715C36.1904 48.0455 35.764 47.6191 35.238 47.6191C34.712 47.6191 34.2856 48.0455 34.2856 48.5715C34.2856 49.0975 34.712 49.5239 35.238 49.5239Z" fill="#C3DDFF"/>
<path d="M43.8093 40.9524C44.3353 40.9524 44.7617 40.526 44.7617 40C44.7617 39.474 44.3353 39.0476 43.8093 39.0476C43.2833 39.0476 42.8569 39.474 42.8569 40C42.8569 40.526 43.2833 40.9524 43.8093 40.9524Z" fill="#C3DDFF"/>
<path d="M26.6662 40.9524C27.1922 40.9524 27.6186 40.526 27.6186 40C27.6186 39.474 27.1922 39.0476 26.6662 39.0476C26.1403 39.0476 25.7139 39.474 25.7139 40C25.7139 40.526 26.1403 40.9524 26.6662 40.9524Z" fill="#C3DDFF"/>
<path d="M51.4285 9.52391C51.9544 9.52391 52.3808 9.09751 52.3808 8.57152C52.3808 8.04554 51.9544 7.61914 51.4285 7.61914C50.9025 7.61914 50.4761 8.04554 50.4761 8.57152C50.4761 9.09751 50.9025 9.52391 51.4285 9.52391Z" fill="#FFE07D"/>
<path d="M47.6189 9.52391C48.1449 9.52391 48.5713 9.09751 48.5713 8.57152C48.5713 8.04554 48.1449 7.61914 47.6189 7.61914C47.0929 7.61914 46.6665 8.04554 46.6665 8.57152C46.6665 9.09751 47.0929 9.52391 47.6189 9.52391Z" fill="#FFE07D"/>
<path d="M49.5237 12.3811C50.0497 12.3811 50.4761 11.9547 50.4761 11.4287C50.4761 10.9027 50.0497 10.4763 49.5237 10.4763C48.9977 10.4763 48.5713 10.9027 48.5713 11.4287C48.5713 11.9547 48.9977 12.3811 49.5237 12.3811Z" fill="#FFE07D"/>
</g>
<defs>
<clipPath id="clip0_365_7223">
<rect width="60" height="60" fill="white"/>
</clipPath>
</defs>
</svg>
