<svg width="41" height="40" viewBox="0 0 41 40" fill="none" xmlns="http://www.w3.org/2000/svg">
<circle cx="20.333" cy="20" r="19.75" stroke="#121218" stroke-width="0.5"/>
<path fill-rule="evenodd" clip-rule="evenodd" d="M28.9911 12.6843C29.9467 12.941 30.7027 13.697 30.9594 14.6526C31.4301 16.3928 31.4444 20.0014 31.4444 20.0014C31.4444 20.0014 31.4444 23.6243 30.9737 25.3501C30.717 26.3058 29.961 27.0617 29.0054 27.3185C27.2795 27.7891 20.3333 27.7891 20.3333 27.7891C20.3333 27.7891 13.3871 27.7891 11.6612 27.3185C10.7056 27.0617 9.9496 26.3058 9.69286 25.3501C9.22217 23.61 9.22217 20.0014 9.22217 20.0014C9.22217 20.0014 9.22217 16.3928 9.67859 14.6669C9.93533 13.7113 10.6913 12.9553 11.6469 12.6986C13.3728 12.2279 20.319 12.2136 20.319 12.2136C20.319 12.2136 27.2652 12.2136 28.9911 12.6843ZM23.8706 20.0014L18.1082 23.339V16.6638L23.8706 20.0014Z" fill="#121218"/>
</svg>
